<svg id="BlueprintStarMandala" xmlns:xlink="http://www.w3.org/1999/xlink" xmlns="http://www.w3.org/2000/svg" viewBox="0 0 1080 1080"><defs><filter id="blueprintPaper"><feTurbulence type="fractalNoise" baseFrequency="0.14589803375031551" stitchTiles="stitch" seed="2"/><feSpecularLighting specularConstant="2.618033988749895" specularExponent="4.23606797749979" lighting-color="hsl(240, 50%, 33%)" surfaceScale="1.618033988749895"><fePointLight x="540" y="540" z="67.5"/></feSpecularLighting></filter><linearGradient id="frontPetalGradient" gradientTransform="rotate(90)"><stop offset="0%" stop-color="hsl(60, 100%, 50%)"/><stop offset="61%" stop-color="hsl(0, 100%, 50%)"/></linearGradient><linearGradient id="rearPetalGradient" gradientTransform="rotate(90)"><stop offset="0%" stop-color="hsl(240, 100%, 50%)"/><stop offset="61%" stop-color="hsl(180, 100%, 50%)"/></linearGradient><linearGradient id="backgroundGradient" gradientTransform="rotate(90)"><stop offset="00%" stop-color="hsl(0, 100%, 10%)"/><stop offset="100%" stop-color="hsl(240, 100%, 20%)"/></linearGradient><path id="petal" d="M539.9999999999999,109.34162784654126C539.9999999999999,122.87888081940946 583.6010295844306,125.16391395438364 581.0845554495028,149.10656601371232S539.9999999999999,209.98136627990914 540,374.9906831399546M539.9999999999999,109.34162784654126C539.9999999999999,122.87888081940946 496.3989704155692,125.16391395438364 498.9154445504971,149.10656601371232S539.9999999999999,209.98136627990914 540,374.9906831399546" stroke="hsl(30, 100%, 50%)" stroke-width="1"/><mask id="centerCircleMask"><rect width="1080" height="1080" fill="white"/><circle cx="540" cy="540" r="63.027950580136306" fill="black"/></mask><filter id="mandala"><feFlood result="flood" flood-color="hsl(0, 100%, 25%)" flood-opacity="1"/><feComposite in="flood" in2="SourceGraphic" operator="in" result="mask"/><feMorphology in="mask" operator="dilate" radius="2" result="dilated"/><feGaussianBlur in="dilated" stdDeviation="5" result="glow"/><feMerge><feMergeNode in="glow"/><feMergeNode in="SourceGraphic"/></feMerge></filter></defs><rect width="1080" height="1080" fill="url(#backgroundGradient)"/><rect id="bgRect" width="1080" height="1080" filter="url(#blueprintPaper)"/><g id="mandala" filter="url(#mandala)" style="display: inline;"><use xmlns:xlink="http://www.w3.org/1999/xlink" xlink:href="#petal" transform="rotate(6, 540, 540)" fill="url(#rearPetalGradient)" fill-opacity="0.85"/><use xmlns:xlink="http://www.w3.org/1999/xlink" xlink:href="#petal" transform="rotate(18, 540, 540)" fill="url(#rearPetalGradient)" fill-opacity="0.85"/><use xmlns:xlink="http://www.w3.org/1999/xlink" xlink:href="#petal" transform="rotate(30, 540, 540)" fill="url(#rearPetalGradient)" fill-opacity="0.85"/><use xmlns:xlink="http://www.w3.org/1999/xlink" xlink:href="#petal" transform="rotate(42, 540, 540)" fill="url(#rearPetalGradient)" fill-opacity="0.85"/><use xmlns:xlink="http://www.w3.org/1999/xlink" xlink:href="#petal" transform="rotate(54, 540, 540)" fill="url(#rearPetalGradient)" fill-opacity="0.85"/><use xmlns:xlink="http://www.w3.org/1999/xlink" xlink:href="#petal" transform="rotate(66, 540, 540)" fill="url(#rearPetalGradient)" fill-opacity="0.85"/><use xmlns:xlink="http://www.w3.org/1999/xlink" xlink:href="#petal" transform="rotate(78, 540, 540)" fill="url(#rearPetalGradient)" fill-opacity="0.85"/><use xmlns:xlink="http://www.w3.org/1999/xlink" xlink:href="#petal" transform="rotate(90, 540, 540)" fill="url(#rearPetalGradient)" fill-opacity="0.85"/><use xmlns:xlink="http://www.w3.org/1999/xlink" xlink:href="#petal" transform="rotate(102, 540, 540)" fill="url(#rearPetalGradient)" fill-opacity="0.85"/><use xmlns:xlink="http://www.w3.org/1999/xlink" xlink:href="#petal" transform="rotate(114, 540, 540)" fill="url(#rearPetalGradient)" fill-opacity="0.85"/><use xmlns:xlink="http://www.w3.org/1999/xlink" xlink:href="#petal" transform="rotate(126, 540, 540)" fill="url(#rearPetalGradient)" fill-opacity="0.85"/><use xmlns:xlink="http://www.w3.org/1999/xlink" xlink:href="#petal" transform="rotate(138, 540, 540)" fill="url(#rearPetalGradient)" fill-opacity="0.85"/><use xmlns:xlink="http://www.w3.org/1999/xlink" xlink:href="#petal" transform="rotate(150, 540, 540)" fill="url(#rearPetalGradient)" fill-opacity="0.85"/><use xmlns:xlink="http://www.w3.org/1999/xlink" xlink:href="#petal" transform="rotate(162, 540, 540)" fill="url(#rearPetalGradient)" fill-opacity="0.85"/><use xmlns:xlink="http://www.w3.org/1999/xlink" xlink:href="#petal" transform="rotate(174, 540, 540)" fill="url(#rearPetalGradient)" fill-opacity="0.85"/><use xmlns:xlink="http://www.w3.org/1999/xlink" xlink:href="#petal" transform="rotate(186, 540, 540)" fill="url(#rearPetalGradient)" fill-opacity="0.85"/><use xmlns:xlink="http://www.w3.org/1999/xlink" xlink:href="#petal" transform="rotate(198, 540, 540)" fill="url(#rearPetalGradient)" fill-opacity="0.85"/><use xmlns:xlink="http://www.w3.org/1999/xlink" xlink:href="#petal" transform="rotate(210, 540, 540)" fill="url(#rearPetalGradient)" fill-opacity="0.85"/><use xmlns:xlink="http://www.w3.org/1999/xlink" xlink:href="#petal" transform="rotate(222, 540, 540)" fill="url(#rearPetalGradient)" fill-opacity="0.85"/><use xmlns:xlink="http://www.w3.org/1999/xlink" xlink:href="#petal" transform="rotate(234, 540, 540)" fill="url(#rearPetalGradient)" fill-opacity="0.85"/><use xmlns:xlink="http://www.w3.org/1999/xlink" xlink:href="#petal" transform="rotate(246, 540, 540)" fill="url(#rearPetalGradient)" fill-opacity="0.85"/><use xmlns:xlink="http://www.w3.org/1999/xlink" xlink:href="#petal" transform="rotate(258, 540, 540)" fill="url(#rearPetalGradient)" fill-opacity="0.85"/><use xmlns:xlink="http://www.w3.org/1999/xlink" xlink:href="#petal" transform="rotate(270, 540, 540)" fill="url(#rearPetalGradient)" fill-opacity="0.85"/><use xmlns:xlink="http://www.w3.org/1999/xlink" xlink:href="#petal" transform="rotate(282, 540, 540)" fill="url(#rearPetalGradient)" fill-opacity="0.85"/><use xmlns:xlink="http://www.w3.org/1999/xlink" xlink:href="#petal" transform="rotate(294, 540, 540)" fill="url(#rearPetalGradient)" fill-opacity="0.85"/><use xmlns:xlink="http://www.w3.org/1999/xlink" xlink:href="#petal" transform="rotate(306, 540, 540)" fill="url(#rearPetalGradient)" fill-opacity="0.85"/><use xmlns:xlink="http://www.w3.org/1999/xlink" xlink:href="#petal" transform="rotate(318, 540, 540)" fill="url(#rearPetalGradient)" fill-opacity="0.85"/><use xmlns:xlink="http://www.w3.org/1999/xlink" xlink:href="#petal" transform="rotate(330, 540, 540)" fill="url(#rearPetalGradient)" fill-opacity="0.85"/><use xmlns:xlink="http://www.w3.org/1999/xlink" xlink:href="#petal" transform="rotate(342, 540, 540)" fill="url(#rearPetalGradient)" fill-opacity="0.85"/><use xmlns:xlink="http://www.w3.org/1999/xlink" xlink:href="#petal" transform="rotate(354, 540, 540)" fill="url(#rearPetalGradient)" fill-opacity="0.85"/><use xmlns:xlink="http://www.w3.org/1999/xlink" xlink:href="#petal" transform="rotate(0, 540, 540)" fill="url(#frontPetalGradient)" fill-opacity="0.85"/><use xmlns:xlink="http://www.w3.org/1999/xlink" xlink:href="#petal" transform="rotate(12, 540, 540)" fill="url(#frontPetalGradient)" fill-opacity="0.85"/><use xmlns:xlink="http://www.w3.org/1999/xlink" xlink:href="#petal" transform="rotate(24, 540, 540)" fill="url(#frontPetalGradient)" fill-opacity="0.85"/><use xmlns:xlink="http://www.w3.org/1999/xlink" xlink:href="#petal" transform="rotate(36, 540, 540)" fill="url(#frontPetalGradient)" fill-opacity="0.85"/><use xmlns:xlink="http://www.w3.org/1999/xlink" xlink:href="#petal" transform="rotate(48, 540, 540)" fill="url(#frontPetalGradient)" fill-opacity="0.85"/><use xmlns:xlink="http://www.w3.org/1999/xlink" xlink:href="#petal" transform="rotate(60, 540, 540)" fill="url(#frontPetalGradient)" fill-opacity="0.85"/><use xmlns:xlink="http://www.w3.org/1999/xlink" xlink:href="#petal" transform="rotate(72, 540, 540)" fill="url(#frontPetalGradient)" fill-opacity="0.85"/><use xmlns:xlink="http://www.w3.org/1999/xlink" xlink:href="#petal" transform="rotate(84, 540, 540)" fill="url(#frontPetalGradient)" fill-opacity="0.85"/><use xmlns:xlink="http://www.w3.org/1999/xlink" xlink:href="#petal" transform="rotate(96, 540, 540)" fill="url(#frontPetalGradient)" fill-opacity="0.85"/><use xmlns:xlink="http://www.w3.org/1999/xlink" xlink:href="#petal" transform="rotate(108, 540, 540)" fill="url(#frontPetalGradient)" fill-opacity="0.85"/><use xmlns:xlink="http://www.w3.org/1999/xlink" xlink:href="#petal" transform="rotate(120, 540, 540)" fill="url(#frontPetalGradient)" fill-opacity="0.85"/><use xmlns:xlink="http://www.w3.org/1999/xlink" xlink:href="#petal" transform="rotate(132, 540, 540)" fill="url(#frontPetalGradient)" fill-opacity="0.85"/><use xmlns:xlink="http://www.w3.org/1999/xlink" xlink:href="#petal" transform="rotate(144, 540, 540)" fill="url(#frontPetalGradient)" fill-opacity="0.85"/><use xmlns:xlink="http://www.w3.org/1999/xlink" xlink:href="#petal" transform="rotate(156, 540, 540)" fill="url(#frontPetalGradient)" fill-opacity="0.85"/><use xmlns:xlink="http://www.w3.org/1999/xlink" xlink:href="#petal" transform="rotate(168, 540, 540)" fill="url(#frontPetalGradient)" fill-opacity="0.85"/><use xmlns:xlink="http://www.w3.org/1999/xlink" xlink:href="#petal" transform="rotate(180, 540, 540)" fill="url(#frontPetalGradient)" fill-opacity="0.85"/><use xmlns:xlink="http://www.w3.org/1999/xlink" xlink:href="#petal" transform="rotate(192, 540, 540)" fill="url(#frontPetalGradient)" fill-opacity="0.85"/><use xmlns:xlink="http://www.w3.org/1999/xlink" xlink:href="#petal" transform="rotate(204, 540, 540)" fill="url(#frontPetalGradient)" fill-opacity="0.85"/><use xmlns:xlink="http://www.w3.org/1999/xlink" xlink:href="#petal" transform="rotate(216, 540, 540)" fill="url(#frontPetalGradient)" fill-opacity="0.85"/><use xmlns:xlink="http://www.w3.org/1999/xlink" xlink:href="#petal" transform="rotate(228, 540, 540)" fill="url(#frontPetalGradient)" fill-opacity="0.85"/><use xmlns:xlink="http://www.w3.org/1999/xlink" xlink:href="#petal" transform="rotate(240, 540, 540)" fill="url(#frontPetalGradient)" fill-opacity="0.85"/><use xmlns:xlink="http://www.w3.org/1999/xlink" xlink:href="#petal" transform="rotate(252, 540, 540)" fill="url(#frontPetalGradient)" fill-opacity="0.85"/><use xmlns:xlink="http://www.w3.org/1999/xlink" xlink:href="#petal" transform="rotate(264, 540, 540)" fill="url(#frontPetalGradient)" fill-opacity="0.85"/><use xmlns:xlink="http://www.w3.org/1999/xlink" xlink:href="#petal" transform="rotate(276, 540, 540)" fill="url(#frontPetalGradient)" fill-opacity="0.85"/><use xmlns:xlink="http://www.w3.org/1999/xlink" xlink:href="#petal" transform="rotate(288, 540, 540)" fill="url(#frontPetalGradient)" fill-opacity="0.85"/><use xmlns:xlink="http://www.w3.org/1999/xlink" xlink:href="#petal" transform="rotate(300, 540, 540)" fill="url(#frontPetalGradient)" fill-opacity="0.85"/><use xmlns:xlink="http://www.w3.org/1999/xlink" xlink:href="#petal" transform="rotate(312, 540, 540)" fill="url(#frontPetalGradient)" fill-opacity="0.85"/><use xmlns:xlink="http://www.w3.org/1999/xlink" xlink:href="#petal" transform="rotate(324, 540, 540)" fill="url(#frontPetalGradient)" fill-opacity="0.85"/><use xmlns:xlink="http://www.w3.org/1999/xlink" xlink:href="#petal" transform="rotate(336, 540, 540)" fill="url(#frontPetalGradient)" fill-opacity="0.85"/><use xmlns:xlink="http://www.w3.org/1999/xlink" xlink:href="#petal" transform="rotate(348, 540, 540)" fill="url(#frontPetalGradient)" fill-opacity="0.85"/><path d="M540,374.9906831399545 L540,374.9906831399545 L577.0464216383546,489.0099750388168 L696.9331860491579,489.00931686004543 L599.9423693724171,559.4764564479665 L636.9900429411905,673.4953415699773 L540,603.0271370264336 L443.00995705880956,673.4953415699773 L480.05763062758285,559.4764564479665 L383.066813950842,489.00931686004543 L502.9535783616455,489.0099750388168 Z" fill="hsl(200, 100%, 20%)" fill-opacity="0.5" stroke="hsl(30, 100%, 50%)" stroke-width="1" mask="url(#centerCircleMask)"/><path d="M540,273.0093168600454 L540,273.0093168600454 L599.9423693724171,457.4964065256 L793.9232289903484,457.4953415699773 L636.9887910107717,571.5135685132168 L696.9331860491579,756 L540,641.9800499223664 L383.06681395084206,756 L443.0112089892283,571.5135685132168 L286.07677100965157,457.4953415699773 L480.0576306275828,457.49640652560004 Z" fill="hsl(200, 100%, 20%)" fill-opacity="0.5" stroke="hsl(30, 100%, 50%)" stroke-width="1" mask="url(#centerCircleMask)"/><g><path d="M705.0093168600455,540 L705.0093168600455,540 L590.9900249611833,577.0464216383546 L590.9906831399546,696.9331860491579 L520.5235435520335,599.9423693724171 L406.5046584300227,636.9900429411905 L476.97286297356646,540 L406.5046584300227,443.00995705880956 L520.5235435520335,480.05763062758285 L590.9906831399545,383.066813950842 L590.9900249611833,502.95357836164544 Z" fill="hsl(30, 100%, 50%)" fill-opacity="0.08333333333333333" mask="url(#centerCircleMask)"/><path d="M705.0093168600455,540 L705.0093168600455,540 L590.9900249611833,577.0464216383546 L590.9906831399546,696.9331860491579 L520.5235435520335,599.9423693724171 L406.5046584300227,636.9900429411905 L476.97286297356646,540 L406.5046584300227,443.00995705880956 L520.5235435520335,480.05763062758285 L590.9906831399545,383.066813950842 L590.9900249611833,502.95357836164544 Z" fill="none" stroke="hsl(30, 100%, 50%)" stroke-width="0.4"/></g><g><path d="M682.9022602619152,622.5046584300227 L682.9022602619152,622.5046584300227 L565.6354461368101,597.5781547387162 L505.69263393094457,701.4034673853778 L493.1617092541512,582.1733864155603 L375.8946214429236,557.2481703162259 L485.41689820730574,508.4864314867832 L472.8846643841141,389.2564881137968 L553.1040786265684,478.35015713647323 L662.6258199801025,429.58721575457685 L602.6818677751646,533.4118702224671 Z" fill="hsl(30, 100%, 50%)" fill-opacity="0.08333333333333333" mask="url(#centerCircleMask)"/><path d="M682.9022602619152,622.5046584300227 L682.9022602619152,622.5046584300227 L565.6354461368101,597.5781547387162 L505.69263393094457,701.4034673853778 L493.1617092541512,582.1733864155603 L375.8946214429236,557.2481703162259 L485.41689820730574,508.4864314867832 L472.8846643841141,389.2564881137968 L553.1040786265684,478.35015713647323 L662.6258199801025,429.58721575457685 L602.6818677751646,533.4118702224671 Z" fill="none" stroke="hsl(30, 100%, 50%)" stroke-width="0.4"/></g><g><path d="M622.5046584300228,682.9022602619152 L622.5046584300228,682.9022602619152 L533.4118702224671,602.6818677751646 L429.58721575457685,662.6258199801025 L478.35015713647323,553.1040786265684 L389.2564881137969,472.8846643841141 L508.4864314867832,485.41689820730574 L557.2481703162258,375.8946214429236 L582.1733864155603,493.1617092541512 L701.4034673853778,505.69263393094445 L597.5781547387162,565.6354461368101 Z" fill="hsl(30, 100%, 50%)" fill-opacity="0.08333333333333333" mask="url(#centerCircleMask)"/><path d="M622.5046584300228,682.9022602619152 L622.5046584300228,682.9022602619152 L533.4118702224671,602.6818677751646 L429.58721575457685,662.6258199801025 L478.35015713647323,553.1040786265684 L389.2564881137969,472.8846643841141 L508.4864314867832,485.41689820730574 L557.2481703162258,375.8946214429236 L582.1733864155603,493.1617092541512 L701.4034673853778,505.69263393094445 L597.5781547387162,565.6354461368101 Z" fill="none" stroke="hsl(30, 100%, 50%)" stroke-width="0.4"/></g><g><path d="M540,705.0093168600455 L540,705.0093168600455 L502.9535783616455,590.9900249611833 L383.06681395084206,590.9906831399546 L480.0576306275828,520.5235435520335 L443.0099570588095,406.5046584300227 L540,476.97286297356646 L636.9900429411904,406.5046584300227 L599.9423693724171,520.5235435520335 L696.9331860491579,590.9906831399545 L577.0464216383546,590.9900249611832 Z" fill="hsl(30, 100%, 50%)" fill-opacity="0.08333333333333333" mask="url(#centerCircleMask)"/><path d="M540,705.0093168600455 L540,705.0093168600455 L502.9535783616455,590.9900249611833 L383.06681395084206,590.9906831399546 L480.0576306275828,520.5235435520335 L443.0099570588095,406.5046584300227 L540,476.97286297356646 L636.9900429411904,406.5046584300227 L599.9423693724171,520.5235435520335 L696.9331860491579,590.9906831399545 L577.0464216383546,590.9900249611832 Z" fill="none" stroke="hsl(30, 100%, 50%)" stroke-width="0.4"/></g><g><path d="M457.4953415699773,682.9022602619152 L457.4953415699773,682.9022602619152 L482.42184526128386,565.6354461368101 L378.5965326146222,505.6926339309445 L497.82661358443966,493.1617092541512 L522.7518296837742,375.8946214429236 L571.5135685132168,485.41689820730574 L690.7435118862031,472.8846643841141 L601.6498428635268,553.1040786265684 L650.4127842454232,662.6258199801025 L546.5881297775329,602.6818677751646 Z" fill="hsl(30, 100%, 50%)" fill-opacity="0.08333333333333333" mask="url(#centerCircleMask)"/><path d="M457.4953415699773,682.9022602619152 L457.4953415699773,682.9022602619152 L482.42184526128386,565.6354461368101 L378.5965326146222,505.6926339309445 L497.82661358443966,493.1617092541512 L522.7518296837742,375.8946214429236 L571.5135685132168,485.41689820730574 L690.7435118862031,472.8846643841141 L601.6498428635268,553.1040786265684 L650.4127842454232,662.6258199801025 L546.5881297775329,602.6818677751646 Z" fill="none" stroke="hsl(30, 100%, 50%)" stroke-width="0.4"/></g><g><path d="M397.0977397380848,622.5046584300227 L397.0977397380848,622.5046584300227 L477.31813222483544,533.4118702224671 L417.3741800198975,429.58721575457685 L526.8959213734315,478.35015713647323 L607.1153356158859,389.25648811379676 L594.5831017926943,508.4864314867832 L704.1053785570764,557.2481703162258 L586.8382907458488,582.1733864155603 L574.3073660690554,701.4034673853778 L514.3645538631899,597.5781547387162 Z" fill="hsl(30, 100%, 50%)" fill-opacity="0.08333333333333333" mask="url(#centerCircleMask)"/><path d="M397.0977397380848,622.5046584300227 L397.0977397380848,622.5046584300227 L477.31813222483544,533.4118702224671 L417.3741800198975,429.58721575457685 L526.8959213734315,478.35015713647323 L607.1153356158859,389.25648811379676 L594.5831017926943,508.4864314867832 L704.1053785570764,557.2481703162258 L586.8382907458488,582.1733864155603 L574.3073660690554,701.4034673853778 L514.3645538631899,597.5781547387162 Z" fill="none" stroke="hsl(30, 100%, 50%)" stroke-width="0.4"/></g><g><path d="M374.9906831399545,540 L374.9906831399545,540 L489.0099750388168,502.9535783616455 L489.0093168600454,383.06681395084206 L559.4764564479665,480.0576306275828 L673.4953415699773,443.0099570588095 L603.0271370264336,540 L673.4953415699773,636.9900429411904 L559.4764564479665,599.9423693724171 L489.0093168600455,696.9331860491579 L489.0099750388168,577.0464216383546 Z" fill="hsl(30, 100%, 50%)" fill-opacity="0.08333333333333333" mask="url(#centerCircleMask)"/><path d="M374.9906831399545,540 L374.9906831399545,540 L489.0099750388168,502.9535783616455 L489.0093168600454,383.06681395084206 L559.4764564479665,480.0576306275828 L673.4953415699773,443.0099570588095 L603.0271370264336,540 L673.4953415699773,636.9900429411904 L559.4764564479665,599.9423693724171 L489.0093168600455,696.9331860491579 L489.0099750388168,577.0464216383546 Z" fill="none" stroke="hsl(30, 100%, 50%)" stroke-width="0.4"/></g><g><path d="M397.0977397380848,457.49534156997726 L397.0977397380848,457.49534156997726 L514.3645538631899,482.42184526128386 L574.3073660690554,378.5965326146222 L586.8382907458488,497.82661358443966 L704.1053785570764,522.7518296837742 L594.5831017926943,571.5135685132168 L607.1153356158859,690.7435118862031 L526.8959213734316,601.6498428635268 L417.3741800198976,650.4127842454233 L477.31813222483544,546.588129777533 Z" fill="hsl(30, 100%, 50%)" fill-opacity="0.08333333333333333" mask="url(#centerCircleMask)"/><path d="M397.0977397380848,457.49534156997726 L397.0977397380848,457.49534156997726 L514.3645538631899,482.42184526128386 L574.3073660690554,378.5965326146222 L586.8382907458488,497.82661358443966 L704.1053785570764,522.7518296837742 L594.5831017926943,571.5135685132168 L607.1153356158859,690.7435118862031 L526.8959213734316,601.6498428635268 L417.3741800198976,650.4127842454233 L477.31813222483544,546.588129777533 Z" fill="none" stroke="hsl(30, 100%, 50%)" stroke-width="0.4"/></g><g><path d="M457.4953415699772,397.0977397380848 L457.4953415699772,397.0977397380848 L546.5881297775329,477.31813222483544 L650.4127842454232,417.3741800198974 L601.6498428635268,526.8959213734315 L690.7435118862031,607.115335615886 L571.5135685132168,594.5831017926943 L522.7518296837741,704.1053785570764 L497.82661358443966,586.8382907458488 L378.5965326146222,574.3073660690554 L482.42184526128386,514.3645538631899 Z" fill="hsl(30, 100%, 50%)" fill-opacity="0.08333333333333333" mask="url(#centerCircleMask)"/><path d="M457.4953415699772,397.0977397380848 L457.4953415699772,397.0977397380848 L546.5881297775329,477.31813222483544 L650.4127842454232,417.3741800198974 L601.6498428635268,526.8959213734315 L690.7435118862031,607.115335615886 L571.5135685132168,594.5831017926943 L522.7518296837741,704.1053785570764 L497.82661358443966,586.8382907458488 L378.5965326146222,574.3073660690554 L482.42184526128386,514.3645538631899 Z" fill="none" stroke="hsl(30, 100%, 50%)" stroke-width="0.4"/></g><g><path d="M540,374.9906831399545 L540,374.9906831399545 L577.0464216383546,489.0099750388168 L696.9331860491579,489.0093168600454 L599.9423693724171,559.4764564479665 L636.9900429411905,673.4953415699773 L540,603.0271370264336 L443.00995705880956,673.4953415699773 L480.05763062758285,559.4764564479665 L383.066813950842,489.0093168600455 L502.95357836164544,489.0099750388168 Z" fill="hsl(30, 100%, 50%)" fill-opacity="0.08333333333333333" mask="url(#centerCircleMask)"/><path d="M540,374.9906831399545 L540,374.9906831399545 L577.0464216383546,489.0099750388168 L696.9331860491579,489.0093168600454 L599.9423693724171,559.4764564479665 L636.9900429411905,673.4953415699773 L540,603.0271370264336 L443.00995705880956,673.4953415699773 L480.05763062758285,559.4764564479665 L383.066813950842,489.0093168600455 L502.95357836164544,489.0099750388168 Z" fill="none" stroke="hsl(30, 100%, 50%)" stroke-width="0.4"/></g><g><path d="M622.5046584300228,397.0977397380848 L622.5046584300228,397.0977397380848 L597.5781547387162,514.3645538631899 L701.4034673853778,574.3073660690554 L582.1733864155603,586.8382907458488 L557.2481703162258,704.1053785570764 L508.48643148678326,594.5831017926943 L389.2564881137969,607.1153356158861 L478.35015713647323,526.8959213734316 L429.58721575457673,417.3741800198976 L533.411870222467,477.31813222483544 Z" fill="hsl(30, 100%, 50%)" fill-opacity="0.08333333333333333" mask="url(#centerCircleMask)"/><path d="M622.5046584300228,397.0977397380848 L622.5046584300228,397.0977397380848 L597.5781547387162,514.3645538631899 L701.4034673853778,574.3073660690554 L582.1733864155603,586.8382907458488 L557.2481703162258,704.1053785570764 L508.48643148678326,594.5831017926943 L389.2564881137969,607.1153356158861 L478.35015713647323,526.8959213734316 L429.58721575457673,417.3741800198976 L533.411870222467,477.31813222483544 Z" fill="none" stroke="hsl(30, 100%, 50%)" stroke-width="0.4"/></g><g><path d="M682.9022602619152,457.4953415699772 L682.9022602619152,457.4953415699772 L602.6818677751646,546.5881297775329 L662.6258199801025,650.4127842454233 L553.1040786265684,601.6498428635268 L472.88466438411405,690.7435118862031 L485.41689820730574,571.5135685132168 L375.8946214429236,522.7518296837741 L493.1617092541512,497.82661358443966 L505.69263393094457,378.5965326146222 L565.6354461368101,482.42184526128386 Z" fill="hsl(30, 100%, 50%)" fill-opacity="0.08333333333333333" mask="url(#centerCircleMask)"/><path d="M682.9022602619152,457.4953415699772 L682.9022602619152,457.4953415699772 L602.6818677751646,546.5881297775329 L662.6258199801025,650.4127842454233 L553.1040786265684,601.6498428635268 L472.88466438411405,690.7435118862031 L485.41689820730574,571.5135685132168 L375.8946214429236,522.7518296837741 L493.1617092541512,497.82661358443966 L505.69263393094457,378.5965326146222 L565.6354461368101,482.42184526128386 Z" fill="none" stroke="hsl(30, 100%, 50%)" stroke-width="0.4"/></g></g><line x1="541.3416278465413" y1="540" x2="972" y2="540" stroke="hsl(30, 100%, 50%)"/><line x1="541.3342782688211" y1="540.140238297076" x2="969.6334587990941" y2="585.1562961316263" stroke="hsl(30, 100%, 50%)"/><line x1="541.312310059172" y1="540.2789401140226" x2="962.5597635170041" y2="629.817850433272" stroke="hsl(30, 100%, 50%)"/><line x1="541.2759639058961" y1="540.4145858047079" x2="950.8564150395064" y2="673.4953415699773" stroke="hsl(30, 100%, 50%)"/><line x1="541.2256380250546" y1="540.5456892065592" x2="934.6516377016036" y2="715.7102298087457" stroke="hsl(30, 100%, 50%)"/><line x1="541.1618837975294" y1="540.6708139232707" x2="914.1229744348775" y2="756" stroke="hsl(30, 100%, 50%)"/><line x1="541.0853997279786" y1="540.7885890622618" x2="889.4953415699773" y2="793.9232289903484" stroke="hsl(30, 100%, 50%)"/><line x1="540.9970237918735" y1="540.8977242544642" x2="861.0385646062343" y2="829.0644219470267" stroke="hsl(30, 100%, 50%)"/><line x1="540.8977242544642" y1="540.9970237918735" x2="829.0644219470267" y2="861.0385646062343" stroke="hsl(30, 100%, 50%)"/><line x1="540.7885890622618" y1="541.0853997279786" x2="793.9232289903484" y2="889.4953415699773" stroke="hsl(30, 100%, 50%)"/><line x1="540.6708139232707" y1="541.1618837975294" x2="756" y2="914.1229744348775" stroke="hsl(30, 100%, 50%)"/><line x1="540.5456892065592" y1="541.2256380250546" x2="715.7102298087457" y2="934.6516377016036" stroke="hsl(30, 100%, 50%)"/><line x1="540.4145858047079" y1="541.2759639058961" x2="673.4953415699773" y2="950.8564150395064" stroke="hsl(30, 100%, 50%)"/><line x1="540.2789401140226" y1="541.312310059172" x2="629.817850433272" y2="962.5597635170041" stroke="hsl(30, 100%, 50%)"/><line x1="540.140238297076" y1="541.3342782688211" x2="585.1562961316263" y2="969.6334587990941" stroke="hsl(30, 100%, 50%)"/><line x1="540" y1="541.3416278465413" x2="540" y2="972" stroke="hsl(30, 100%, 50%)"/><line x1="539.859761702924" y1="541.3342782688211" x2="494.84370386837367" y2="969.6334587990941" stroke="hsl(30, 100%, 50%)"/><line x1="539.7210598859774" y1="541.312310059172" x2="450.18214956672796" y2="962.5597635170041" stroke="hsl(30, 100%, 50%)"/><line x1="539.5854141952921" y1="541.2759639058961" x2="406.50465843002274" y2="950.8564150395064" stroke="hsl(30, 100%, 50%)"/><line x1="539.4543107934408" y1="541.2256380250546" x2="364.2897701912543" y2="934.6516377016036" stroke="hsl(30, 100%, 50%)"/><line x1="539.3291860767293" y1="541.1618837975294" x2="324.0000000000001" y2="914.1229744348775" stroke="hsl(30, 100%, 50%)"/><line x1="539.2114109377382" y1="541.0853997279786" x2="286.0767710096517" y2="889.4953415699773" stroke="hsl(30, 100%, 50%)"/><line x1="539.1022757455358" y1="540.9970237918735" x2="250.93557805297326" y2="861.0385646062343" stroke="hsl(30, 100%, 50%)"/><line x1="539.0029762081265" y1="540.8977242544642" x2="218.96143539376573" y2="829.0644219470269" stroke="hsl(30, 100%, 50%)"/><line x1="538.9146002720214" y1="540.7885890622618" x2="190.50465843002274" y2="793.9232289903484" stroke="hsl(30, 100%, 50%)"/><line x1="538.8381162024706" y1="540.6708139232707" x2="165.8770255651225" y2="756" stroke="hsl(30, 100%, 50%)"/><line x1="538.7743619749454" y1="540.5456892065592" x2="145.34836229839647" y2="715.7102298087458" stroke="hsl(30, 100%, 50%)"/><line x1="538.7240360941039" y1="540.4145858047079" x2="129.14358496049368" y2="673.4953415699773" stroke="hsl(30, 100%, 50%)"/><line x1="538.687689940828" y1="540.2789401140226" x2="117.44023648299594" y2="629.817850433272" stroke="hsl(30, 100%, 50%)"/><line x1="538.6657217311789" y1="540.140238297076" x2="110.36654120090594" y2="585.1562961316264" stroke="hsl(30, 100%, 50%)"/><line x1="538.6583721534587" y1="540" x2="108" y2="540" stroke="hsl(30, 100%, 50%)"/><line x1="538.6657217311789" y1="539.859761702924" x2="110.36654120090594" y2="494.84370386837367" stroke="hsl(30, 100%, 50%)"/><line x1="538.687689940828" y1="539.7210598859774" x2="117.440236482996" y2="450.1821495667279" stroke="hsl(30, 100%, 50%)"/><line x1="538.7240360941039" y1="539.5854141952921" x2="129.14358496049363" y2="406.5046584300228" stroke="hsl(30, 100%, 50%)"/><line x1="538.7743619749454" y1="539.4543107934408" x2="145.3483622983964" y2="364.2897701912543" stroke="hsl(30, 100%, 50%)"/><line x1="538.8381162024706" y1="539.3291860767293" x2="165.87702556512255" y2="323.99999999999994" stroke="hsl(30, 100%, 50%)"/><line x1="538.9146002720214" y1="539.2114109377382" x2="190.5046584300227" y2="286.0767710096517" stroke="hsl(30, 100%, 50%)"/><line x1="539.0029762081265" y1="539.1022757455358" x2="218.96143539376567" y2="250.93557805297326" stroke="hsl(30, 100%, 50%)"/><line x1="539.1022757455358" y1="539.0029762081265" x2="250.9355780529733" y2="218.9614353937656" stroke="hsl(30, 100%, 50%)"/><line x1="539.2114109377382" y1="538.9146002720214" x2="286.07677100965157" y2="190.50465843002274" stroke="hsl(30, 100%, 50%)"/><line x1="539.3291860767293" y1="538.8381162024706" x2="323.9999999999998" y2="165.87702556512255" stroke="hsl(30, 100%, 50%)"/><line x1="539.4543107934408" y1="538.7743619749454" x2="364.2897701912543" y2="145.34836229839635" stroke="hsl(30, 100%, 50%)"/><line x1="539.5854141952921" y1="538.7240360941039" x2="406.5046584300227" y2="129.14358496049368" stroke="hsl(30, 100%, 50%)"/><line x1="539.7210598859774" y1="538.687689940828" x2="450.1821495667278" y2="117.440236482996" stroke="hsl(30, 100%, 50%)"/><line x1="539.859761702924" y1="538.6657217311789" x2="494.8437038683737" y2="110.36654120090589" stroke="hsl(30, 100%, 50%)"/><line x1="540" y1="538.6583721534587" x2="539.9999999999999" y2="108" stroke="hsl(30, 100%, 50%)"/><line x1="540.140238297076" y1="538.6657217311789" x2="585.156296131626" y2="110.36654120090589" stroke="hsl(30, 100%, 50%)"/><line x1="540.2789401140226" y1="538.687689940828" x2="629.817850433272" y2="117.440236482996" stroke="hsl(30, 100%, 50%)"/><line x1="540.4145858047079" y1="538.7240360941039" x2="673.4953415699772" y2="129.14358496049363" stroke="hsl(30, 100%, 50%)"/><line x1="540.5456892065592" y1="538.7743619749454" x2="715.7102298087455" y2="145.34836229839635" stroke="hsl(30, 100%, 50%)"/><line x1="540.6708139232707" y1="538.8381162024706" x2="756" y2="165.87702556512255" stroke="hsl(30, 100%, 50%)"/><line x1="540.7885890622618" y1="538.9146002720214" x2="793.9232289903483" y2="190.50465843002263" stroke="hsl(30, 100%, 50%)"/><line x1="540.8977242544642" y1="539.0029762081265" x2="829.0644219470266" y2="218.96143539376556" stroke="hsl(30, 100%, 50%)"/><line x1="540.9970237918735" y1="539.1022757455358" x2="861.0385646062343" y2="250.9355780529733" stroke="hsl(30, 100%, 50%)"/><line x1="541.0853997279786" y1="539.2114109377382" x2="889.4953415699772" y2="286.0767710096515" stroke="hsl(30, 100%, 50%)"/><line x1="541.1618837975294" y1="539.3291860767293" x2="914.1229744348774" y2="323.9999999999998" stroke="hsl(30, 100%, 50%)"/><line x1="541.2256380250546" y1="539.4543107934408" x2="934.6516377016037" y2="364.2897701912543" stroke="hsl(30, 100%, 50%)"/><line x1="541.2759639058961" y1="539.5854141952921" x2="950.8564150395064" y2="406.50465843002263" stroke="hsl(30, 100%, 50%)"/><line x1="541.312310059172" y1="539.7210598859774" x2="962.5597635170041" y2="450.18214956672773" stroke="hsl(30, 100%, 50%)"/><line x1="541.3342782688211" y1="539.859761702924" x2="969.6334587990941" y2="494.8437038683737" stroke="hsl(30, 100%, 50%)"/><text x="982" y="540" dominant-baseline="middle" text-anchor="middle" fill="hsl(30, 100%, 50%)">0</text><text x="979.5786777527768" y="586.2015807643029" dominant-baseline="middle" text-anchor="middle" fill="hsl(30, 100%, 50%)">1</text><text x="972.3412395243421" y="631.8969673414497" dominant-baseline="middle" text-anchor="middle" fill="hsl(30, 100%, 50%)">2</text><text x="960.3669802024579" y="676.5855115137267" dominant-baseline="middle" text-anchor="middle" fill="hsl(30, 100%, 50%)">3</text><text x="943.7870922780296" y="719.7775962395037" dominant-baseline="middle" text-anchor="middle" fill="hsl(30, 100%, 50%)">4</text><text x="922.7832284727219" y="761" dominant-baseline="middle" text-anchor="middle" fill="hsl(30, 100%, 50%)">5</text><text x="897.5855115137267" y="799.8010815132732" dominant-baseline="middle" text-anchor="middle" fill="hsl(30, 100%, 50%)">6</text><text x="868.4700128610082" y="835.7557280106153" dominant-baseline="middle" text-anchor="middle" fill="hsl(30, 100%, 50%)">7</text><text x="835.7557280106153" y="868.4700128610082" dominant-baseline="middle" text-anchor="middle" fill="hsl(30, 100%, 50%)">8</text><text x="799.8010815132732" y="897.5855115137267" dominant-baseline="middle" text-anchor="middle" fill="hsl(30, 100%, 50%)">9</text><text x="761" y="922.7832284727219" dominant-baseline="middle" text-anchor="middle" fill="hsl(30, 100%, 50%)">10</text><text x="719.7775962395037" y="943.7870922780296" dominant-baseline="middle" text-anchor="middle" fill="hsl(30, 100%, 50%)">11</text><text x="676.5855115137267" y="960.3669802024579" dominant-baseline="middle" text-anchor="middle" fill="hsl(30, 100%, 50%)">12</text><text x="631.8969673414497" y="972.3412395243421" dominant-baseline="middle" text-anchor="middle" fill="hsl(30, 100%, 50%)">13</text><text x="586.2015807643028" y="979.5786777527768" dominant-baseline="middle" text-anchor="middle" fill="hsl(30, 100%, 50%)">14</text><text x="540" y="982" dominant-baseline="middle" text-anchor="middle" fill="hsl(30, 100%, 50%)">15</text><text x="493.7984192356971" y="979.5786777527768" dominant-baseline="middle" text-anchor="middle" fill="hsl(30, 100%, 50%)">16</text><text x="448.1030326585504" y="972.3412395243421" dominant-baseline="middle" text-anchor="middle" fill="hsl(30, 100%, 50%)">17</text><text x="403.4144884862733" y="960.3669802024579" dominant-baseline="middle" text-anchor="middle" fill="hsl(30, 100%, 50%)">18</text><text x="360.22240376049626" y="943.7870922780296" dominant-baseline="middle" text-anchor="middle" fill="hsl(30, 100%, 50%)">19</text><text x="319.0000000000001" y="922.7832284727219" dominant-baseline="middle" text-anchor="middle" fill="hsl(30, 100%, 50%)">20</text><text x="280.19891848672694" y="897.5855115137267" dominant-baseline="middle" text-anchor="middle" fill="hsl(30, 100%, 50%)">21</text><text x="244.24427198938469" y="868.4700128610082" dominant-baseline="middle" text-anchor="middle" fill="hsl(30, 100%, 50%)">22</text><text x="211.52998713899177" y="835.7557280106154" dominant-baseline="middle" text-anchor="middle" fill="hsl(30, 100%, 50%)">23</text><text x="182.41448848627329" y="799.8010815132732" dominant-baseline="middle" text-anchor="middle" fill="hsl(30, 100%, 50%)">24</text><text x="157.21677152727807" y="761" dominant-baseline="middle" text-anchor="middle" fill="hsl(30, 100%, 50%)">25</text><text x="136.21290772197045" y="719.7775962395037" dominant-baseline="middle" text-anchor="middle" fill="hsl(30, 100%, 50%)">26</text><text x="119.63301979754215" y="676.5855115137268" dominant-baseline="middle" text-anchor="middle" fill="hsl(30, 100%, 50%)">27</text><text x="107.65876047565791" y="631.8969673414497" dominant-baseline="middle" text-anchor="middle" fill="hsl(30, 100%, 50%)">28</text><text x="100.4213222472232" y="586.201580764303" dominant-baseline="middle" text-anchor="middle" fill="hsl(30, 100%, 50%)">29</text><text x="98" y="540" dominant-baseline="middle" text-anchor="middle" fill="hsl(30, 100%, 50%)">30</text><text x="100.4213222472232" y="493.79841923569717" dominant-baseline="middle" text-anchor="middle" fill="hsl(30, 100%, 50%)">31</text><text x="107.65876047565791" y="448.1030326585503" dominant-baseline="middle" text-anchor="middle" fill="hsl(30, 100%, 50%)">32</text><text x="119.63301979754209" y="403.4144884862733" dominant-baseline="middle" text-anchor="middle" fill="hsl(30, 100%, 50%)">33</text><text x="136.2129077219704" y="360.2224037604963" dominant-baseline="middle" text-anchor="middle" fill="hsl(30, 100%, 50%)">34</text><text x="157.21677152727813" y="318.99999999999994" dominant-baseline="middle" text-anchor="middle" fill="hsl(30, 100%, 50%)">35</text><text x="182.41448848627323" y="280.19891848672694" dominant-baseline="middle" text-anchor="middle" fill="hsl(30, 100%, 50%)">36</text><text x="211.52998713899177" y="244.24427198938469" dominant-baseline="middle" text-anchor="middle" fill="hsl(30, 100%, 50%)">37</text><text x="244.24427198938469" y="211.52998713899171" dominant-baseline="middle" text-anchor="middle" fill="hsl(30, 100%, 50%)">38</text><text x="280.1989184867268" y="182.41448848627329" dominant-baseline="middle" text-anchor="middle" fill="hsl(30, 100%, 50%)">39</text><text x="318.9999999999998" y="157.21677152727818" dominant-baseline="middle" text-anchor="middle" fill="hsl(30, 100%, 50%)">40</text><text x="360.2224037604964" y="136.2129077219704" dominant-baseline="middle" text-anchor="middle" fill="hsl(30, 100%, 50%)">41</text><text x="403.41448848627317" y="119.63301979754215" dominant-baseline="middle" text-anchor="middle" fill="hsl(30, 100%, 50%)">42</text><text x="448.1030326585502" y="107.65876047565791" dominant-baseline="middle" text-anchor="middle" fill="hsl(30, 100%, 50%)">43</text><text x="493.7984192356972" y="100.42132224722315" dominant-baseline="middle" text-anchor="middle" fill="hsl(30, 100%, 50%)">44</text><text x="539.9999999999999" y="98" dominant-baseline="middle" text-anchor="middle" fill="hsl(30, 100%, 50%)">45</text><text x="586.2015807643027" y="100.42132224722315" dominant-baseline="middle" text-anchor="middle" fill="hsl(30, 100%, 50%)">46</text><text x="631.8969673414497" y="107.65876047565791" dominant-baseline="middle" text-anchor="middle" fill="hsl(30, 100%, 50%)">47</text><text x="676.5855115137267" y="119.63301979754209" dominant-baseline="middle" text-anchor="middle" fill="hsl(30, 100%, 50%)">48</text><text x="719.7775962395035" y="136.21290772197034" dominant-baseline="middle" text-anchor="middle" fill="hsl(30, 100%, 50%)">49</text><text x="761" y="157.21677152727813" dominant-baseline="middle" text-anchor="middle" fill="hsl(30, 100%, 50%)">50</text><text x="799.801081513273" y="182.41448848627317" dominant-baseline="middle" text-anchor="middle" fill="hsl(30, 100%, 50%)">51</text><text x="835.7557280106151" y="211.5299871389916" dominant-baseline="middle" text-anchor="middle" fill="hsl(30, 100%, 50%)">52</text><text x="868.4700128610082" y="244.24427198938469" dominant-baseline="middle" text-anchor="middle" fill="hsl(30, 100%, 50%)">53</text><text x="897.5855115137267" y="280.19891848672677" dominant-baseline="middle" text-anchor="middle" fill="hsl(30, 100%, 50%)">54</text><text x="922.7832284727217" y="318.9999999999998" dominant-baseline="middle" text-anchor="middle" fill="hsl(30, 100%, 50%)">55</text><text x="943.7870922780296" y="360.2224037604963" dominant-baseline="middle" text-anchor="middle" fill="hsl(30, 100%, 50%)">56</text><text x="960.3669802024579" y="403.41448848627317" dominant-baseline="middle" text-anchor="middle" fill="hsl(30, 100%, 50%)">57</text><text x="972.3412395243421" y="448.10303265855015" dominant-baseline="middle" text-anchor="middle" fill="hsl(30, 100%, 50%)">58</text><text x="979.5786777527768" y="493.79841923569717" dominant-baseline="middle" text-anchor="middle" fill="hsl(30, 100%, 50%)">59</text><circle cx="540" cy="540" r="432" stroke="hsl(30, 100%, 50%)" fill="none"/><circle cx="540" cy="540" r="266.9906831399546" stroke="hsl(30, 100%, 50%)" fill="none"/><circle cx="540" cy="540" r="165.00931686004546" stroke="hsl(30, 100%, 50%)" fill="none"/><circle cx="540" cy="540" r="101.98136627990917" stroke="hsl(30, 100%, 50%)" fill="none"/><circle cx="540" cy="540" r="63.027950580136306" stroke="hsl(30, 100%, 50%)" fill="none"/><circle cx="540" cy="540" r="38.95341569977289" stroke="hsl(30, 100%, 50%)" fill="none"/><circle cx="540" cy="540" r="24.07453488036342" stroke="hsl(30, 100%, 50%)" fill="none"/><circle cx="540" cy="540" r="14.878880819409476" stroke="hsl(30, 100%, 50%)" fill="none"/><circle cx="540" cy="540" r="9.195654060953943" stroke="hsl(30, 100%, 50%)" fill="none"/><circle cx="540" cy="540" r="5.683226758455534" stroke="hsl(30, 100%, 50%)" fill="none"/><circle cx="540" cy="540" r="3.5124273024984096" stroke="hsl(30, 100%, 50%)" fill="none"/><circle cx="540" cy="540" r="2.170799455957126" stroke="hsl(30, 100%, 50%)" fill="none"/><circle cx="540" cy="540" r="1.3416278465412843" stroke="hsl(30, 100%, 50%)" fill="none"/><g id="spherishRing-432"><line x1="540" y1="108" x2="1012" y2="108" stroke="hsl(30, 100%, 50%)"/><text x="1022" y="108" fill="hsl(30, 100%, 50%)" dominant-baseline="middle">0</text></g><g id="spherishRing-266.9906831399546"><line x1="540" y1="273.0093168600454" x2="1012" y2="273.0093168600454" stroke="hsl(30, 100%, 50%)"/><text x="1022" y="273.0093168600454" fill="hsl(30, 100%, 50%)" dominant-baseline="middle">1</text></g><g id="spherishRing-165.00931686004546"><line x1="540" y1="374.9906831399545" x2="1012" y2="374.9906831399545" stroke="hsl(30, 100%, 50%)"/><text x="1022" y="374.9906831399545" fill="hsl(30, 100%, 50%)" dominant-baseline="middle">2</text></g><g id="spherishRing-101.98136627990917"><line x1="540" y1="438.01863372009086" x2="1012" y2="438.01863372009086" stroke="hsl(30, 100%, 50%)"/><text x="1022" y="438.01863372009086" fill="hsl(30, 100%, 50%)" dominant-baseline="middle">3</text></g><g id="spherishRing-63.027950580136306"><line x1="540" y1="476.9720494198637" x2="1012" y2="476.9720494198637" stroke="hsl(30, 100%, 50%)"/><text x="1022" y="476.9720494198637" fill="hsl(30, 100%, 50%)" dominant-baseline="middle">4</text></g><g id="spherishRing-38.95341569977289"><line x1="540" y1="501.0465843002271" x2="1012" y2="501.0465843002271" stroke="hsl(30, 100%, 50%)"/><text x="1022" y="501.0465843002271" fill="hsl(30, 100%, 50%)" dominant-baseline="middle">5</text></g><g id="spherishRing-24.07453488036342"><line x1="540" y1="515.9254651196366" x2="1012" y2="515.9254651196366" stroke="hsl(30, 100%, 50%)"/><text x="1022" y="515.9254651196366" fill="hsl(30, 100%, 50%)" dominant-baseline="middle">6</text></g><g id="spherishRing-14.878880819409476"><line x1="540" y1="525.1211191805905" x2="1012" y2="525.1211191805905" stroke="hsl(30, 100%, 50%)"/><text x="1022" y="525.1211191805905" fill="hsl(30, 100%, 50%)" dominant-baseline="middle">7</text></g><g id="spherishRing-9.195654060953943"><line x1="540" y1="530.804345939046" x2="1012" y2="530.804345939046" stroke="hsl(30, 100%, 50%)"/><text x="1022" y="530.804345939046" fill="hsl(30, 100%, 50%)" dominant-baseline="middle">8</text></g><g id="spherishRing-5.683226758455534"><line x1="540" y1="534.3167732415444" x2="1012" y2="534.3167732415444" stroke="hsl(30, 100%, 50%)"/><text x="1022" y="534.3167732415444" fill="hsl(30, 100%, 50%)" dominant-baseline="middle">9</text></g><g id="spherishRing-3.5124273024984096"><line x1="540" y1="536.4875726975016" x2="1012" y2="536.4875726975016" stroke="hsl(30, 100%, 50%)"/><text x="1022" y="536.4875726975016" fill="hsl(30, 100%, 50%)" dominant-baseline="middle">10</text></g><g id="spherishRing-2.170799455957126"><line x1="540" y1="537.8292005440429" x2="1012" y2="537.8292005440429" stroke="hsl(30, 100%, 50%)"/><text x="1022" y="537.8292005440429" fill="hsl(30, 100%, 50%)" dominant-baseline="middle">11</text></g><g id="spherishRing-1.3416278465412843"><line x1="540" y1="538.6583721534587" x2="1012" y2="538.6583721534587" stroke="hsl(30, 100%, 50%)"/><text x="1022" y="538.6583721534587" fill="hsl(30, 100%, 50%)" dominant-baseline="middle">12</text></g><circle cx="540" cy="540" r="0" stroke="hsl(30, 100%, 50%)" fill="none"/><circle cx="540" cy="540" r="165.00931686004537" stroke="hsl(30, 100%, 50%)" fill="none"/><circle cx="540" cy="540" r="266.9906831399545" stroke="hsl(30, 100%, 50%)" fill="none"/><circle cx="540" cy="540" r="330.01863372009086" stroke="hsl(30, 100%, 50%)" fill="none"/><circle cx="540" cy="540" r="368.9720494198637" stroke="hsl(30, 100%, 50%)" fill="none"/><circle cx="540" cy="540" r="393.0465843002271" stroke="hsl(30, 100%, 50%)" fill="none"/><circle cx="540" cy="540" r="407.92546511963656" stroke="hsl(30, 100%, 50%)" fill="none"/><circle cx="540" cy="540" r="417.12111918059054" stroke="hsl(30, 100%, 50%)" fill="none"/><circle cx="540" cy="540" r="422.8043459390461" stroke="hsl(30, 100%, 50%)" fill="none"/><circle cx="540" cy="540" r="426.31677324154447" stroke="hsl(30, 100%, 50%)" fill="none"/><circle cx="540" cy="540" r="428.4875726975016" stroke="hsl(30, 100%, 50%)" fill="none"/><circle cx="540" cy="540" r="429.82920054404286" stroke="hsl(30, 100%, 50%)" fill="none"/><circle cx="540" cy="540" r="430.65837215345874" stroke="hsl(30, 100%, 50%)" fill="none"/><g id="spherishRing-0"><line x1="68" y1="540" x2="540" y2="540" stroke="hsl(30, 100%, 50%)"/><text x="48" y="540" fill="hsl(30, 100%, 50%)" dominant-baseline="middle">0</text></g><g id="spherishRing-165.00931686004537"><line x1="68" y1="374.9906831399546" x2="540" y2="374.9906831399546" stroke="hsl(30, 100%, 50%)"/><text x="48" y="374.9906831399546" fill="hsl(30, 100%, 50%)" dominant-baseline="middle">1</text></g><g id="spherishRing-266.9906831399545"><line x1="68" y1="273.0093168600455" x2="540" y2="273.0093168600455" stroke="hsl(30, 100%, 50%)"/><text x="48" y="273.0093168600455" fill="hsl(30, 100%, 50%)" dominant-baseline="middle">2</text></g><g id="spherishRing-330.01863372009086"><line x1="68" y1="209.98136627990914" x2="540" y2="209.98136627990914" stroke="hsl(30, 100%, 50%)"/><text x="48" y="209.98136627990914" fill="hsl(30, 100%, 50%)" dominant-baseline="middle">3</text></g><g id="spherishRing-368.9720494198637"><line x1="68" y1="171.0279505801363" x2="540" y2="171.0279505801363" stroke="hsl(30, 100%, 50%)"/><text x="48" y="171.0279505801363" fill="hsl(30, 100%, 50%)" dominant-baseline="middle">4</text></g><g id="spherishRing-393.0465843002271"><line x1="68" y1="146.9534156997729" x2="540" y2="146.9534156997729" stroke="hsl(30, 100%, 50%)"/><text x="48" y="146.9534156997729" fill="hsl(30, 100%, 50%)" dominant-baseline="middle">5</text></g><g id="spherishRing-407.92546511963656"><line x1="68" y1="132.07453488036344" x2="540" y2="132.07453488036344" stroke="hsl(30, 100%, 50%)"/><text x="48" y="132.07453488036344" fill="hsl(30, 100%, 50%)" dominant-baseline="middle">6</text></g><g id="spherishRing-417.12111918059054"><line x1="68" y1="122.87888081940946" x2="540" y2="122.87888081940946" stroke="hsl(30, 100%, 50%)"/><text x="48" y="122.87888081940946" fill="hsl(30, 100%, 50%)" dominant-baseline="middle">7</text></g><g id="spherishRing-422.8043459390461"><line x1="68" y1="117.19565406095393" x2="540" y2="117.19565406095393" stroke="hsl(30, 100%, 50%)"/><text x="48" y="117.19565406095393" fill="hsl(30, 100%, 50%)" dominant-baseline="middle">8</text></g><g id="spherishRing-426.31677324154447"><line x1="68" y1="113.68322675845553" x2="540" y2="113.68322675845553" stroke="hsl(30, 100%, 50%)"/><text x="48" y="113.68322675845553" fill="hsl(30, 100%, 50%)" dominant-baseline="middle">9</text></g><g id="spherishRing-428.4875726975016"><line x1="68" y1="111.5124273024984" x2="540" y2="111.5124273024984" stroke="hsl(30, 100%, 50%)"/><text x="48" y="111.5124273024984" fill="hsl(30, 100%, 50%)" dominant-baseline="middle">10</text></g><g id="spherishRing-429.82920054404286"><line x1="68" y1="110.17079945595714" x2="540" y2="110.17079945595714" stroke="hsl(30, 100%, 50%)"/><text x="48" y="110.17079945595714" fill="hsl(30, 100%, 50%)" dominant-baseline="middle">11</text></g><g id="spherishRing-430.65837215345874"><line x1="68" y1="109.34162784654126" x2="540" y2="109.34162784654126" stroke="hsl(30, 100%, 50%)"/><text x="48" y="109.34162784654126" fill="hsl(30, 100%, 50%)" dominant-baseline="middle">12</text></g></svg>