<svg id="Epicycloid" xmlns="http://www.w3.org/2000/svg" viewBox="-540 -540 1080 1080"><defs><radialGradient id="radialGradient"><stop offset="0%" stop-color="hsl(45, 100%, 50%"/><stop offset="50%" stop-color="hsl(30, 100%, 50%"/><stop offset="75%" stop-color="hsl(15, 100%, 50%"/><stop offset="100%" stop-color="hsla(0, 100%, 50%, 0)"/></radialGradient></defs><path d="M-540,-540H540V540H-540Z" fill="url(#radialGradient)"/><g transform="rotate(-90, 0, 0)"><path d="M168.75,0 L170.37566262258508,0.15969067892619648 L175.14402390029971,1.268436891865477 L182.73374657903366,4.230236469241561 L192.62423552843856,9.86075331775325 L204.1174831084719,18.84753654822117 L216.36746600418536,31.715316118038146 L228.41596071275347,48.797763362679774 L239.2333958802673,70.21685914712427 L247.76316282373435,95.87072310251472 L252.96766828663561,125.43043539652612 L253.87434098051446,158.34603982194426 L249.61979854625142,193.8615665614417 L239.49044447741775,231.03856797943467 L222.9578929895045,268.7873341896719 L199.70780903790472,305.9046592521295 L169.66099364661574,341.1167748227327 L132.98583235131545,373.12586550953876 L90.10154614619087,400.658436751669 L41.6720278355572,422.5137271941295 L-11.40960071917641,437.610346328249 L-68.04522649656425,445.02937511835273 L-126.96396309760706,444.05229040382494 L-186.76123144862197,434.19225853930607 L-245.94332566575125,415.217583193812 L-302.97587624044496,387.1663775978336 L-356.33447124487583,350.3518522092605 L-404.55560914146236,305.3579528408944 L-446.2861373349785,253.02543894968176 L-480.32937962712913,194.4288438231028 L-505.6862714638884,130.84509469466275 L-521.5900000561741,63.71487884250431 L-527.5328805225993,-5.401890013220147 L-523.2844804796539,-74.87493220426975 L-508.9003235564604,-143.05505611623607 L-484.72084533052737,-208.3263756582753 L-451.3606304265632,-269.15743203310376 L-409.6883137936812,-324.1494001374839 L-360.7978693138267,-372.0796665832626 L-305.9723222596212,-411.9392361839161 L-246.6411970756491,-442.9626504786521 L-184.33323829966662,-464.64937702309874 L-120.62611178001849,-476.77594151611277 L-57.094899421121326,-479.3984146888585 L4.738760400106614,-472.8452196025601 L63.455064251319456,-457.7005794205512 L117.78024144120369,-434.77926765344097 L166.6249934985064,-405.0936396107445 L209.11582905597515,-369.81420356277124 L244.61821573961828,-330.225222544137 L272.75077795610105,-287.6770142103427 L293.39010466772004,-243.5367301819387 L306.6660818004053,-199.13944370532317 L312.9480167355082,-155.74135354653822 L312.82216420591595,-114.47682369082648 L307.06158108497283,-76.32082604358433 L296.5895201523912,-42.058142708180156 L282.4378094142686,-12.26042351893409 L265.70184514733205,12.728106824059381 L247.49394679560703,32.79582808758164 L228.89687574937074,48.0596734430886 L210.91930593835562,58.85208181996173 L194.4549526808534,65.69952858609906 L180.2469204816055,69.29352818936478 L168.858626006725,70.45528677230541 L160.65239702638314,70.09542214008714 L155.77655135826848,69.17035384289525 L154.16143296710663,68.63709058381757 L155.52453770550326,69.40820102601889 L159.38451171187756,72.3087451571264 L165.08346438319248,78.03686702837277 L171.81671796864583,87.1296088076642 L178.6688292427974,99.93530597988894 L184.65447622031178,116.59367172986376 L188.76261362197374,137.0243845312368 L190.00217194696148,160.92466780349233 L187.4475114367654,187.77600642656506 L180.28184636850247,216.85979486994273 L167.83692688448934,247.28136888044992 L149.6274023068548,278.00154999449705 L125.37848651664856,307.87454176109725 L95.04579516200539,335.69076944018286 L58.82651688913272,360.2230604186576 L17.161405525131983,380.2744280387689 L-29.272574973628082,394.7256520900261 L-79.57876887974564,402.5808475700574 L-132.66598028823756,403.00927962557626 L-187.2814006864403,395.38181445036264 L-242.05015929551098,379.30058849432646 L-295.5200893981564,354.6207245010938 L-346.2101021991615,321.46321350550636 L-392.6604176211463,280.2184061816061 L-433.48282420839575,231.539902764985 L-467.4091309640691,176.3289852948694 L-493.33603291279087,115.71008591193932 L-510.3647373419275,50.99811734964514 L-517.8338844372303,-16.341205838910085 L-515.3445374960535,-84.73666566492034 L-502.77630513242207,-152.56085898564984 L-480.2939802294669,-218.1817848221576 L-448.3444258786784,-280.01486327628635 L-407.6437943372763,-336.57352986574523 L-359.15551791218275,-386.5165989094487 L-304.05984752499796,-428.6907061371802 L-243.71602300647734,-462.16631965056047 L-179.61842745429385,-486.2660430814001 L-113.34829629916452,-500.5842165547102 L-46.522711960115736,-504.9971393897451 L19.257288805372355,-499.66358152425175 L82.45763908379348,-485.0156056659748 L141.65938166690705,-461.7400759598074 L195.602315711988,-430.75156835757065 L243.22261131908778,-393.1577102805227 L283.68307978523717,-350.2182509751998 L316.39506209090746,-303.299389029546 L341.03121084004806,-253.8250515113651 L357.5287797210175,-203.22692392320783 L366.083386920896,-152.89506781085345 L367.1335716524237,-104.13093209894001 L361.33680287904474,-58.10446629591027 L349.5379137746321,-15.816882359438864 L332.7312127173674,21.929606640502215 L312.0177513779331,54.55401062584265 L288.55940419134964,81.70999561279329 L263.53152477314035,103.2901061384122 L238.07598957045036,119.42070630792406 L213.2564156386899,130.44791950342474 L190.017248868777,136.9151861525476 L169.14826474031557,139.53337420301114 L151.25581160836182,139.14465627283758 L136.74186467685155,136.68160038723818 L125.79165706471113,133.12309905794024 L118.37032411748595,129.44887756639125 L114.22865080946053,126.5943723561447 L112.91766276822675,125.40775258018132 L113.81146229393644,126.61077279442156 L116.1373945130658,130.76499577062157 L119.01234741229621,138.2447170531292 L121.48375354308322,149.21766502789652 L122.57367956568032,163.63425162863635 L121.32426936607783,181.22582062654445 L116.84275178619902,201.51199509948563 L108.34423714391852,223.8168761639897 L95.1906072248741,247.29350454816114 L76.92394831249926,270.9556779206806 L53.29318067732926,293.7159320898428 L24.272793146393468,314.42825400004836 L-9.927111637586279,331.9339079647908 L-48.859928008780514,345.1086308576479 L-91.85093484164975,352.9093918328577 L-138.01472919041896,354.41891990471515 L-186.28113169797928,348.88627817527265 L-235.42866656699488,335.7619039195188 L-284.12442883888696,314.7257339366364 L-330.9689054527451,285.7072871323123 L-374.54412334447505,248.89687182120616 L-413.4633650051937,204.7474127260421 L-446.42062450157795,153.96673989157165 L-472.2379775797876,97.50053577129405 L-489.9091081965636,36.50648436240661 L-498.63736816759445,-27.6795055287633 L-497.86694166167445,-93.58383428445839 L-487.3059347961229,-159.64108038414133 L-466.94050339904277,-224.24358040878795 L-437.0394582333982,-285.79295470249525 L-398.14913450977997,-342.7517367971999 L-351.0786684319809,-393.6932563153193 L-296.8761745870737,-437.3479850979412 L-236.7966511511392,-472.6446825695243 L-172.26274273910838,-498.744864179773 L-104.81975201586873,-515.0693591983629 L-36.08650118782681,-521.3160121803501 L32.29620459699465,-517.4679053702016 L98.71767369985581,-503.7918251696766 L161.64812772784006,-480.8270517052443 L219.68639821271262,-449.36490326725493 L271.60283076152774,-410.4198038494153 L316.3758863506476,-365.19294969757186 L353.22116414485043,-315.02991826272444 L381.6118517292414,-261.3737803293886 L401.2899264301721,-205.71543531542736 L412.26777361028104,-149.54298494509084 L414.8202416849383,-94.29198820765966 L409.46750592818944,-41.298399775361304 L396.949450786754,8.244113531770125 L378.1925908281887,53.32095398208287 L354.2708220678495,93.12617426355686 L326.36151816013256,127.08383572145661 L295.698651548712,154.86043218327396 L263.5247220365295,176.36800566153394 L231.04331061797808,191.75793090821966 L199.37404358149772,201.40569640454203 L169.51165216350742,205.88734677185437 L142.29065024158683,205.9485631528051 L118.35693288322364,202.46763218188795 L98.14733033105051,196.41378049944774 L81.87784533655937,188.8025219168075 L69.54096821737599,180.64977197763426 L60.91211617575783,172.92652579562258 L55.564894375938906,166.5158681914949 L52.89453917291276,162.17399136596367 L52.14859139995543,160.49673820443462 L52.463571513379165,161.89297476585918 L52.9061990485017,166.56583166858357 L52.517524890550575,174.50255090626635 L50.35823285660157,185.4733435395543 L45.55332124127252,199.03931719459197 L37.3343970360345,214.56918341780028 L25.077904675847805,231.2641168381512 L8.33776406324273,248.18982352092684 L-13.128896460194937,264.31459672738765 L-39.343965491767904,278.55190506376033 L-70.09928423997408,289.80587952994836 L-104.95671407791042,297.01794903085073 L-143.25741060666488,299.21282295196477 L-184.1400283360593,295.542036412981 L-226.56723918196576,285.32335823583287 L-269.35962950911687,268.0745104057467 L-311.23575640697646,243.53985535974562 L-350.8569049824403,211.7089660929395 L-386.8749037110726,172.82629419427286 L-417.9812313098194,127.39148131555015 L-442.9555908945767,76.15020790399385 L-460.71213761833997,20.07582627244379 L-470.3416242546486,-39.65762996776694 L-471.14787246286716,-101.71014433773692 L-462.6771804799195,-164.61691759174704 L-444.7395332237309,-226.8346170893039 L-417.42077880607656,-286.7910302935754 L-381.0852651721835,-342.9363452141002 L-336.36877975578295,-393.79421427096304 L-284.161990673015,-438.0107599506625 L-225.5849368404942,-474.39975074188345 L-161.95344350280408,-501.98231162728507 L-94.73863673571299,-520.0197298591368 L-25.520984487075552,-528.0381665911657 L44.0595068348217,-525.8443789121194 L112.35516982054233,-513.5318840164448 L177.76278108554862,-491.4773455021867 L238.77403945688224,-460.3273181675438 L294.0226234305587,-420.97583894417124 L342.3261607063132,-374.5336847075899 L382.72163075523184,-322.2904202720838 L414.4929639586511,-265.6706206792795 L437.1898888271834,-206.1858612565678 L450.6374014310096,-145.38421910497297 L454.93557642232827,-84.79911513787357 L450.44979404506216,-25.8993434104933 L437.79180908447074,29.9579163334206 L417.7924227251321,81.56942425157517 L391.4668242999203,127.92204478531868 L359.97393555554186,168.2214850546685 L324.57130547773204,201.91262349729897 L286.56726094010105,228.69076189154217 L247.27211167413867,248.5034748295045 L207.95023390966043,261.5430828789072 L169.7748146327417,268.23012590916875 L133.7869294339757,269.1885482584867 L100.86045554564166,265.213615056297 L71.67409439718466,257.2338476022886 L46.69150344813505,246.26848522245714 L26.150225546187016,233.3821433025011 L10.059767343414734,219.6384362177657 L-1.7911709391711668,206.05436599038055 L-9.818660741371744,193.55724157273158 L-14.619386645330408,182.94579109937158 L-16.939353975854054,174.85696418312418 L-17.636723096097104,169.73969962369728 L-17.640253616869032,167.83666413285994 L-17.90500795151742,169.17466004524397 L-19.367067194700994,173.5640660837188 L-22.899049297763725,180.6073276730276 L-29.26818857095904,189.7161651471855 L-39.098637830716285,200.1368325982675 L-52.839493703558816,210.9824497188039 L-70.73982774272014,221.27115550384573 L-92.8317392983638,229.968606424043 L-118.92214053388065,236.03317120862522 L-148.5936510868204,238.46206614511482 L-181.21463215220803,236.33663293440074 L-215.95804029879514,228.86498726886248 L-251.82844326739996,215.42035950933888 L-287.6962260757251,195.5736056875843 L-322.3377377984508,169.11858172848318 L-354.4798978952246,136.08933827219485 L-382.84760467723453,96.76839790895328 L-406.21217412605665,51.68570964254913 L-423.4389891815959,1.6082245180824941 L-433.53255969451277,-52.4796114817196 L-435.67728083562554,-109.40380914021813 L-429.27232968537055,-167.83627511426948 L-413.95935039530144,-226.33649711674923 L-389.6418399239876,-283.3979953180901 L-356.4954491941748,-337.4978761620154 L-314.968747340902,-387.14770236014215 L-265.77434713800255,-430.9438365627379 L-209.87064465439659,-467.61542827436494 L-148.43477247580856,-496.06829361777466 L-82.82769052282212,-515.4230826338757 L-14.552629492949858,-525.0463335964648 L54.791651604749326,-524.5732707438694 L123.56113966811606,-513.9215013636197 L190.11858758506222,-493.29509919601014 L252.8854284364007,-463.17891135544403 L310.391734563617,-424.3232823936409 L361.32244300565503,-377.7197385022665 L404.5582052122336,-324.56850419240754 L439.2094159179595,-266.2390208594494 L464.64222628217686,-204.2248904131251 L480.495640550709,-140.0948682081329 L486.6891226277304,-75.44167040265378 L483.420486882462,-11.830436397271669 L471.15420330775476,49.251305598452845 L450.60059755930735,106.44038278187551 L422.68675840523764,158.53977164697207 L388.5202663690517,204.5539696540267 L349.34711667199383,243.71671516082088 L306.5054173620907,275.5101135422383 L261.3765920760476,299.67454917287904 L215.33590075261583,316.20910695534076 L169.70410775831712,325.3625804799104 L125.7020747883075,327.6154934919665 L84.40993760770823,323.65389406588 L46.7323457172551,314.3359843232166 L13.371009181273536,300.6529113778372 L-15.194483986418504,283.68525765737854 L-38.71693273844343,264.5569229490727 L-57.18256283743939,244.3881807448013 L-70.8028847546665,224.2497144129531 L-79.9977608190142,205.1193936236255 L-85.37040537619806,187.84344007085505 L-87.675346297716,173.10345812748756 L-87.78064134938876,161.39057721559365 L-86.6258587491431,152.98767703578554 L-85.17748962865025,147.96035478234182 L-84.38355513743049,146.15695684916838 L-85.12919904624965,147.21764899613453 L-88.19501688674902,150.59215163211007 L-94.21976642579028,155.56543386802545 L-103.66893563014949,161.29035384914545 L-116.8104195872634,166.82596513030919 L-133.6982855743435,171.17998960822996 L-154.16529586227233,173.35379504833537 L-177.82452255786387,172.3881156853077 L-204.0800404504288,167.40772152064386 L-232.14633555262384,157.66327706717667 L-261.0757319297644,142.5687321268985 L-289.79283012552673,121.73275195753894 L-317.13467868131033,94.9829157430327 L-341.8951761773666,62.38168235739995 L-362.87203337649595,24.233430899339737 L-378.9145198017239,-18.91778117224308 L-388.9701804613834,-66.29974981642607 L-392.1287379856749,-116.93260276719624 L-387.66149214232627,-169.65754225134873 L-375.0546890227548,-223.17285565621424 L-354.0355502159474,-276.075920038756 L-324.58991993293057,-326.9096956157124 L-286.97079536429726,-374.21202826731474 L-241.6973411100803,-416.565968248869 L-189.54433981406873,-452.6492660349408 L-131.52238506559368,-481.28122833354143 L-68.84946599566868,-501.46520706230297 L-2.9149129726898835,-512.4251482061342 L64.76304155690988,-513.634840301753 L132.58459437527972,-504.8387659489324 L198.91891848284268,-486.0637644600421 L262.15612734019123,-457.6210482209895 L320.75880233433253,-420.0984671255489 L373.31124232084176,-374.3432714887232 L418.5646750014296,-321.4359709082042 L455.47681584885174,-262.65621172344373 L483.24436587770583,-199.44188693051726 L501.3272971462087,-133.34293882524082 L509.4640748879714,-65.97150711355792 L507.6772964597176,1.0497933936299972 L496.2695775324354,66.13961595714639 L475.809872126519,127.80779934089523 L447.11076195538664,184.70168401541568 L411.1975791327137,235.64718830310494 L369.2705224129686,279.68320267100097 L322.6611797870387,316.08811041536353 L272.78507008494546,344.39753666565446 L221.09195586314243,364.41275398327264 L169.01575414259293,376.19951964921404 L117.92587782725528,380.0774740742298 L69.08177872385104,376.60057840237914 L23.592335403241805,366.529399313113 L-17.618459451669537,350.7963479655872 L-53.838299946834496,330.46523684616835 L-84.58493089006635,306.68672343425703 L-109.61547035522139,280.65135548994294 L-128.92642920077554,253.54201401042263 L-142.74451743237555,226.48756354563318 L-151.50867461600993,200.51946518500225 L-155.84409157361003,176.5329872539364 L-156.5292909599183,155.2544671851211 L-154.45759378127678,137.215842045901 L-150.59450776725348,122.73738373532245 L-145.93272394112245,111.91925854015153 L-141.44649414777788,104.64219148883734 L-138.04718148460867,100.57716655131142 L-136.5417268639251,99.20374736236914 L-137.59566018628797,99.83627284102963 L-141.70210817237768,101.65688027560586 L-149.15801945333283,103.75404650894927 L-160.04854978688402,105.16512565727416 L-174.2402367191495,104.9212073266719 L-191.38325546464148,102.09252838371825 L-210.9226989478619,95.83264743309549 L-232.11847798241382,85.41963518194692 L-254.07310553466087,70.29264420340846 L-275.7663244480315,50.082394134458895 L-296.09527238398204,24.634336604005142 L-313.91866110167837,-5.976460361705762 L-328.1032877512729,-41.43935639077446 L-337.57109965465213,-81.21142173484532 L-341.3450047815231,-124.52991964924922 L-338.5916589786333,-170.4335993561108 L-328.659566602758,-217.792075209541 L-311.1109996674535,-265.3422585128473 L-285.746465705004,-311.730537287774 L-252.62072790699284,-355.55917638398915 L-212.04969256485268,-395.43524406333916 L-164.60781677681607,-430.02026790252575 L-111.11604121154542,-458.07878648219855 L-52.62060528473813,-478.5239953225017 L9.636557760465124,-490.45878478037116 L74.25483339318288,-493.2106305231551 L139.71805542889507,-486.35901773567684 L204.44223153148167,-469.75435024541696 L266.82616865638715,-443.52760525206486 L325.3031903723589,-408.09033183232475 L378.39209266106354,-364.12494431771484 L424.7455079942161,-312.56561688908107 L463.1939384117105,-254.57043008214674 L492.7838736296304,-191.48574054088164 L512.8086241495312,-124.80403035825422 L522.8307639882888,-56.11673110149998 L522.695383176776,12.936298750554897 L512.5336852369408,80.71884255510003 L492.75681699026956,145.65008483210954 L464.0401741899039,206.2542188733741 L427.2987733702028,261.2061416425581 L383.65460508470994,309.3716212265578 L334.3971742978738,349.8405278248438 L280.93867932748,381.9519767772199 L224.76547230501467,405.31053181537317 L167.3875745513248,419.79294739499005 L110.28808476163228,425.54527828722155 L54.87431412618602,422.9705395559979 L2.432410699315625,412.70744739342194 L-45.91290177011736,395.601098093785 L-89.2320425246093,372.6667365572487 L-126.81657182208198,345.04801619673094 L-158.1965832180477,313.9713496835283 L-183.14893036772375,280.6980873012072 L-201.6960739878984,246.47633173382738 L-214.09568708382608,212.49420228894064 L-220.82150289496968,179.8362977865604 L-222.5362172790363,149.44497811364784 L-220.05755319392296,122.08789468099576 L-214.31884849153934,98.33295692147487 L-206.32572994045975,78.5316347247213 L-197.11057873070237,62.81117615265504 L-187.6865703981263,51.07597800403724 L-179.00308228043957,43.017996666071014 L-171.90420395867005,38.135741385277385 L-167.09196286910137,35.76106460060265 L-165.0956930760501,35.09266662709108 L-166.24873704521306,35.23497594202236 L-170.67338714564704,35.240861235899196 L-178.27465621691465,34.15648496228279 L-188.74312683442412,31.06652586323971 L-201.56677969574093,25.13798296012348 L-216.05135599635236,15.66082635569623 L-231.34847979156967,2.0838789169980885 L-246.490466553978,-15.955506950855181 L-260.4304847456738,-38.60917842959725 L-272.0865280297305,-65.80423765433093 L-280.38750466345516,-97.23802770817579 L-284.3196633851037,-132.3823142332934 L-282.9715550703744,-170.49657755892656 L-275.5757774193288,-210.64998263087801 L-261.54586421049896,-251.75126195708273 L-240.50685701188706,-292.58544276068716 L-212.31832912188838,-331.85608501120004 L-177.08891029495177,-368.2314819686804 L-135.18167609107434,-400.3931174607174 L-87.21010570415957,-427.0845802987768 L-34.02466416639554,-447.15910963403746 L23.309584270987372,-459.6239867432015 L83.54358814777304,-463.68009725747424 L145.28209300870313,-458.7551592366335 L207.02727336930127,-444.52934042428535 L267.2266653857988,-420.95226406164676 L324.32368762196955,-388.2507165427826 L376.8089350248262,-346.92671030098694 L423.2703961001418,-297.7459089747277 L462.4407766940361,-241.71677595047703 L493.24021455668577,-180.061148635607 L514.8128332923202,-114.17725656599895 L526.5558063137904,-45.596479934949485 L528.1398727967598,24.064624035874047 L519.5205583019106,93.15532488057052 L500.93969116940457,160.0429390035756 L472.9171594173678,223.16440740703388 L436.23320855718,281.0753960234352 L391.90192525789183,332.4951750746525 L341.13687235216827,376.34568961747595 L285.3101253734123,411.78344767903127 L225.90619908464257,438.2231171468651 L164.47253547383664,455.3520279905696 L102.56834568154623,463.13511107381487 L41.71365284347257,461.8101562999118 L-16.65963109602511,451.8736280311136 L-71.25284332832544,434.05762141046847 L-120.94031813788038,409.29886653539046 L-164.80234586264882,378.7009763671391 L-202.15020105290102,343.49137808394704 L-232.54239704212424,304.97455726320135 L-255.79165376337198,264.48337280481496 L-271.96241351740656,223.33026316800306 L-281.35909250376295,182.7601590380172 L-284.50560105480304,143.90684426698084 L-282.1169897659663,107.75436867990388 L-275.06436998373374,75.10491836918962 L-264.33450453011505,46.5542989155129 L-250.98565889293258,22.47589401788528 L-236.10143717260928,3.0136373342427873 L-220.74439589044036,-11.915808848596185 L-205.91122982155994,-22.611825231526325 L-192.4912573503695,-29.570058622169597 L-181.22980103070927,-33.4549223061926 L-172.69786708308115,-35.06549219774965 L-167.26928274790643,-35.29616732199019 L-165.10616198903455,-35.09366107248521 L-166.15324889233128,-35.41202801505786 L-170.14134634293373,-37.16750459049787 L-176.5996880762843,-41.19494814728979 L-184.87676815578965,-48.20759709366598 L-194.16881630208894,-58.76174792070063 L-203.55481256246077,-73.22775719635152 L-212.03668168869402,-91.76853542330397 L-218.5831058443835,-114.3264139623565 L-222.17525151651043,-140.61894679258387 L-221.85262817674015,-170.14386772393996 L-216.75728532328688,-202.19307363204422 L-206.1746115023728,-235.8751585221309 L-189.56912167996563,-270.1456947685616 L-166.613803358644,-303.84415909403305 L-137.21183026011218,-335.736143018278 L-101.50973632479955,-364.5592803601003 L-59.9014616077165,-389.07117576426185 L-13.023023450791442,-408.0975338029443 L38.262081706800785,-420.5786712242732 L92.8862915405253,-425.61264611799305 L149.60941884006692,-422.49335531789956 L207.0570287383818,-410.742130953312 L263.7643962870403,-390.1316020644546 L318.2244741071137,-360.7008688970727 L368.9381434734793,-322.76135542607256 L414.4649297495031,-276.89304800002617 L453.47233810803357,-223.93118200208716 L484.7820089643259,-164.9437908981971 L507.4110029605085,-101.20086985008015 L520.6066986339811,-34.136216608242634 L523.874015677916,34.696715919068524 L516.9939544549483,103.67339834466195 L500.03275785533356,171.14951229181273 L473.3413429895683,235.5131223988892 L437.5450048922751,295.23587400523974 L393.5237492102093,348.92139177189824 L342.38395256788215,395.34915595267853 L285.4223652510912,433.51229810361167 L224.08374928437678,462.6479805655013 L159.91367556437353,482.2592957978362 L94.50817789445479,492.12793247072875 L29.46207309818024,492.31719356853705 L-33.68219923361936,483.16530503439185 L-93.48338798973526,465.2693085464997 L-148.6461551975109,439.46017566048636 L-198.06013243601515,406.77010000458864 L-240.83194153895616,368.39320761221717 L-276.3090765489139,325.6411623069767 L-304.0948486365736,279.89532455101227 L-324.0539293707599,232.55724163151407 L-336.30837783805873,184.99930011731803 L-341.22439058011935,138.51735627577443 L-339.39035694112135,94.2870772614333 L-331.58712337397355,53.32557856287275 L-318.751656574623,16.459737019460846 L-301.9355363373451,-15.697698508435565 L-282.2598957903513,-42.76337531456417 L-260.8685522583762,-64.58948906091348 L-238.8811317812449,-81.26067167105904 L-217.347982136302,-93.08181772335786 L-197.20859345886794,-100.55739489228706 L-179.2551051510042,-104.36310539927572 L-164.10227806083728,-105.31105347782662 L-152.16505946922854,-104.30981773436925 L-143.6445747422951,-102.32101786111699 L-138.52305468255352,-100.31409529983743 L-136.56786388845097,-99.22109230567393 L-137.3444457678991,-99.89321101150527 L-140.23765742185148,-103.06086368114114 L-144.48064532092133,-109.29879003689629 L-149.19012268526882,-118.99762246378876 L-153.40666267677838,-132.34303238335295 L-156.13842723063402,-149.30330047958913 L-156.4066169271056,-169.62583069181073 L-153.2908578227559,-192.84278511804894 L-145.97273927388449,-218.28566710600526 L-133.77578260735413,-245.10833602436486 L-116.20025159498857,-272.31761245976344 L-92.95140718640494,-298.8103391185794 L-63.960053700427025,-323.4155116042745 L-29.394512513992765,-344.9398939820028 L10.336518592597628,-362.2153941849983 L54.590418941906336,-374.1463991895081 L102.50625814862559,-379.75526239110854 L153.029068996538,-378.22419612547253 L204.94195104943344,-368.93194861266915 L256.90487731177757,-351.48383212044246 L307.4988189879416,-325.73391089747565 L355.27359727728395,-291.7984444464068 L398.7977239699397,-250.06000331091366 L436.7084099594437,-201.16201876310174 L467.75990583836085,-145.99388176385594 L490.868392137648,-85.66705712299564 L505.1517566020396,-21.48301282057114 L509.96277777032407,45.105930512667776 L504.91447133967324,112.54146032124514 L489.896639555556,179.20825908722068 L465.0829836593547,243.48537755039465 L430.92848337164696,303.7981623820238 L388.1571027109285,358.66888232472235 L337.7402349376474,406.76424121110017 L280.86663792850976,446.93807763783246 L218.9049222388359,478.2677252838426 L153.35992593945775,500.0827384612911 L85.82453291579122,511.98496591245345 L17.928656421582275,513.85927176828 L-48.71278883600807,505.87454422218593 L-112.55106869156295,488.4749871443803 L-172.15214270838564,462.3620443829896 L-226.2407874608927,428.46764769265747 L-273.73877407186933,387.9197944244799 L-313.7957666897111,342.00173860271406 L-345.81188005859303,292.1063085149804 L-369.4511445951167,239.6870369600852 L-384.64546484645825,186.20790044990878 L-391.58900926692365,133.09350691844168 L-390.7233227742404,81.68154632067635 L-382.71379534984817,33.17922593289558 L-368.41843729167675,-11.374744263392046 L-348.8501927989524,-51.14126509199983 L-325.13425791666606,-85.50397376821242 L-298.4620477971663,-114.0835988410293 L-270.04357513203104,-136.74309433597992 L-241.06005217967714,-153.58345148298093 L-212.61851125885337,-164.9304378519683 L-185.71015364449767,-171.3128548783734 L-161.17398776228734,-173.4332228576196 L-139.66711010432772,-172.13208561211684 L-121.64272423983769,-168.3473645928774 L-107.33669442301115,-163.07037529355694 L-96.76310188228618,-157.3002406958322 L-89.71892629159942,-151.9984925029743 L-85.79762519389739,-148.04563909548918 L-84.41104344011065,-146.20139994932072 L-84.81876585029528,-147.0701627124408 L-86.16374130081911,-151.07301667526752 L-87.51276602253215,-158.4274626402657 L-87.90022711382156,-169.1356037679317 L-86.37338116825377,-182.9812959870022 L-82.03738224958067,-199.53639229136868 L-74.09828051903241,-218.17586567763783 L-61.90228739008039,-238.10125377947776 L-44.96974237698133,-258.3715473092145 L-23.022415607178118,-277.9403563290225 L3.996969160654686,-295.6979440198075 L35.91381263472525,-310.51652623335906 L72.31981563346227,-321.29710395716876 L112.58040405684324,-327.0160298886118 L155.85120380777047,-326.76951215908105 L201.10302180173022,-319.8143278809396 L247.15446434557072,-305.60315408101235 L292.7110311570939,-283.8131187547257 L336.40927317346967,-254.36642298438886 L376.86440449605414,-217.44217707969426 L412.7196208269413,-173.47891863769206 L442.69530382006997,-123.16762616192331 L465.63628571622763,-67.43539551724733 L480.55541173972733,-7.42029481488602 L486.6717667375782,55.56175670249918 L483.44212270749256,120.05694091994292 L470.58440816798236,184.5189220094198 L448.0922897229815,247.3580484033142 L416.24027992700235,306.99262093126697 L375.5791316374282,361.9003907016113 L326.92163458165805,410.6684364422102 L271.3192816430362,452.0396256220137 L210.03060729035698,484.9539847712866 L144.48230617563888,508.5834875403873 L76.22450482783835,522.3590074058171 L6.8817737159184205,525.9884667068849 L-61.898377233357955,519.465534304427 L-128.4976850946691,503.06856868521953 L-191.37814405431362,477.3498589903801 L-249.1300256844658,443.11557000778356 L-300.5152076444433,401.3971355012659 L-344.5042835518157,353.4151547876655 L-380.3061574579285,300.53711869005645 L-407.38910465294396,244.23051283605542 L-425.4925960306069,186.01301052239705 L-434.6295241939152,127.40156797203419 L-435.0788231677436,69.86226808586724 L-427.368826822695,14.762723570710506 L-412.25205074951407,-36.67125200206766 L-390.6723957151321,-83.39316219133276 L-363.72604632741763,-124.56621421605918 L-332.6175659075031,-159.58552458149845 L-298.6128593931695,-188.09140383821529 L-262.99078407058795,-209.9733167673811 L-226.99522910700705,-225.3644647163256 L-191.7894577864446,-234.62728828428993 L-158.4144121426963,-238.33052792121117 L-127.75252195962938,-237.21879455695105 L-100.4983448642295,-232.175880366772 L-77.13709962103385,-224.18327082167207 L-57.93185073914603,-214.27549465503685 L-42.91977058756942,-203.49406177426937 L-31.917557883461285,-192.84178626322375 L-24.535741745099514,-183.2392707525799 L-20.20126164259598,-175.4852404258318 L-18.18739827854617,-170.22226314358795 L-17.649850543184403,-167.9091823650643 L-17.667519735999264,-168.80132965698593 L-17.286383022481786,-172.93928341873732 L-15.564720338647334,-180.1466113413137 L-11.617907094708485,-190.03668846538875 L-4.661001016254076,-202.02833353995476 L5.952565299517033,-215.36966686930174 L20.6977271653775,-229.1692757726936 L39.85130100730359,-242.43349112729192 L63.47334623857412,-254.10834088946194 L91.39715599917591,-263.1245629722997 L123.22832887748706,-268.4439373501922 L158.3530279598259,-269.10514042919743 L195.95518308689685,-264.26733576614254 L235.04205021621536,-253.24979379497498 L274.47722116656854,-235.56597644631586 L313.01988983172964,-210.95072511983062 L349.36893802678446,-179.37944485345025 L382.21021464994374,-141.07847424623287 L410.2652529878426,-96.52615865731025 L432.3396076779044,-46.444491167468 L447.3689975322037,8.218461222018078 L454.4615130428395,66.31478287638748 L452.93428530659395,126.53069735690778 L442.3432112591847,187.4271355253839 L422.5045811720337,247.4854516788779 L393.50774903021573,305.1566582317571 L355.7183137354715,358.91241238986146 L309.7716268924755,407.29591653864566 L256.55679829698255,448.9708904389564 L197.19171991896724,482.76683799534715 L132.98996013631162,507.7189619865757 L65.42067989098676,523.1012719189048 L-3.937019870234529,528.4516759882592 L-73.44370425339736,523.588138907025 L-141.45140241459637,508.61531227616814 L-206.35575456974595,483.92139119794456 L-266.64665173366654,450.1653070381758 L-320.95556706371934,408.25471842486604 L-368.09789930463444,359.3155976274178 L-407.1088323863759,304.65451495194736 L-437.271453877392,245.71498837174468 L-458.1361598510315,184.02947947282718 L-469.53069417139875,121.16877201221035 L-471.5605143111114,58.69056022928096 L-464.5995307639073,-1.9109028097994667 L-449.2716196972628,-59.2522919204761 L-426.4236455865126,-112.10413876259454 L-397.0910396493197,-159.42768488116255 L-362.4572494778024,-200.40437120101674 L-323.80859534713363,-234.4569541748265 L-282.4862311203447,-261.2615534592838 L-239.83700648558957,-280.7502757324356 L-197.16505885103732,-293.10441134876464 L-155.68592649727867,-298.73855178775494 L-116.484871016081,-298.27631315693935 L-80.48093061515763,-292.518661763521 L-48.39800285988821,-282.4061103746162 L-20.743984284930207,-268.9762780855822 L2.201314731023132,-253.3184743659759 L20.389096735462033,-236.52707263800616 L33.99531147179758,-219.6554768075405 L43.405512974129394,-203.67245416018787 L49.19149167572045,-189.422511156375 L52.08064532248789,-177.59182861759862 L52.91932712616029,-168.68105566803007 L52.63163696916625,-162.98599579736143 L52.17529305561422,-160.58691358946123 L52.496330759050934,-161.34685851901764 L54.484418454144276,-164.9190552793194 L58.9305552343848,-170.76306144690716 L66.48882356051908,-178.16905605385543 L77.64371451907274,-186.28930953748426 L92.6843303477774,-194.17560837501165 L111.68650622092798,-200.82117694342472 L134.50359086538558,-205.2054634874359 L160.76629477478016,-206.34004317791286 L189.89166805237997,-203.31384342893517 L221.10092029174166,-195.33591676340922 L253.44545556164593,-181.77407387370297 L285.8401792813694,-162.18784089078787 L317.10285247829273,-136.35441462355524 L345.99803323017846,-104.28654983674814 L371.2839639232445,-66.24161377750566 L391.76064317862716,-22.721373875085902 L406.3172674921785,25.5375675514924 L413.9772419036978,77.58242566829453 L413.93904092068146,132.2713636304249 L405.6113474941807,188.3081711164266 L388.64110368194804,244.2832736039197 L362.93336411727773,298.71961265623185 L328.66214297263934,350.1217489258896 L286.27177562680856,397.02641201340504 L236.46866540922318,438.0526595920223 L180.20364059717758,471.94981470714964 L118.64549405297176,497.6414247204586 L53.14660455760405,514.26362528927 L-14.798167166647588,521.1964929048621 L-83.59786452601531,518.0872224618444 L-151.61546283146916,504.86426272332255 L-217.21976166026576,481.7418713866484 L-278.8372935005095,449.2149005318414 L-335.0023974266558,408.04397958028426 L-384.40367196932345,359.23161326255484 L-425.9251527082828,303.99004346915456 L-458.680752557849,243.70202392204013 L-482.0407490778873,179.8759142104228 L-495.64939426901583,114.09670531744172 L-499.43304736792885,47.97473470152858 L-493.5985780553101,-16.90607011037696 L-478.6221433204723,-79.03856758309888 L-455.22879276043784,-137.03960162429905 L-424.3636912585662,-189.6923500670198 L-387.1560523742857,-235.9823314665755 L-344.87713908346143,-275.1258179825476 L-298.89390097922126,-306.58968651399005 L-250.61997082053375,-330.1020599176246 L-201.46583274036624,-345.65343311015204 L-152.78999624460806,-353.4883323187747 L-105.85296362231838,-354.08790649765547 L-61.77566537606157,-348.144184881392 L-21.50386308251646,-336.5270413091655 L14.220211656265178,-320.2451729009149 L44.87799110182084,-300.40261796993656 L70.18580101625372,-278.1524976495915 L90.09684750703441,-254.64976169654074 L104.79397294397333,-231.0047477958169 L114.67354191182906,-208.23932443855622 L120.32115285522528,-187.24728162774815 L122.48017880737783,-168.76046534237506 L122.01440983639785,-153.32192724829895 L119.86629050781846,-141.26708907897392 L117.01240949294888,-132.71361169737256 L114.41799932842447,-127.56032376559128 L112.99223849777528,-125.49521682351272 L113.54611421120197,-126.01216553082756 L116.75450380700588,-128.43569696999097 L123.1239693931991,-131.9528238553716 L132.96754035561256,-135.65068488982388 L146.38748997409365,-138.5585115904762 L163.2668057232174,-139.692273116238 L183.26971943935567,-138.1002453079779 L205.85131596874646,-132.90771129126782 L230.275890263181,-123.35903008736157 L255.64338629718074,-108.85540567649217 L280.922939331047,-88.98684829073747 L304.992267701785,-63.55703643478937 L326.68143188793545,-32.60005413822785 L344.8193057080356,3.6117167257792175 L358.2809937404647,44.56893600158716 L366.0343846325188,89.53591502402844 L367.1840536509724,137.57018400262896 L361.0108188156275,187.55036433841576 L347.0054099278449,238.21137674581607 L324.8949230358652,288.18573513145475 L294.660996458725,336.04944136548505 L256.54894862125406,380.37081622747223 L211.067451309439,419.76048372477817 L158.97866211221145,452.9206741682129 L101.2790937091515,478.69202787217375 L39.17184208181095,496.0961655984603 L-25.968882197241527,504.3724408238704 L-92.63968774858725,503.0074971017415 L-159.2549268437845,491.7565135114238 L-224.19694781360633,470.65532282271914 L-285.86788565006145,440.0229193513743 L-342.74114008097354,400.4542242014569 L-393.4106978154503,352.8033316455337 L-436.63653122771507,298.1578085449002 L-471.3844466879874,237.8049460119576 L-496.8589568475262,173.19115679193982 L-512.52800498072,105.87596214817523 L-518.1386665554601,37.48220906878081 L-513.7232825054356,-30.355704945708325 L-499.59582797478606,-96.04375146486446 L-476.33867661296665,-158.0784845056794 L-444.7802705730369,-215.09376293223073 L-405.96453720268164,-265.9023287552153 L-361.113192728607,-309.5307807692103 L-311.58232991576165,-345.2467292299551 L-258.814891223098,-372.5772080353296 L-204.2907738160986,-391.3177452700295 L-149.4763926045026,-401.5318388930132 L-95.77553935306571,-403.54093888049033 L-44.48331950282514,-397.9053870632881 L3.2551741691797815,-385.39709817453956 L46.47997587525174,-366.9650678781959 L84.44391239333025,-343.6950545380558 L116.63186711090256,-316.76499151838783 L142.7710085343705,-287.39783810114284 L162.83169090020945,-256.81366408380387 L177.0190862001677,-226.1827826204793 L185.75595545977615,-196.5816972483113 L189.65729942817165,-168.95351421536824 L189.4979325045701,-144.07429458689901 L186.174287380743,-122.52658885939357 L180.6619716653366,-104.68111872376386 L173.97075369516995,-90.68725668922863 L167.0987470257685,-80.47261634668612 L160.9875883139661,-73.75171684729986 L156.48036056288646,-70.04333784923762 L154.28390464974765,-68.69584881771391 L154.93699084302037,-68.91949166010244 L158.78559511496195,-69.82432971369072 L165.96625103531568,-70.46235908910182 L176.3981372277909,-69.87211847804248 L189.784224499542,-67.12403678509392 L205.6214584739002,-61.364727992115874 L223.21960599363683,-51.85848065532238 L241.72805981690405,-38.024293961152964 L260.16958878510803,-19.46697942076017 L277.4797512981682,3.9989291956497652 L292.5504687610133,32.333443573724736 L304.2760910351677,65.26424279402153 L311.6001840908757,102.28899055967037 L313.5612349050796,142.686839667315 L309.3355015856491,185.53876608129576 L298.2753365652097,229.7560380316309 L279.9414738319416,274.11581394636266 L254.12799150776962,317.30258848095724 L220.8789304562809,357.95397877351076 L180.49585797030176,394.7091719168819 L133.53600145151213,426.2582459893675 L80.80092781293128,451.39053497992614 L23.316097002150713,469.0402342478636 L-37.698040627469155,478.32753688027185 L-100.86241614998568,478.593749041449 L-164.68191492427533,469.4290483397251 L-227.5926475918698,450.6918153813815 L-288.01223696667233,422.51877517114144 L-344.3913212894635,385.32552047281746 L-395.26442356066616,339.79734119348734 L-439.2983543767631,286.8706392090544 L-475.3364012756609,227.70555358435274 L-502.43670790940433,163.65074399416255 L-519.9034558571293,96.20156830154856 L-527.3097228067936,26.953132966678652 L-524.511193491183,-42.45011679517306 L-511.6502329243109,-110.36647342209093 L-489.15018277235674,-175.20885572632776 L-457.7000980567371,-235.49466354872982 L-418.23048958480103,-289.8918279850066 L-371.88096460135193,-337.259428136967 L-319.96095200558,-376.6814466772146 L-263.90494818027736,-407.4924903567682 L-205.2239157794643,-429.29459846211404 L-145.4546034585578,-441.96459106933844 L-86.10862451539681,-445.6517574892065 L-28.623134199587923,-440.7660405596785 L25.6851209523018,-427.9572211891177 L75.6607404373398,-408.085936802645 L120.34414512259605,-382.18766485000396 L158.9983880139733,-351.43105724342365 L191.12738805893747,-317.0722140622118 L216.4849980046647,-280.4066275992674 L235.074661860866,-242.720605584593 L247.13977024411435,-205.2439923858193 L253.1451696022872,-169.10594887835782 L253.75061102536014,-135.29542776779832 L249.77722371700239,-104.62779616561576 L242.1683560503845,-77.71881818160577 L231.94633384355075,-54.96692623731644 L220.16683336990155,-36.54439144071094 L207.87265018292163,-22.39766268874274 L196.0486610107078,-12.256794006619373 L185.5797242246512,-5.653533164184239 L177.21314671479317,-1.9473148601884276 L171.5271658927961,-0.35810113031658375 L168.90666177684864,-0.004751413279194594Z" stroke="hsl(45, 100%, 50%)" stroke-width="4" fill="hsl(0, 100%, 10%)" fill-rule="evenodd"/><path d="M168.75,0 L168.75,0 L52.14594470139969,37.886246488582685 L52.14661780077238,160.49078712480716 L-19.91797850046219,61.30123452468314 L-136.52161780077236,99.18876132435486 L-64.45593240187499,7.893575130201437e-15 L-136.5216178007724,-99.18876132435483 L-19.917978500462205,-61.30123452468313 L52.14661780077235,-160.49078712480718 L52.145944701399685,-37.8862464885827 Z" fill="url(#radialGradient)" fill-opacity="0.25" stroke-width="4" stroke="hsl(45, 100%, 50%)"/></g></svg>