<svg id="FlowerOfLife2" xmlns="http://www.w3.org/2000/svg" viewBox="-540 -540 1080 1080"><defs><g id="flower-of-life"><circle r="120"/><circle cx="120" cy="0" r="120"/><circle cx="60.000000000000014" cy="103.92304845413263" r="120"/><circle cx="-59.99999999999997" cy="103.92304845413264" r="120"/><circle cx="-120" cy="1.469576158976824e-14" r="120"/><circle cx="-60.00000000000006" cy="-103.92304845413261" r="120"/><circle cx="59.99999999999992" cy="-103.92304845413268" r="120"/><circle cx="240" cy="0" r="120"/><circle cx="120.00000000000003" cy="207.84609690826525" r="120"/><circle cx="-119.99999999999994" cy="207.84609690826528" r="120"/><circle cx="-240" cy="2.939152317953648e-14" r="120"/><circle cx="-120.00000000000011" cy="-207.84609690826522" r="120"/><circle cx="119.99999999999984" cy="-207.84609690826537" r="120"/><circle cx="1.2711833775149526e-14" cy="-207.6" r="120"/><circle cx="179.78687382564945" cy="-103.8" r="120"/><circle cx="179.78687382564948" cy="103.79999999999997" r="120"/><circle cx="1.2711833775149526e-14" cy="207.6" r="120"/><circle cx="-179.78687382564942" cy="103.80000000000007" r="120"/><circle cx="-179.78687382564954" cy="-103.79999999999987" r="120"/></g><path id="white-square" d="M-540,-540H1080V1080H-540Z" fill="white"/><mask id="fol-mask"><use href="#white-square"/><use href="#flower-of-life"/></mask><path id="petal" d="M289.7777478867205,&#10;          77.64571353075623&#10;          C463.6443966187528,&#10;          124.23314164920995&#10;          376.8,&#10;          0&#10;          480,0&#10;          C376.8,&#10;          0&#10;          463.6443966187527,&#10;          -124.23314164921035&#10;          289.7777478867204,&#10;          -77.64571353075647&#10;          "/><g id="petals"><use href="#petal" transform="rotate(0)"/><use href="#petal" transform="rotate(30)"/><use href="#petal" transform="rotate(60)"/><use href="#petal" transform="rotate(90)"/><use href="#petal" transform="rotate(120)"/><use href="#petal" transform="rotate(150)"/><use href="#petal" transform="rotate(180)"/><use href="#petal" transform="rotate(210)"/><use href="#petal" transform="rotate(240)"/><use href="#petal" transform="rotate(270)"/><use href="#petal" transform="rotate(300)"/><use href="#petal" transform="rotate(330)"/></g><mask id="petal-mask"><use href="#white-square"/><use href="#petals" stroke="black" fill="black" stroke-width="5" transform="rotate(15)"/></mask><linearGradient id="rearPetalGradient"><stop offset="25%" stop-color="hsl(15, 100%, 50%)"/><stop offset="100%" stop-color="hsl(60, 100%, 50%)"/></linearGradient><linearGradient id="frontPetalGradient"><stop offset="25%" stop-color="hsl(45, 100%, 50%)"/><stop offset="100%" stop-color="hsl(0, 100%, 50%)"/></linearGradient><filter id="stroke"><feFlood flood-color="black" result="color"/><feComposite in="color" in2="SourceGraphic" operator="in" result="composite"/><feMorphology in="composite" operator="dilate" radius="5" result="dilate"/><feMerge><feMergeNode in="dilate"/><feMergeNode in="SourceGraphic"/></feMerge></filter></defs><g mask="url(#fol-mask)"><use href="#petals" stroke="white" stroke-width="5" mask="url(#petal-mask)" fill="url(#rearPetalGradient)"/><g id="front-petals" fill="url(#frontPetalGradient)"><use href="#petals" stroke="white" stroke-width="5" transform="rotate(15)"/></g></g><use filter="url(#stroke)" href="#flower-of-life" stroke="white" stroke-width="5" fill="none"/></svg>