<svg id="MaurerRose-n5-d143" xmlns="http://www.w3.org/2000/svg" viewBox="-540 -540 1080 1080"><filter id="glow"><feFlood flood-color="hsl(255, 100%, 50%)" flood-opacity="1" result="flood"/><feComposite in="flood" in2="SourceGraphic" operator="in" result="mask"/><feMorphology in="mask" operator="dilate" radius="1" result="dilate"/><feGaussianBlur in="dilate" stdDeviation="4" result="blur"/><feMerge><feMergeNode in="blur"/><feMergeNode in="SourceGraphic"/></feMerge></filter><path filter="url(#glow)" d="M0,0 L0,0 L47.05693299318027,0.8213818207187458 L93.71289378001268,3.272526362096462 L139.5707450020308,7.314592798436057 L184.2409797010558,12.88338433984385 L227.34543869793058,19.89014859039683 L268.5209117494337,28.222685082266427 L307.4225856690822,37.74674719301383 L343.7273042218618,48.30772224534329 L377.13660660020355,59.732570362268056 L407.379513637164,71.83199964212406 L434.21503358743155,84.40285246096975 L457.4343622785879,97.2306752356559 L476.86275567194247,110.09244181713272 L492.361056339295,122.7593988548352 L503.82685902179844,135 L511.1953042502089,146.5828947153173 L514.4394929311601,157.27993674309127 L513.5705187993829,166.86917696247158 L508.6371196580213,175.1378054423763 L499.7249523350946,181.88500797007117 L486.9555002306696,186.9247032012342 L470.4846261740523,190.088127826567 L450.5007870120476,191.2262387692212 L427.22292986840154,190.21190339896935 L400.8980933132961,186.9418510517272 L371.7987397249851,181.33836175159195 L340.2198478809273,173.35067091845565 L306.47579725382775,162.95607197583132 L270.89707758304144,150.16070211638288 L233.8268590217986,135.00000000000006 L195.61745950759487,117.53882781233217 L156.62674695302,97.87125386019983 L117.21451439766057,76.1199956827997 L77.73886639346317,52.43552747206642 L38.552654615365626,26.994859379674367 L5.3501043921322946e-14,3.887078370152382e-14 L-37.58706237392628,-28.323883083338494 L-73.8917809267058,-57.73058635501844 L-108.61569485076957,-87.95525544453434 L-141.48142032386784,-118.71700761219522 L-172.23518749291225,-149.72176427287982 L-200.64910287889649,-180.66526371689176 L-226.52311493890974,-211.23622203942884 L-249.68666383852,-241.1196084878861 L-270,-269.99999999999994 L-287.3551596603476,-297.5649786524189 L-301.6765894573453,-323.50853508101915 L-312.9214159204864,-347.53444067936323 L-321.07935963409193,-369.35955153381207 L-326.17229771972904,-388.7170076121953 L-328.2534821117018,-405.35929168246986 L-327.40642483108695,-419.061113788802 L-323.74346505985704,-429.6220888411314 L-317.4040362379355,-436.8691769624716 L-308.55265461536555,-440.6588586639225 L-297.37665365439534,-440.87901965493813 L-284.0836913601324,-437.4505231165832 L-268.8990599946099,-430.32845053605524 L-252.06282967212786,-419.50299568653554 L-233.8268590217986,-405.00000000000017 L-214.45170741850882,-386.88112138248493 L-194.20348421223764,-365.24363242042375 L-173.3506709184557,-340.2198478809273 L-152.16095246405308,-311.9761853754127 L-130.89809331329607,-280.7118669918694 L-109.818893630466,-246.6572735635021 L-89.1702595782643,-210.07196698857197 L-69.18642041625937,-171.24239960721638 L-50.08632326819817,-130.47933303670172 L-32.07123429149776,-88.11499202992883 L-15.322572531016837,-44.499981818555845 L-4.087116068868882e-14,-1.2578849839682197e-13 L13.760211465094873,45.00762370150105 L25.846519248658648,90.13752455078425 L36.1731409782016,135.00000000000017 L44.6807671595725,179.20476901936775 L51.33694872431259,222.36475485872282 L56.13615652079497,264.0998521981271 L59.09951353957292,304.0406397219014 L60.274204406432816,341.83199964212395 L59.73257036226806,377.1366066002035 L57.57090153593115,409.6382496791263 L53.90794176470123,439.0449529508068 L48.883124488501686,465.0918620447381 L42.65456130206943,487.5438666339938 L35.39680755987634,506.19793146684816 L27.298431960440848,520.8851115978189 L18.559419261577407,531.4722307583515 L9.388437171352532,537.8632053195863 L3.3065463576978534e-14,540 L-9.388437171352587,537.8632053195863 L-18.559419261577226,531.4722307583517 L-27.298431960440677,520.8851115978191 L-35.39680755987627,506.1979314668481 L-42.65456130206945,487.5438666339935 L-48.88312448850166,465.0918620447384 L-53.90794176470119,439.04495295080704 L-57.57090153593113,409.63824967912717 L-59.73257036226809,377.1366066002033 L-60.274204406432766,341.8319996421239 L-59.09951353957294,304.0406397219017 L-56.13615652079512,264.09985219812825 L-51.336948724312734,222.36475485872356 L-44.680767159572554,179.20476901936806 L-36.17314097820158,135.00000000000003 L-25.846519248658723,90.13752455078455 L-13.760211465094963,45.007623701501366 L-6.130674103303321e-14,1.88682747595233e-13 L15.3225725310164,-44.49998181855462 L32.07123429149763,-88.11499202992852 L50.08632326819787,-130.47933303670098 L69.18642041625927,-171.2423996072161 L89.17025957826394,-210.07196698857135 L109.81889363046584,-246.65727356350186 L130.89809331329593,-280.7118669918692 L152.16095246405314,-311.97618537541274 L173.35067091845573,-340.21984788092743 L194.20348421223724,-365.2436324204234 L214.45170741850868,-386.88112138248476 L233.8268590217981,-404.99999999999966 L252.06282967212775,-419.50299568653554 L268.8990599946097,-430.328450536055 L284.08369136013226,-437.4505231165832 L297.3766536543952,-440.879019654938 L308.5526546153654,-440.6588586639225 L317.40403623793543,-436.8691769624716 L323.7434650598571,-429.62208884113136 L327.406424831087,-419.06111378880206 L328.2534821117018,-405.35929168247014 L326.1722977197289,-388.7170076121951 L321.079359634092,-369.3595515338119 L312.92141592048637,-347.5344406793632 L301.67658945734536,-323.5085350810193 L287.35515966034785,-297.5649786524194 L270.00000000000034,-270.0000000000004 L249.6866638385199,-241.11960848788593 L226.5231149389098,-211.23622203942895 L200.649102878897,-180.6652637168923 L172.23518749291247,-149.72176427288005 L141.4814203238679,-118.71700761219533 L108.61569485077052,-87.9552554445352 L73.89178092670605,-57.730586355018666 L37.58706237392579,-28.323883083338114 L2.1400417568529176e-13,-1.554831348060953e-13 L-38.55265461536457,26.99485937967365 L-77.7388663934629,52.435527472066234 L-117.21451439766108,76.1199956828 L-156.62674695301953,97.87125386019954 L-195.61745950759442,117.53882781233196 L-233.8268590217987,135.0000000000001 L-270.89707758304104,150.16070211638268 L-306.47579725382707,162.95607197583112 L-340.2198478809274,173.35067091845573 L-371.7987397249852,181.33836175159195 L-400.8980933132962,186.9418510517273 L-427.2229298684011,190.2119033989693 L-450.50078701204706,191.2262387692212 L-470.4846261740519,190.08812782656696 L-486.9555002306696,186.92470320123417 L-499.72495233509454,181.88500797007126 L-508.6371196580211,175.13780544237645 L-513.5705187993829,166.86917696247164 L-514.4394929311601,157.27993674309144 L-511.19530425020895,146.58289471531765 L-503.8268590217985,135.00000000000017 L-492.36105633929486,122.75939885483517 L-476.86275567194235,110.09244181713258 L-457.4343622785878,97.23067523565587 L-434.2150335874319,84.40285246096988 L-407.3795136371639,71.83199964212402 L-377.1366066002041,59.73257036226819 L-343.7273042218624,48.30772224534349 L-307.4225856690822,37.74674719301385 L-268.5209117494346,28.222685082266597 L-227.34543869793148,19.890148590397015 L-184.24097970105595,12.8833843398439 L-139.57074500203098,7.314592798436062 L-93.71289378001197,3.272526362096412 L-47.05693299317959,0.8213818207187306 L-3.3065463576978535e-13,4.0493514131870153e-29 L47.05693299317893,0.8213818207187074 L93.71289378001227,3.2725263620964413 L139.57074500203032,7.314592798435995 L184.24097970105532,12.883384339843726 L227.3454386979309,19.890148590396805 L268.52091174943325,28.222685082266267 L307.4225856690824,37.746747193013945 L343.7273042218626,48.307722245343435 L377.13660660020366,59.73257036226802 L407.3795136371647,71.83199964212423 L434.21503358743155,84.40285246096971 L457.43436227858746,97.23067523565568 L476.86275567194247,110.09244181713271 L492.36105633929475,122.759398854835 L503.826859021798,134.99999999999963 L511.1953042502088,146.5828947153172 L514.4394929311601,157.27993674309107 L513.5705187993829,166.86917696247178 L508.6371196580212,175.13780544237636 L499.7249523350946,181.88500797007114 L486.9555002306697,186.9247032012343 L470.48462617405215,190.0881278265669 L450.50078701204785,191.2262387692212 L427.2229298684024,190.21190339896953 L400.89809331329656,186.94185105172735 L371.79873972498615,181.33836175159232 L340.21984788092794,173.35067091845573 L306.4757972538276,162.9560719758313 L270.89707758304223,150.16070211638325 L233.82685902179847,135.00000000000006 L195.6174595075942,117.53882781233176 L156.62674695302007,97.87125386019984 L117.21451439766007,76.11999568279937 L77.73886639346345,52.435527472066575 L38.55265461536669,26.994859379675095 L3.210062635279377e-13,2.3322470220914287e-13 L-37.58706237392527,-28.323883083337712 L-73.89178092670407,-57.730586355017046 L-108.61569485077004,-87.95525544453477 L-141.48142032386744,-118.71700761219488 L-172.23518749291264,-149.72176427288025 L-200.64910287889597,-180.6652637168913 L-226.52311493891,-211.23622203942904 L-249.68666383851948,-241.1196084878857 L-270.0000000000001,-270 L-287.3551596603473,-297.56497865241846 L-301.6765894573446,-323.508535081018 L-312.92141592048625,-347.53444067936283 L-321.0793596340917,-369.3595515338113 L-326.1722977197288,-388.7170076121949 L-328.25348211170194,-405.3592916824705 L-327.4064248310869,-419.0611137888021 L-323.74346505985704,-429.6220888411314 L-317.40403623793554,-436.86917696247156 L-308.55265461536584,-440.65885866392244 L-297.37665365439574,-440.87901965493813 L-284.08369136013204,-437.45052311658293 L-268.8990599946099,-430.32845053605513 L-252.06282967212798,-419.5029956865356 L-233.82685902179907,-405.0000000000007 L-214.45170741850825,-386.88112138248414 L-194.20348421223753,-365.24363242042375 L-173.35067091845602,-340.2198478809279 L-152.16095246405376,-311.9761853754138 L-130.8980933132967,-280.71186699187035 L-109.81889363046608,-246.65727356350237 L-89.17025957826455,-210.07196698857265 L-69.18642041625954,-171.24239960721667 L-50.08632326819849,-130.47933303670243 L-32.07123429149857,-88.1149920299309 L-15.322572531016625,-44.49998181855525 L-1.4304906241041092e-13,-4.4025974438887685e-13 L13.76021146509451,45.00762370149981 L25.84651924865905,90.13752455078574 L36.17314097820162,135.00000000000028 L44.6807671595724,179.20476901936746 L51.3369487243127,222.36475485872293 L56.136156520795,264.0998521981268 L59.0995135395729,304.0406397219004 L60.27420440643294,341.8319996421248 L59.73257036226813,377.13660660020355 L57.57090153593098,409.63824967912734 L53.9079417647012,439.0449529508078 L48.88312448850168,465.0918620447385 L42.654561302069474,487.5438666339937 L35.396807559876386,506.19793146684793 L27.298431960441,520.8851115978184 L18.559419261577702,531.4722307583512 L9.388437171352598,537.8632053195863 L9.919639073093561e-14,540 L-9.388437171352402,537.8632053195864 L-18.559419261577514,531.4722307583515 L-27.298431960440855,520.8851115978192 L-35.39680755987622,506.1979314668482 L-42.65456130206933,487.54386663399407 L-48.88312448850155,465.09186204473895 L-53.90794176470122,439.0449529508061 L-57.570901535931114,409.6382496791267 L-59.73257036226809,377.13660660020423 L-60.2742044064327,341.8319996421242 L-59.09951353957296,304.0406397219027 L-56.136156520795204,264.0998521981294 L-51.336948724312435,222.36475485872214 L-44.68076715957257,179.20476901936837 L-36.17314097820147,134.99999999999943 L-25.846519248658325,90.13752455078304 L-13.760211465094782,45.00762370150077 L-1.6348464275475517e-13,5.031539935872879e-13 L15.322572531016288,-44.499981818554325 L32.07123429149683,-88.11499202992646 L50.08632326819732,-130.47933303669987 L69.18642041625912,-171.24239960721582 L89.17025957826345,-210.0719669885703 L109.81889363046652,-246.65727356350303 L130.89809331329624,-280.7118669918696 L152.16095246405266,-311.9761853754119 L173.3506709184556,-340.21984788092726 L194.20348421223713,-365.2436324204233 L214.45170741850785,-386.8811213824838 L233.82685902179867,-405.0000000000003 L252.0628296721276,-419.50299568653537 L268.89905999460956,-430.3284505360549 L284.083691360132,-437.4505231165832 L297.3766536543949,-440.879019654938 L308.55265461536555,-440.6588586639225 L317.4040362379354,-436.86917696247167 L323.74346505985693,-429.62208884113164 L327.40642483108707,-419.0611137888019 L328.25348211170166,-405.3592916824697 L326.17229771972893,-388.7170076121953 L321.07935963409216,-369.35955153381246 L312.9214159204869,-347.5344406793642 L301.67658945734604,-323.5085350810204 L287.3551596603482,-297.5649786524201 L270.00000000000045,-270.00000000000057 L249.686663838521,-241.11960848788732 L226.52311493890946,-211.23622203942847 L200.64910287889663,-180.66526371689184 L172.23518749291333,-149.72176427288085 L141.4814203238681,-118.71700761219553 L108.61569485077074,-87.95525544453538 L73.89178092670777,-57.73058635502007 L37.587062373926045,-28.323883083338316 L4.815093952919065e-13,-3.498370533137145e-13 L-38.5526546153643,26.994859379673464 L-77.7388663934626,52.43552747206609 L-117.2145143976608,76.11999568279984 L-156.62674695301763,97.87125386019859 L-195.61745950759487,117.53882781233227 L-233.82685902179767,134.99999999999972 L-270.89707758304155,150.16070211638285 L-306.4757972538282,162.9560719758316 L-340.21984788092715,173.35067091845568 L-371.79873972498564,181.338361751592 L-400.89809331329496,186.94185105172696 L-427.22292986840193,190.2119033989695 L-450.5007870120465,191.22623876922128 L-470.4846261740518,190.08812782656696 L-486.95550023066886,186.9247032012342 L-499.7249523350947,181.88500797007114 L-508.6371196580209,175.13780544237673 L-513.5705187993829,166.86917696247173 L-514.4394929311601,157.27993674309099 L-511.19530425020906,146.58289471531774 L-503.82685902179867,135.00000000000003 L-492.361056339295,122.75939885483527 L-476.8627556719428,110.09244181713296 L-457.43436227858876,97.23067523565635 L-434.215033587431,84.40285246096958 L-407.37951363716525,71.83199964212467 L-377.13660660020435,59.732570362268284 L-343.72730422186197,48.30772224534348 L-307.42258566908316,37.746747193014144 L-268.52091174943405,28.22268508226645 L-227.34543869793006,19.89014859039682 L-184.24097970105447,12.883384339843655 L-139.5707450020322,7.314592798436205 L-93.71289378001136,3.2725263620964022 L-47.056932993183736,0.8213818207188505 L-6.613092715395707e-13,1.6197405652748061e-28" stroke="hsl(255, 100%, 70%)" stroke-width="2" stroke-opacity="1" fill="none" transform="rotate(180,0,0)"/><path d="M0,0 L0,0 L37.58706237392579,-28.323883083338114 L-25.846519248658325,90.13752455078304 L-50.08632326819718,-130.4793330366993 L156.62674695301746,97.87125386019835 L-227.3454386979272,19.89014859039622 L200.64910287889364,-180.66526371688897 L-59.0995135395733,304.0406397219038 L-152.16095246405072,-311.97618537540853 L340.219847880933,173.3506709184578 L-407.37951363715956,71.8319996421221 L301.6765894573481,-323.50853508102193 L-48.88312448850177,465.0918620447335 L-252.0628296721247,-419.50299568653253 L470.48462617405386,190.08812782656742 L-503.826859021799,135.00000000000176 L327.4064248310863,-419.06111378879984 L-9.388437171352093,537.8632053195867 L-317.4040362379371,-436.8691769624705 L514.4394929311597,157.27993674308772 L-499.72495233509807,181.8850079700693 L284.0836913601336,-437.4505231165824 L35.39680755987572,506.19793146684356 L-321.0793596340907,-369.35955153381434 L457.4343622785965,97.23067523565888 L-400.8980933132979,186.94185105172815 L194.20348421224506,-365.243632420434 L59.73257036226791,377.136606600207 L-249.68666383851485,-241.1196084878808 L307.42258566908754,37.74674719301345 L-233.82685902179148,134.99999999999784 L89.17025957826814,-210.0719669885778 L44.680767159577435,179.20476901939014 L-108.61569485077673,-87.95525544454027 L93.71289378000758,3.272526362096104 L-38.55265461534934,26.99485937966323 L-1.0629187287582827e-11,3.2713274728546936e-11 L-15.322572531023168,-44.499981818572856 L77.73886639349071,52.4355274720836 L-139.57074500204703,7.314592798436983 L141.4814203238476,-118.71700761217558 L-51.33694872431445,222.36475485873655 L-109.81889363046432,-246.65727356350226 L270.89707758305303,150.16070211638544 L-343.7273042218834,48.30772224534603 L269.99999999999034,-269.9999999999913 L-57.57090153593484,409.6382496791237 L-214.4517074185143,-386.8811213824887 L427.2229298683842,190.2119033989641 L-476.8627556719576,110.09244181714222 L326.17229771972734,-388.7170076121936 L-27.29843196043938,520.885111597821 L-297.3766536543877,-440.87901965493506 L508.63711965802577,175.13780544237332 L-513.5705187993835,166.86917696246974 L308.5526546153565,-440.6588586639219 L18.559419261578036,531.4722307583481 L-328.2534821117038,-405.3592916824572 L492.36105633930015,122.75939885483301 L-450.50078701201846,191.22623876922128 L233.8268590217896,-404.9999999999956 L53.90794176469909,439.044952950789 L-287.35515966035126,-297.5649786524296 L377.1366066002047,59.732570362266216 L-306.4757972538611,162.95607197584658 L130.8980933132836,-280.71186699185023 L56.13615652079807,264.0998521981435 L-172.23518749287567,-149.7217642728434 L184.24097970104614,12.88338433984246 L-117.21451439763884,76.11999568278902 L32.07123429148361,-88.11499202989245 L13.760211465080298,45.00762370144924 L5.565514718336206e-11,4.043583133110911e-11 L-47.056932993202174,0.8213818207192443 L73.89178092673322,-57.730586355042156 L-36.17314097819799,134.99999999999076 L-69.18642041628674,-171.2423996072721 L195.61745950761104,117.53882781233852 L-268.5209117494627,28.222685082269766 L226.52311493890417,-211.2362220394192 L-60.27420440643243,341.8319996420775 L-173.3506709184883,-340.21984788097205 L371.7987397250048,181.33836175159635 L-434.2150335874224,84.40285246096784 L312.9214159204901,-347.534440679359 L-42.65456130205824,487.5438666340523 L-268.8990599946242,-430.32845053605746 L486.95550023068165,186.92470320123326 L-511.1953042502186,146.58289471531918 L323.7434650598543,-429.6220888411413 L1.850663211679525e-12,540 L-323.74346505985466,-429.6220888411356 L511.19530425020724,146.58289471532785 L-486.9555002306632,186.92470320124588 L268.8990599946001,-430.3284505360526 L42.654561302069105,487.5438666339784 L-312.92141592050723,-347.5344406793931 L434.2150335873977,84.40285246094714 L-371.79873972493453,181.33836175157833 L173.3506709184211,-340.2198478808698 L60.27420440643485,341.83199964213424 L-226.52311493891295,-211.23622203942446 L268.5209117494205,28.22268508226347 L-195.61745950756873,117.5388278123225 L69.18642041628985,-171.2423996072832 L36.17314097821732,135.00000000005917 L-73.89178092664945,-57.730586354972516 L47.056932993092055,0.8213818207156616 L-1.5849829678774776e-11,1.1515575323271248e-11 L-13.760211465093041,45.007623701496605 L-32.07123429154464,-88.11499203005047 L117.2145143976792,76.11999568281409 L-184.2409797010922,12.883384339846948 L172.235187492946,-149.72176427291518 L-56.13615652079761,264.0998521981872 L-130.8980933132813,-280.7118669918403 L306.4757972538125,162.95607197581802 L-377.1366066002798,59.73257036229175 L287.35515966039014,-297.5649786524909 L-53.907941764699515,439.04495295081745 L-233.82685902181612,-405.0000000000087 L450.5007870120151,191.2262387692162 L-492.36105633931555,122.75939885484046 L328.25348211170746,-405.35929168249095 L-18.55941926158942,531.4722307583455 L-308.552654615362,-440.6588586639232 L513.5705187993847,166.86917696246624 L-508.63711965801554,175.13780544238986 L297.3766536544103,-440.8790196549481 L27.29843196044229,520.8851115978082 L-326.1722977197247,-388.7170076121738 L476.8627556719175,110.09244181710811 L-427.2229298684192,190.21190339897592 L214.4517074184754,-386.8811213824377 L57.57090153593357,409.63824967905214 L-269.9999999999945,-269.9999999999994 L343.7273042218464,48.307722245338425 L-270.8970775830125,150.16070211637546 L109.81889363043828,-246.65727356346724 L51.33694872432473,222.36475485877406 L-141.481420323813,-118.7170076121449 L139.57074500205863,7.314592798440609 L-77.73886639337202,52.43552747201075 L15.32257253101623,-44.49998181855575 L-4.2516749150335924e-11,-1.3085309891418625e-10 L38.552654615389294,26.994859379691622 L-93.71289378005599,3.272526362098437 L108.61569485072467,-87.95525544449167 L-44.680767159582295,179.20476901943655 L-89.17025957830683,-210.07196698864 L233.82685902178517,134.9999999999876 L-307.42258566917616,37.74674719303533 L249.68666383858076,-241.11960848796832 L-59.73257036226739,377.13660660022043 L-194.20348421225833,-365.2436324204404 L400.89809331325694,186.94185105171607 L-457.4343622786206,97.2306752356639 L321.0793596341077,-369.3595515338443 L-35.39680755988635,506.19793146683855 L-284.08369136017086,-437.45052311659236 L499.724952335067,181.8850079700863 L-514.439492931157,157.27993674310673 L317.4040362379154,-436.86917696248616 L9.388437171355704,537.8632053195823 L-327.4064248310899,-419.0611137887862 L503.8268590217849,134.99999999997507 L-470.48462617406267,190.08812782657083 L252.06282967209808,-419.5029956865015 L48.88312448849073,465.0918620447408 L-301.67658945738646,-323.5085350810679 L407.37951363699693,71.83199964206668 L-340.21984788098433,173.35067091847168 L152.16095246402097,-311.9761853753811 L59.09951353956111,304.0406397217435 L-200.64910287884572,-180.66526371683884 L227.34543869795277,19.890148590390375 L-156.6267469529297,97.87125386014267 L50.08632326819437,-130.47933303669708 L25.84651924862267,90.13752455064852 L-37.58706237389857,-28.3238830833182 L7.357970643771373e-11,-5.043379845572441e-25 L37.58706237417023,-28.323883083527065 L-25.846519248648146,90.13752455074201 L-50.08632326823765,-130.47933303678232 L156.6267469530039,97.87125386019844 L-227.3454386980402,19.890148590414185 L200.64910287889626,-180.66526371690998 L-59.099513539593424,304.04063972202425 L-152.16095246407605,-311.97618537543815 L340.2198478810487,173.3506709184986 L-407.37951363720964,71.83199964213382 L301.67658945732444,-323.5085350810103 L-48.88312448850311,465.09186204466556 L-252.06282967212525,-419.50299568653367 L470.4846261741073,190.08812782655022 L-503.82685902180754,134.99999999998855 L327.406424831084,-419.0611137888396 L-9.388437171378682,537.863205319569 L-317.40403623794623,-436.8691769624638 L514.4394929311599,157.27993674306794 L-499.72495233509886,181.88500797007345 L284.0836913601088,-437.45052311656434 L35.39680755989387,506.19793146684646 L-321.07935963411956,-369.35955153384776 L457.43436227857376,97.23067523564738 L-400.8980933133415,186.94185105173446 L194.20348421220288,-365.2436324203983 L59.73257036227524,377.1366066002366 L-249.6866638385975,-241.11960848797787 L307.42258566889916,37.746747192979306 L-233.82685902189368,135.00000000005454 L89.1702595782691,-210.07196698855913 L44.68076715954465,179.20476901923172 L-108.61569485073917,-87.95525544451118 L93.71289377983851,3.2725263620842235 L-38.552654615308626,26.994859379635926 L1.210819244279075e-11,-3.726518454612507e-11 L-15.322572531051284,-44.499981818647356 L77.73886639345605,52.435527472059455 L-139.570745001917,7.3145927984271495 L141.4814203240522,-118.71700761236262 L-51.336948724291666,222.36475485864483 L-109.81889363047631,-246.65727356354353 L270.89707758318156,150.16070211644418 L-343.72730422192035,48.307722245353624 L270.000000000086,-270.000000000129 L-57.570901535924456,409.638249679197 L-214.45170741850805,-386.88112138248414 L427.2229298684776,190.2119033989658 L-476.86275567195025,110.09244181715111 L326.17229771971404,-388.71700761217187 L-27.298431960410202,520.885111597899 L-297.376653654402,-440.8790196549228 L508.637119658026,175.13780544238566 L-513.5705187993728,166.86917696250248 L308.55265461535106,-440.65885866392046 L18.559419261625575,531.4722307583058 L-328.253482111694,-405.35929168251005 L492.36105633928463,122.75939885482555 L-450.5007870119633,191.2262387692317 L233.82685902176297,-404.99999999998255 L53.90794176470724,439.0449529508306 L-287.35515966040515,-297.56497865249827 L377.1366066002153,59.73257036225426 L-306.4757972537437,162.9560719757868 L130.89809331338685,-280.711866992035 L56.13615652077642,264.09985219799586 L-172.23518749272984,-149.72176427268874 L184.24097970111447,12.883384339856493 L-117.21451439759842,76.11999568276393 L32.071234291510294,-88.11499202995985 L13.760211465067556,45.00762370140188 L-3.872085765868704e-12,-2.8132349809876977e-12 L-47.05693299306776,0.8213818207158828 L73.89178092672174,-57.73058635503739 L-36.17314097824006,135.00000000015146 L-69.18642041618743,-171.24239960705097 L195.6174595077488,117.53882781241191 L-268.5209117495049,28.222685082276058 L226.52311493890147,-211.23622203940752 L-60.27420440643354,341.8319996422111 L-173.35067091845738,-340.2198478809295 L371.7987397250803,181.33836175160383 L-434.2150335874472,84.40285246098856 L312.9214159204631,-347.5344406793338 L-42.65456130203833,487.5438666340229 L-268.8990599946584,-430.3284505361055 L486.9555002306302,186.92470320122555 L-511.19530425023805,146.58289471536 L323.743465059854,-429.622088841147 L-9.795733457379589e-12,540 L-323.74346505987296,-429.62208884110305 L511.19530425020423,146.5828947153075 L-486.9555002306097,186.9247032012609 L268.899059994576,-430.3284505360479 L42.65456130207516,487.5438666340091 L-312.9214159204817,-347.5344406793003 L434.2150335873015,84.40285246092535 L-371.79873972505186,181.33836175162563 L173.35067091846176,-340.21984788090754 L60.274204406424026,341.8319996420024 L-226.52311493887888,-211.2362220394018 L268.52091174948254,28.22268508228356 L-195.61745950752967,117.53882781230085 L69.18642041616546,-171.2423996070347 L36.17314097818292,134.9999999998964 L-73.89178092670693,-57.730586355016605 L47.0569329932876,0.8213818207214281 L2.2262058873343686e-10,-1.6174332532445216e-10 L-13.760211465071302,45.0076237014266 L-32.07123429151546,-88.114992029984 L117.21451439782338,76.11999568289711 L-184.2409797011382,12.883384339851434 L172.23518749305413,-149.72176427302844 L-56.13615652079047,264.09985219801484 L-130.89809331330022,-280.7118669918759 L306.47579725393916,162.9560719758603 L-377.13660660022805,59.732570362286204 L287.35515966039316,-297.5649786525319 L-53.907941764707736,439.04495295070296 L-233.82685902180054,-404.9999999999753 L450.50078701208326,191.22623876924152 L-492.36105633936484,122.75939885488602 L328.2534821117127,-405.3592916825031 L-18.559419261527143,531.472230758399 L-308.5526546153363,-440.6588586639334 L513.5705187993858,166.8691769624627 L-508.6371196579902,175.13780544241737 L297.3766536543655,-440.8790196549422 L27.298431960502743,520.8851115977604 L-326.1722977197485,-388.7170076122415 L476.86275567194855,110.09244181711183 L-427.22292986833935,190.21190339894386 L214.45170741840295,-386.8811213823651 L57.570901535931974,409.63824967902036 L-269.99999999997164,-269.99999999997283 L343.7273042218998,48.30772224536345 L-270.8970775829762,150.16070211635775 L109.81889363036198,-246.65727356333815 L51.33694872430382,222.3647548586189 L-141.48142032403007,-118.71700761235277 L139.57074500212966,7.314592798443371 L-77.73886639343172,52.435527472051795 L15.322572530960144,-44.499981818393856 L-9.566268558827455e-11,-2.944194725569129e-10 L38.55265461553135,26.994859379787435 L-93.71289378010438,3.27252636210077 L108.615694850761,-87.95525544452234 L-44.68076715959224,179.2047690194817 L-89.17025957846808,-210.0719669889827 L233.82685902192281,135.0000000000472 L-307.4225856689207,37.74674719297064 L249.68666383848455,-241.1196084878513 L-59.7325703622488,377.1366066002586 L-194.2034842123127,-365.24363242053664 L400.89809331349653,186.941851051769 L-457.4343622785894,97.23067523563336 L321.0793596341188,-369.3595515338622 L-35.3968075598782,506.1979314667718 L-284.08369136014613,-437.45052311654774 L499.72495233520743,181.885007970037 L-514.4394929311612,157.27993674314385 L317.4040362379621,-436.86917696245234 L9.388437171359502,537.8632053195886 L-327.4064248311114,-419.0611137887587 L503.8268590217428,134.9999999999601 L-470.4846261739073,190.08812782657404 L252.06282967213508,-419.5029956865156 L48.88312448851137,465.09186204465215 L-301.67658945741744,-323.5085350810967 L407.3795136371994,71.8319996420995 L-340.2198478805358,173.35067091831914 L152.16095246397882,-311.9761853752551 L59.0995135395785,304.0406397220064 L-200.6491028788943,-180.66526371688008 L227.34543869779873,19.890148590362305 L-156.62674695278642,97.87125386006703 L50.08632326823379,-130.47933303675808 L25.84651924863814,90.13752455071946 L-37.587062373763544,-28.32388308321269 L1.4715941287542746e-10,-2.0173519382289762e-24" stroke="hsl(120, 100%, 50%)" fill="hsl(240, 100%, 50%)" transform="rotate(180,0,0)" fill-opacity="0.5"/></svg>