<svg id="StarsStars" xmlns="http://www.w3.org/2000/svg" viewBox="-540 -540 1080 1080"><path d="M-540,-540H1080V1080H-540Z" fill="hsl(240, 50%, 95%)"/><g id="starStar"><g id="ring-0"><path d="M1.1366894909370712e-14,-185.63548146755107 L41.67776231237579,-57.3645185324489 L176.54983430530265,-57.36451853244888 L67.43603599646345,21.911296331122237 L109.11379830883924,150.18225926622443 L4.3417675088314564e-15,70.9064444026533 L-109.11379830883921,150.18225926622443 L-67.43603599646345,21.911296331122244 L-176.54983430530268,-57.36451853244886 L-41.677762312375805,-57.36451853244888 Z" stroke="black" fill="none"/><path d="M1.839202230990997e-14,-300.36451853244887 L25.758273684087676,-221.08870366887774 L109.11379830883928,-221.08870366887774 L41.677762312375826,-172.09355559734666 L67.43603599646349,-92.8177407337755 L1.4050254801078512e-14,-141.81288880530656 L-67.43603599646345,-92.8177407337755 L-41.6777623123758,-172.09355559734664 L-109.11379830883926,-221.0887036688777 L-25.758273684087662,-221.08870366887774 Z" fill="hsl(45, 66%, 66%)" fill-opacity="0.25" stroke="black" transform="rotate(36, 1.1366894909370712e-14, -185.63548146755107)"/><path d="M176.54983430530265,-172.09355559734672 L202.30810798939032,-92.81774073377557 L285.66363261414193,-92.81774073377554 L218.22759661767847,-43.82259266224446 L243.9858703017661,35.453222201326696 L176.54983430530265,-13.54192587020438 L109.1137983088392,35.453222201326696 L134.87207199292683,-43.82259266224446 L67.43603599646337,-92.81774073377554 L150.79156062121498,-92.81774073377555 Z" fill="hsl(45, 66%, 66%)" fill-opacity="0.25" stroke="black" transform="rotate(36, 176.54983430530265, -57.36451853244888)"/><path d="M109.11379830883924,35.45322220132661 L134.8720719929269,114.72903706489777 L218.2275966176785,114.72903706489777 L150.79156062121504,163.72418513642884 L176.5498343053027,243 L109.11379830883924,194.00485192846895 L41.677762312375776,243 L67.43603599646343,163.72418513642887 L-4.263256414560601e-14,114.7290370648978 L83.35552462475157,114.72903706489777 Z" fill="hsl(45, 66%, 66%)" fill-opacity="0.25" stroke="black" transform="rotate(36, 109.11379830883924, 150.18225926622443)"/><path d="M-109.11379830883921,35.45322220132661 L-83.35552462475154,114.72903706489777 L5.684341886080802e-14,114.72903706489777 L-67.4360359964634,163.72418513642884 L-41.677762312375734,243 L-109.11379830883921,194.00485192846895 L-176.54983430530268,243 L-150.791560621215,163.72418513642887 L-218.2275966176785,114.7290370648978 L-134.8720719929269,114.72903706489777 Z" fill="hsl(45, 66%, 66%)" fill-opacity="0.25" stroke="black" transform="rotate(36, -109.11379830883921, 150.18225926622443)"/><path d="M-176.54983430530268,-172.0935555973467 L-150.791560621215,-92.81774073377554 L-67.43603599646342,-92.81774073377552 L-134.87207199292686,-43.82259266224444 L-109.11379830883921,35.45322220132672 L-176.54983430530268,-13.54192587020436 L-243.98587030176614,35.45322220132672 L-218.2275966176785,-43.82259266224444 L-285.663632614142,-92.81774073377551 L-202.30810798939035,-92.81774073377554 Z" fill="hsl(45, 66%, 66%)" fill-opacity="0.25" stroke="black" transform="rotate(36, -176.54983430530268, -57.36451853244886)"/></g><g id="ring-1"><path d="M1.8392022309909967e-14,-300.36451853244887 L67.43603599646345,-92.81774073377555 L285.6636326141419,-92.81774073377554 L109.11379830883925,35.45322220132665 L176.54983430530268,243 L7.025127400539257e-15,114.7290370648978 L-176.54983430530265,243 L-109.11379830883925,35.45322220132667 L-285.66363261414193,-92.81774073377551 L-67.43603599646346,-92.81774073377555 Z" stroke="black" fill="none"/><path d="M2.2733789818741424e-14,-371.2709629351022 L15.919488628288168,-322.2758148635711 L67.43603599646349,-322.2758148635711 L25.758273684087683,-291.99514807153105 L41.67776231237583,-242.99999999999994 L2.0050429927033625e-14,-273.28066679204005 L-41.67776231237578,-242.99999999999994 L-25.758273684087648,-291.99514807153105 L-67.43603599646346,-322.2758148635711 L-15.919488628288134,-322.2758148635711 Z" fill="hsl(45, 66%, 66%)" fill-opacity="0.25" stroke="black" transform="rotate(36, 1.8392022309909967e-14, -300.36451853244887)"/><path d="M285.6636326141419,-163.72418513642887 L301.58312124243,-114.7290370648978 L353.09966861060536,-114.72903706489778 L311.42190629822954,-84.44837027285772 L327.3413949265177,-35.45322220132662 L285.6636326141419,-65.73388899336669 L243.98587030176606,-35.45322220132662 L259.9053589300542,-84.4483702728577 L218.2275966176784,-114.72903706489777 L269.7441439858537,-114.72903706489778 Z" fill="hsl(45, 66%, 66%)" fill-opacity="0.25" stroke="black" transform="rotate(36, 285.6636326141419, -92.81774073377554)"/><path d="M176.54983430530268,172.09355559734666 L192.46932293359083,221.08870366887774 L243.98587030176617,221.08870366887777 L202.30810798939035,251.36937046091782 L218.2275966176785,300.3645185324489 L176.54983430530268,270.0838517404088 L134.87207199292686,300.3645185324489 L150.791560621215,251.36937046091782 L109.11379830883921,221.08870366887777 L160.63034567701453,221.08870366887774 Z" fill="hsl(45, 66%, 66%)" fill-opacity="0.25" stroke="black" transform="rotate(36, 176.54983430530268, 243)"/><path d="M-176.54983430530265,172.09355559734666 L-160.6303456770145,221.08870366887774 L-109.11379830883918,221.08870366887777 L-150.79156062121498,251.36937046091782 L-134.87207199292683,300.3645185324489 L-176.54983430530265,270.0838517404088 L-218.22759661767844,300.3645185324489 L-202.30810798939032,251.36937046091782 L-243.9858703017661,221.08870366887777 L-192.4693229335908,221.08870366887774 Z" fill="hsl(45, 66%, 66%)" fill-opacity="0.25" stroke="black" transform="rotate(36, -176.54983430530265, 243)"/><path d="M-285.66363261414193,-163.72418513642884 L-269.7441439858538,-114.72903706489777 L-218.22759661767844,-114.72903706489775 L-259.90535893005426,-84.44837027285769 L-243.9858703017661,-35.45322220132659 L-285.66363261414193,-65.73388899336666 L-327.34139492651775,-35.45322220132659 L-311.4219062982296,-84.44837027285767 L-353.0996686106054,-114.72903706489774 L-301.5831212424301,-114.72903706489775 Z" fill="hsl(45, 66%, 66%)" fill-opacity="0.25" stroke="black" transform="rotate(36, -285.66363261414193, -92.81774073377551)"/></g><g id="ring-2"><path d="M2.2733789818741424e-14,-371.27096293510215 L83.35552462475158,-114.7290370648978 L353.0996686106053,-114.72903706489777 L134.8720719929269,43.822592662244475 L218.22759661767847,300.36451853244887 L8.683535017662913e-15,141.8128888053066 L-218.22759661767842,300.36451853244887 L-134.8720719929269,43.82259266224449 L-353.09966861060536,-114.72903706489772 L-83.35552462475161,-114.72903706489777 Z" stroke="black" fill="none"/><path d="M2.5417149710449226e-14,-415.09355559734666 L9.83878505579954,-384.81288880530656 L41.677762312375826,-384.81288880530656 L15.919488628288173,-366.09840752581556 L25.758273684087683,-335.8177407337755 L2.3758742093325565e-14,-354.5322220132665 L-25.758273684087637,-335.8177407337755 L-15.919488628288127,-366.09840752581556 L-41.67776231237579,-384.81288880530656 L-9.838785055799496,-384.81288880530656 Z" fill="hsl(45, 66%, 66%)" fill-opacity="0.25" stroke="black" transform="rotate(36, 2.2733789818741424e-14, -371.27096293510215)"/><path d="M353.0996686106053,-158.55162972714226 L362.9384536664048,-128.2709629351022 L394.7774309229811,-128.27096293510218 L369.01915723889346,-109.55648165561118 L378.857942294693,-79.2758148635711 L353.0996686106053,-97.99029614306211 L327.34139492651764,-79.2758148635711 L337.18017998231716,-109.55648165561118 L311.4219062982295,-128.27096293510218 L343.2608835548058,-128.27096293510218 Z" fill="hsl(45, 66%, 66%)" fill-opacity="0.25" stroke="black" transform="rotate(36, 353.0996686106053, -114.72903706489777)"/><path d="M218.22759661767847,256.54192587020435 L228.066381673478,286.82259266224446 L259.90535893005426,286.82259266224446 L234.14708524596662,305.53707394173546 L243.98587030176614,335.8177407337755 L218.22759661767847,317.1032594542845 L192.4693229335908,335.8177407337755 L202.30810798939032,305.53707394173546 L176.54983430530265,286.82259266224446 L208.38881156187895,286.82259266224446 Z" fill="hsl(45, 66%, 66%)" fill-opacity="0.25" stroke="black" transform="rotate(36, 218.22759661767847, 300.36451853244887)"/><path d="M-218.22759661767842,256.54192587020435 L-208.3888115618789,286.82259266224446 L-176.54983430530262,286.82259266224446 L-202.30810798939027,305.53707394173546 L-192.46932293359075,335.8177407337755 L-218.22759661767842,317.1032594542845 L-243.98587030176608,335.8177407337755 L-234.14708524596657,305.53707394173546 L-259.9053589300542,286.82259266224446 L-228.06638167347793,286.82259266224446 Z" fill="hsl(45, 66%, 66%)" fill-opacity="0.25" stroke="black" transform="rotate(36, -218.22759661767842, 300.36451853244887)"/><path d="M-353.09966861060536,-158.55162972714223 L-343.26088355480584,-128.27096293510215 L-311.42190629822954,-128.27096293510215 L-337.1801799823172,-109.55648165561114 L-327.3413949265177,-79.27581486357106 L-353.09966861060536,-97.99029614306207 L-378.85794229469303,-79.27581486357106 L-369.0191572388935,-109.55648165561114 L-394.7774309229812,-128.27096293510215 L-362.9384536664049,-128.27096293510215 Z" fill="hsl(45, 66%, 66%)" fill-opacity="0.25" stroke="black" transform="rotate(36, -353.09966861060536, -114.72903706489772)"/></g><g id="ring-3"><path d="M2.5417149710449226e-14,-415.09355559734666 L93.19430968055111,-128.27096293510223 L394.7774309229811,-128.27096293510218 L150.79156062121504,48.99514807153107 L243.98587030176614,335.81774073377557 L9.708487292247056e-15,158.55162972714228 L-243.98587030176608,335.81774073377557 L-150.79156062121504,48.995148071531084 L-394.7774309229812,-128.27096293510215 L-93.19430968055113,-128.2709629351022 Z" stroke="black" fill="none"/><path d="M2.7075557327572883e-14,-442.17740733775554 L6.080703572488659,-423.4629260582645 L25.758273684087694,-423.4629260582645 L9.838785055799544,-411.89674054571543 L15.919488628288176,-393.18225926622443 L2.605060505298874e-14,-404.7484447787735 L-15.919488628288123,-393.18225926622443 L-9.838785055799494,-411.89674054571543 L-25.758273684087648,-423.4629260582645 L-6.080703572488609,-423.4629260582645 Z" fill="hsl(45, 66%, 66%)" fill-opacity="0.25" stroke="black" transform="rotate(36, 2.5417149710449226e-14, -415.09355559734666)"/><path d="M394.7774309229811,-155.35481467551102 L400.85813449546976,-136.64033339602 L420.5357046070688,-136.64033339602 L404.61621597878064,-125.07414788347094 L410.6969195512693,-106.35966660397992 L394.7774309229811,-117.92585211652899 L378.857942294693,-106.35966660397992 L384.9386458671816,-125.07414788347094 L369.01915723889346,-136.64033339602 L388.6967273504925,-136.64033339602 Z" fill="hsl(45, 66%, 66%)" fill-opacity="0.25" stroke="black" transform="rotate(36, 394.7774309229811, -128.27096293510218)"/><path d="M243.98587030176614,308.7338889933667 L250.06657387425477,327.44837027285774 L269.74414398585384,327.44837027285774 L253.82465535756566,339.0145557854068 L259.9053589300543,357.7290370648978 L243.98587030176614,346.16285155234874 L228.066381673478,357.7290370648978 L234.14708524596662,339.0145557854068 L218.22759661767847,327.44837027285774 L237.9051667292775,327.44837027285774 Z" fill="hsl(45, 66%, 66%)" fill-opacity="0.25" stroke="black" transform="rotate(36, 243.98587030176614, 335.81774073377557)"/><path d="M-243.98587030176608,308.7338889933667 L-237.90516672927745,327.44837027285774 L-218.22759661767842,327.44837027285774 L-234.14708524596657,339.0145557854068 L-228.06638167347793,357.7290370648978 L-243.98587030176608,346.16285155234874 L-259.9053589300542,357.7290370648978 L-253.8246553575656,339.0145557854068 L-269.7441439858538,327.44837027285774 L-250.06657387425471,327.44837027285774 Z" fill="hsl(45, 66%, 66%)" fill-opacity="0.25" stroke="black" transform="rotate(36, -243.98587030176608, 335.81774073377557)"/><path d="M-394.7774309229812,-155.354814675511 L-388.69672735049255,-136.64033339601997 L-369.0191572388935,-136.64033339601997 L-384.93864586718166,-125.07414788347091 L-378.85794229469303,-106.35966660397989 L-394.7774309229812,-117.92585211652896 L-410.69691955126933,-106.35966660397989 L-404.6162159787807,-125.07414788347091 L-420.53570460706885,-136.64033339601997 L-400.8581344954698,-136.64033339601997 Z" fill="hsl(45, 66%, 66%)" fill-opacity="0.25" stroke="black" transform="rotate(36, -394.7774309229812, -128.27096293510215)"/></g><g id="ring-4"><path d="M2.707555732757288e-14,-442.1774073377555 L99.27501325303975,-136.64033339602005 L420.5357046070688,-136.64033339602 L160.63034567701456,52.1919631231623 L259.90535893005426,357.7290370648978 L1.0341942634786572e-14,168.89674054571546 L-259.9053589300542,357.7290370648978 L-160.63034567701456,52.191963123162324 L-420.53570460706885,-136.64033339601997 L-99.27501325303976,-136.64033339602003 Z" stroke="black" fill="none"/><path d="M2.810050960215702e-14,-458.9161482595911 L3.7580814833109124,-447.34996274704207 L15.919488628288176,-447.34996274704207 L6.08070357248866,-440.20166698010013 L9.838785055799544,-428.6354814675511 L2.746705425961751e-14,-435.783777234493 L-9.83878505579949,-428.6354814675511 L-6.0807035724886065,-440.20166698010013 L-15.919488628288125,-447.34996274704207 L-3.758081483310859,-447.34996274704207 Z" fill="hsl(45, 66%, 66%)" fill-opacity="0.25" stroke="black" transform="rotate(36, 2.707555732757288e-14, -442.1774073377555)"/><path d="M420.5357046070688,-153.37907431785567 L424.2937860903797,-141.81288880530659 L436.45519323535694,-141.81288880530659 L426.6164081795574,-134.66459303836464 L430.3744896628683,-123.09840752581557 L420.5357046070688,-130.24670329275753 L410.6969195512693,-123.09840752581557 L414.45500103458016,-134.66459303836464 L404.61621597878064,-141.81288880530659 L416.7776231237579,-141.81288880530659 Z" fill="hsl(45, 66%, 66%)" fill-opacity="0.25" stroke="black" transform="rotate(36, 420.5357046070688, -136.64033339602)"/><path d="M259.90535893005426,340.99029614306215 L263.66344041336515,352.5564816556112 L275.8248475583424,352.5564816556112 L265.9860625025429,359.70477742255315 L269.7441439858538,371.2709629351022 L259.90535893005426,364.12266716816026 L250.06657387425474,371.2709629351022 L253.82465535756563,359.70477742255315 L243.9858703017661,352.5564816556112 L256.1472774467434,352.5564816556112 Z" fill="hsl(45, 66%, 66%)" fill-opacity="0.25" stroke="black" transform="rotate(36, 259.90535893005426, 357.7290370648978)"/><path d="M-259.9053589300542,340.99029614306215 L-256.1472774467433,352.5564816556112 L-243.98587030176606,352.5564816556112 L-253.82465535756558,359.70477742255315 L-250.0665738742547,371.2709629351022 L-259.9053589300542,364.12266716816026 L-269.7441439858537,371.2709629351022 L-265.98606250254284,359.70477742255315 L-275.82484755834236,352.5564816556112 L-263.6634404133651,352.5564816556112 Z" fill="hsl(45, 66%, 66%)" fill-opacity="0.25" stroke="black" transform="rotate(36, -259.9053589300542, 357.7290370648978)"/><path d="M-420.53570460706885,-153.37907431785564 L-416.77762312375796,-141.81288880530656 L-404.6162159787807,-141.81288880530656 L-414.4550010345802,-134.66459303836461 L-410.69691955126933,-123.09840752581555 L-420.53570460706885,-130.2467032927575 L-430.37448966286837,-123.09840752581555 L-426.6164081795575,-134.66459303836461 L-436.455193235357,-141.81288880530656 L-424.29378609037974,-141.81288880530656 Z" fill="hsl(45, 66%, 66%)" fill-opacity="0.25" stroke="black" transform="rotate(36, -420.53570460706885, -136.64033339601997)"/></g><g id="ring-5"><path d="M2.8100509602157028e-14,-458.9161482595912 L103.03309473635063,-141.81288880530664 L436.455193235357,-141.8128888053066 L166.71104924950322,54.167703480817664 L269.7441439858538,371.2709629351022 L1.07334395668312e-14,175.29037064897796 L-269.7441439858538,371.2709629351022 L-166.71104924950322,54.167703480817686 L-436.455193235357,-141.81288880530656 L-103.03309473635065,-141.81288880530664 Z" stroke="black" fill="none"/><path d="M2.873396494469654e-14,-469.26125907816436 L2.3226220891777762,-462.1129633112224 L9.838785055799548,-462.1129633112224 L3.7580814833109137,-457.6950735656153 L6.080703572488662,-450.54677779867336 L2.8342468012651915e-14,-454.9646675442805 L-6.080703572488604,-450.54677779867336 L-3.758081483310858,-457.6950735656153 L-9.838785055799491,-462.1129633112224 L-2.3226220891777207,-462.1129633112224 Z" fill="hsl(45, 66%, 66%)" fill-opacity="0.25" stroke="black" transform="rotate(36, 2.8100509602157028e-14, -458.9161482595912)"/><path d="M436.455193235357,-152.1579996238798 L438.77781532453474,-145.00970385693785 L446.2939782911565,-145.00970385693785 L440.2132747186679,-140.59181411133073 L442.53589680784563,-133.4435183443888 L436.455193235357,-137.8614080899959 L430.37448966286837,-133.4435183443888 L432.6971117520461,-140.59181411133073 L426.6164081795575,-145.00970385693785 L434.13257114617926,-145.00970385693785 Z" fill="hsl(45, 66%, 66%)" fill-opacity="0.25" stroke="black" transform="rotate(36, 436.455193235357, -141.8128888053066)"/><path d="M269.7441439858538,360.92585211652903 L272.0667660750315,368.07414788347097 L279.5829290416533,368.07414788347097 L273.50222546916467,372.4920376290781 L275.8248475583424,379.64033339602 L269.7441439858538,375.2224436504129 L263.66344041336515,379.64033339602 L265.9860625025429,372.4920376290781 L259.90535893005426,368.07414788347097 L267.42152189667604,368.07414788347097 Z" fill="hsl(45, 66%, 66%)" fill-opacity="0.25" stroke="black" transform="rotate(36, 269.7441439858538, 371.2709629351022)"/><path d="M-269.7441439858538,360.92585211652903 L-267.42152189667604,368.07414788347097 L-259.90535893005426,368.07414788347097 L-265.9860625025429,372.4920376290781 L-263.66344041336515,379.64033339602 L-269.7441439858538,375.2224436504129 L-275.8248475583424,379.64033339602 L-273.50222546916467,372.4920376290781 L-279.5829290416533,368.07414788347097 L-272.0667660750315,368.07414788347097 Z" fill="hsl(45, 66%, 66%)" fill-opacity="0.25" stroke="black" transform="rotate(36, -269.7441439858538, 371.2709629351022)"/><path d="M-436.455193235357,-152.15799962387973 L-434.13257114617926,-145.0097038569378 L-426.6164081795575,-145.0097038569378 L-432.6971117520461,-140.59181411133068 L-430.37448966286837,-133.44351834438874 L-436.455193235357,-137.86140808999585 L-442.53589680784563,-133.44351834438874 L-440.2132747186679,-140.59181411133068 L-446.2939782911565,-145.0097038569378 L-438.77781532453474,-145.0097038569378 Z" fill="hsl(45, 66%, 66%)" fill-opacity="0.25" stroke="black" transform="rotate(36, -436.455193235357, -141.81288880530656)"/></g><g id="ring-6"><path d="M2.873396494469654e-14,-469.26125907816436 L105.35571682552838,-145.00970385693788 L446.29397829115646,-145.00970385693785 L170.46913073281408,55.38877817479355 L275.8248475583424,379.64033339602 L1.0975397977326088e-14,179.24185136428866 L-275.8248475583424,379.64033339602 L-170.46913073281408,55.388778174793565 L-446.2939782911565,-145.0097038569378 L-105.3557168255284,-145.00970385693788 Z" stroke="black" fill="none"/><path d="M2.9125461876741166e-14,-475.6548891814268 L1.4354593941331661,-471.2369994358197 L6.080703572488662,-471.2369994358197 L2.3226220891777767,-468.5065934144849 L3.758081483310914,-464.08870366887777 L2.888350346624628e-14,-466.8191096902126 L-3.758081483310856,-464.08870366887777 L-2.322622089177719,-468.5065934144849 L-6.080703572488606,-471.2369994358197 L-1.4354593941331093,-471.2369994358197 Z" fill="hsl(45, 66%, 66%)" fill-opacity="0.25" stroke="black" transform="rotate(36, 2.873396494469654e-14, -469.26125907816436)"/><path d="M446.29397829115646,-151.4033339602003 L447.7294376852896,-146.9854442145932 L452.3746818636451,-146.9854442145932 L448.6166003803342,-144.25503819325837 L450.05205977446735,-139.83714844765126 L446.29397829115646,-142.5675544689861 L442.5358968078456,-139.83714844765126 L443.9713562019787,-144.25503819325837 L440.21327471866783,-146.9854442145932 L444.8585188970233,-146.9854442145932 Z" fill="hsl(45, 66%, 66%)" fill-opacity="0.25" stroke="black" transform="rotate(36, 446.29397829115646, -145.00970385693785)"/><path d="M275.8248475583424,373.24670329275756 L277.26030695247556,377.66459303836467 L281.90555113083104,377.66459303836467 L278.14746964752015,380.3949990596995 L279.5829290416533,384.8128888053066 L275.8248475583424,382.0824827839718 L272.0667660750315,384.8128888053066 L273.50222546916467,380.3949990596995 L269.7441439858538,377.66459303836467 L274.38938816420927,377.66459303836467 Z" fill="hsl(45, 66%, 66%)" fill-opacity="0.25" stroke="black" transform="rotate(36, 275.8248475583424, 379.64033339602)"/><path d="M-275.8248475583424,373.24670329275756 L-274.38938816420927,377.66459303836467 L-269.7441439858538,377.66459303836467 L-273.50222546916467,380.3949990596995 L-272.0667660750315,384.8128888053066 L-275.8248475583424,382.0824827839718 L-279.5829290416533,384.8128888053066 L-278.14746964752015,380.3949990596995 L-281.90555113083104,377.66459303836467 L-277.26030695247556,377.66459303836467 Z" fill="hsl(45, 66%, 66%)" fill-opacity="0.25" stroke="black" transform="rotate(36, -275.8248475583424, 379.64033339602)"/><path d="M-446.2939782911565,-151.40333396020026 L-444.8585188970234,-146.98544421459314 L-440.2132747186679,-146.98544421459314 L-443.9713562019788,-144.25503819325832 L-442.53589680784563,-139.8371484476512 L-446.2939782911565,-142.56755446898603 L-450.0520597744674,-139.8371484476512 L-448.61660038033426,-144.25503819325832 L-452.37468186364515,-146.98544421459314 L-447.72943768528967,-146.98544421459314 Z" fill="hsl(45, 66%, 66%)" fill-opacity="0.25" stroke="black" transform="rotate(36, -446.2939782911565, -145.0097038569378)"/></g><g id="ring-7"><path d="M2.9125461876741166e-14,-475.6548891814268 L106.79117621966151,-146.98544421459323 L452.3746818636451,-146.9854442145932 L172.79175282199182,56.14344383847302 L279.5829290416533,384.8128888053066 L1.1124936498875828e-14,181.68400075224042 L-279.58292904165324,384.8128888053066 L-172.79175282199182,56.14344383847304 L-452.37468186364515,-146.98544421459314 L-106.79117621966154,-146.98544421459323 Z" stroke="black" fill="none"/><path d="M2.9367420287236053e-14,-479.60636989673753 L0.8871626950446398,-476.8759638754027 L3.758081483310915,-476.8759638754027 L1.435459394133167,-475.1884801511304 L2.3226220891777776,-472.4580741297956 L2.9217881765686315e-14,-474.1455578540679 L-2.3226220891777185,-472.4580741297956 L-1.4354593941331089,-475.1884801511304 L-3.758081483310857,-476.8759638754027 L-0.8871626950445818,-476.8759638754027 Z" fill="hsl(45, 66%, 66%)" fill-opacity="0.25" stroke="black" transform="rotate(36, 2.9125461876741166e-14, -475.6548891814268)"/><path d="M452.3746818636451,-150.9369249299039 L453.2618445586897,-148.20651890856908 L456.132763346956,-148.20651890856908 L453.81014125777824,-146.5190351842968 L454.69730395282284,-143.78862916296197 L452.3746818636451,-145.47611288723425 L450.05205977446735,-143.78862916296197 L450.93922246951195,-146.5190351842968 L448.6166003803342,-148.20651890856908 L451.4875191686005,-148.20651890856908 Z" fill="hsl(45, 66%, 66%)" fill-opacity="0.25" stroke="black" transform="rotate(36, 452.3746818636451, -146.9854442145932)"/><path d="M279.5829290416533,380.8614080899959 L280.4700917366979,383.59181411133073 L283.3410105249642,383.59181411133073 L281.01838843578645,385.279297835603 L281.90555113083104,388.00970385693785 L279.5829290416533,386.32222013266556 L277.26030695247556,388.00970385693785 L278.14746964752015,385.279297835603 L275.8248475583424,383.59181411133073 L278.6957663466087,383.59181411133073 Z" fill="hsl(45, 66%, 66%)" fill-opacity="0.25" stroke="black" transform="rotate(36, 279.5829290416533, 384.8128888053066)"/><path d="M-279.58292904165324,380.8614080899959 L-278.69576634660865,383.59181411133073 L-275.82484755834236,383.59181411133073 L-278.1474696475201,385.279297835603 L-277.2603069524755,388.00970385693785 L-279.58292904165324,386.32222013266556 L-281.905551130831,388.00970385693785 L-281.0183884357864,385.279297835603 L-283.34101052496413,383.59181411133073 L-280.47009173669784,383.59181411133073 Z" fill="hsl(45, 66%, 66%)" fill-opacity="0.25" stroke="black" transform="rotate(36, -279.58292904165324, 384.8128888053066)"/><path d="M-452.37468186364515,-150.93692492990385 L-451.48751916860056,-148.20651890856902 L-448.61660038033426,-148.20651890856902 L-450.939222469512,-146.51903518429674 L-450.0520597744674,-143.7886291629619 L-452.37468186364515,-145.4761128872342 L-454.6973039528229,-143.7886291629619 L-453.8101412577783,-146.51903518429674 L-456.13276334695604,-148.20651890856902 L-453.26184455868975,-148.20651890856902 Z" fill="hsl(45, 66%, 66%)" fill-opacity="0.25" stroke="black" transform="rotate(36, -452.37468186364515, -146.98544421459314)"/></g><g id="ring-8"><path d="M2.9367420287236053e-14,-479.60636989673753 L107.67833891470613,-148.20651890856914 L456.132763346956,-148.20651890856908 L174.22721221612497,56.60985286876943 L281.90555113083104,388.0097038569379 L1.1217356387820975e-14,183.19333207959937 L-281.905551130831,388.0097038569379 L-174.22721221612497,56.60985286876945 L-456.13276334695604,-148.20651890856902 L-107.67833891470615,-148.2065189085691 Z" stroke="black" fill="none"/><path d="M2.951695880878579e-14,-482.0485192846893 L0.5482966990885567,-480.361035560417 L2.3226220891777776,-480.361035560417 L0.8871626950446401,-479.31811326335446 L1.4354593941331673,-477.6306295390822 L2.942453891984064e-14,-478.6735518361447 L-1.4354593941331082,-477.6306295390822 L-0.8871626950445812,-479.31811326335446 L-2.3226220891777194,-480.361035560417 L-0.548296699088498,-480.361035560417 Z" fill="hsl(45, 66%, 66%)" fill-opacity="0.25" stroke="black" transform="rotate(36, 2.9367420287236053e-14, -479.60636989673753)"/><path d="M456.132763346956,-150.64866829652084 L456.68106004604454,-148.96118457224856 L458.4553854361337,-148.96118457224856 L457.0199260420006,-147.918262275186 L457.56822274108913,-146.23077855091373 L456.132763346956,-147.27370084797627 L454.69730395282284,-146.23077855091373 L455.2456006519114,-147.918262275186 L453.81014125777824,-148.96118457224856 L455.58446664786743,-148.96118457224856 Z" fill="hsl(45, 66%, 66%)" fill-opacity="0.25" stroke="black" transform="rotate(36, 456.132763346956, -148.20651890856908)"/><path d="M281.90555113083104,385.56755446898615 L282.4538478299196,387.25503819325843 L284.2281732200088,387.25503819325843 L282.79271382587564,388.297960490321 L283.3410105249642,389.98544421459326 L281.90555113083104,388.9425219175307 L280.4700917366979,389.98544421459326 L281.01838843578645,388.297960490321 L279.5829290416533,387.25503819325843 L281.3572544317425,387.25503819325843 Z" fill="hsl(45, 66%, 66%)" fill-opacity="0.25" stroke="black" transform="rotate(36, 281.90555113083104, 388.0097038569379)"/><path d="M-281.905551130831,385.56755446898615 L-281.35725443174243,387.25503819325843 L-279.58292904165324,387.25503819325843 L-281.0183884357864,388.297960490321 L-280.47009173669784,389.98544421459326 L-281.905551130831,388.9425219175307 L-283.34101052496413,389.98544421459326 L-282.7927138258756,388.297960490321 L-284.2281732200087,387.25503819325843 L-282.45384782991954,387.25503819325843 Z" fill="hsl(45, 66%, 66%)" fill-opacity="0.25" stroke="black" transform="rotate(36, -281.905551130831, 388.0097038569379)"/><path d="M-456.13276334695604,-150.64866829652078 L-455.5844666478675,-148.9611845722485 L-453.8101412577783,-148.9611845722485 L-455.24560065191145,-147.91826227518595 L-454.6973039528229,-146.23077855091367 L-456.13276334695604,-147.27370084797622 L-457.5682227410892,-146.23077855091367 L-457.01992604200063,-147.91826227518595 L-458.4553854361338,-148.9611845722485 L-456.6810600460446,-148.9611845722485 Z" fill="hsl(45, 66%, 66%)" fill-opacity="0.25" stroke="black" transform="rotate(36, -456.13276334695604, -148.20651890856902)"/></g><g id="ring-9"><path d="M2.95169588087858e-14,-482.0485192846893 L108.22663561379466,-148.96118457224858 L458.4553854361337,-148.96118457224856 L175.11437491116956,56.89810950215249 L283.3410105249642,389.9854442145932 L1.1274475020425566e-14,184.12615014019218 L-283.34101052496413,389.9854442145932 L-175.11437491116956,56.89810950215251 L-458.4553854361338,-148.9611845722485 L-108.22663561379467,-148.96118457224856 Z" stroke="black" fill="none"/><path d="M2.9609378697730947e-14,-483.55785061204824 L0.33886599595611294,-482.5149283149857 L1.4354593941331673,-482.5149283149857 L0.5482966990885569,-481.87036688777596 L0.8871626950446402,-480.8274445907134 L2.955226006512636e-14,-481.47200601792315 L-0.8871626950445809,-480.8274445907134 L-0.5482966990884979,-481.87036688777596 L-1.4354593941331084,-482.5149283149857 L-0.33886599595605393,-482.5149283149857 Z" fill="hsl(45, 66%, 66%)" fill-opacity="0.25" stroke="black" transform="rotate(36, 2.95169588087858e-14, -482.0485192846893)"/><path d="M458.4553854361337,-150.4705158996075 L458.7942514320898,-149.42759360254496 L459.8908448302669,-149.42759360254496 L459.0036821352223,-148.7830321753352 L459.3425481311783,-147.74010987827268 L458.4553854361337,-148.38467130548244 L457.56822274108913,-147.74010987827268 L457.90708873704517,-148.7830321753352 L457.0199260420006,-149.42759360254496 L458.1165194401776,-149.42759360254496 Z" fill="hsl(45, 66%, 66%)" fill-opacity="0.25" stroke="black" transform="rotate(36, 458.4553854361337, -148.96118457224856)"/><path d="M283.3410105249642,388.47611288723425 L283.6798765209203,389.5190351842968 L284.77646991909734,389.5190351842968 L283.88930722405274,390.16359661150653 L284.2281732200088,391.2065189085691 L283.3410105249642,390.56195748135934 L282.4538478299196,391.2065189085691 L282.79271382587564,390.16359661150653 L281.90555113083104,389.5190351842968 L283.0021445290081,389.5190351842968 Z" fill="hsl(45, 66%, 66%)" fill-opacity="0.25" stroke="black" transform="rotate(36, 283.3410105249642, 389.9854442145932)"/><path d="M-283.34101052496413,388.47611288723425 L-283.00214452900804,389.5190351842968 L-281.905551130831,389.5190351842968 L-282.7927138258756,390.16359661150653 L-282.45384782991954,391.2065189085691 L-283.34101052496413,390.56195748135934 L-284.2281732200087,391.2065189085691 L-283.8893072240527,390.16359661150653 L-284.7764699190973,389.5190351842968 L-283.67987652092023,389.5190351842968 Z" fill="hsl(45, 66%, 66%)" fill-opacity="0.25" stroke="black" transform="rotate(36, -283.34101052496413, 389.9854442145932)"/><path d="M-458.4553854361338,-150.47051589960745 L-458.1165194401777,-149.4275936025449 L-457.01992604200063,-149.4275936025449 L-457.9070887370452,-148.78303217533514 L-457.5682227410892,-147.74010987827262 L-458.4553854361338,-148.38467130548239 L-459.3425481311784,-147.74010987827262 L-459.00368213522233,-148.78303217533514 L-459.89084483026693,-149.4275936025449 L-458.7942514320899,-149.4275936025449 Z" fill="hsl(45, 66%, 66%)" fill-opacity="0.25" stroke="black" transform="rotate(36, -458.4553854361338, -148.9611845722485)"/></g><g id="ring-10"><path d="M2.960937869773094e-14,-483.55785061204824 L108.56550160975074,-149.42759360254502 L459.8908448302669,-149.42759360254496 L175.66267161025812,57.07626189906584 L284.2281732200088,391.20651890856914 L1.1309776276766124e-14,184.70266340695832 L-284.2281732200088,391.20651890856914 L-175.66267161025812,57.07626189906586 L-459.89084483026693,-149.4275936025449 L-108.56550160975077,-149.427593602545 Z" stroke="black" fill="none"/><path d="M2.966649733033553e-14,-484.49066867264105 L0.20943070313247364,-483.8461072454313 L0.8871626950446405,-483.8461072454313 L0.33886599595611305,-483.4477463755785 L0.548296699088557,-482.80318494836877 L2.963119607399498e-14,-483.2015458182215 L-0.5482966990884977,-482.80318494836877 L-0.3388659959560539,-483.4477463755785 L-0.8871626950445813,-483.8461072454313 L-0.20943070313241444,-483.8461072454313 Z" fill="hsl(45, 66%, 66%)" fill-opacity="0.25" stroke="black" transform="rotate(36, 2.960937869773094e-14, -483.55785061204824)"/><path d="M459.8908448302669,-150.36041166313777 L460.1002755333993,-149.71585023592803 L460.77800752531147,-149.71585023592803 L460.22971082622297,-149.31748936607525 L460.4391415293554,-148.67292793886548 L459.8908448302669,-149.07128880871826 L459.3425481311783,-148.67292793886548 L459.5519788343108,-149.31748936607525 L459.0036821352223,-149.71585023592803 L459.6814141271344,-149.71585023592803 Z" fill="hsl(45, 66%, 66%)" fill-opacity="0.25" stroke="black" transform="rotate(36, 459.8908448302669, -149.42759360254496)"/><path d="M284.2281732200088,390.27370084797633 L284.43760392314124,390.91826227518607 L285.1153359150534,390.91826227518607 L284.5670392159649,391.3166231450389 L284.77646991909734,391.9611845722486 L284.2281732200088,391.56282370239586 L283.67987652092023,391.9611845722486 L283.8893072240527,391.3166231450389 L283.3410105249642,390.91826227518607 L284.01874251687633,390.91826227518607 Z" fill="hsl(45, 66%, 66%)" fill-opacity="0.25" stroke="black" transform="rotate(36, 284.2281732200088, 391.20651890856914)"/><path d="M-284.2281732200088,390.27370084797633 L-284.01874251687633,390.91826227518607 L-283.3410105249642,390.91826227518607 L-283.8893072240527,391.3166231450389 L-283.67987652092023,391.9611845722486 L-284.2281732200088,391.56282370239586 L-284.77646991909734,391.9611845722486 L-284.5670392159649,391.3166231450389 L-285.1153359150534,390.91826227518607 L-284.43760392314124,390.91826227518607 Z" fill="hsl(45, 66%, 66%)" fill-opacity="0.25" stroke="black" transform="rotate(36, -284.2281732200088, 391.20651890856914)"/><path d="M-459.89084483026693,-150.3604116631377 L-459.6814141271345,-149.71585023592797 L-459.00368213522233,-149.71585023592797 L-459.55197883431083,-149.3174893660752 L-459.3425481311784,-148.67292793886543 L-459.89084483026693,-149.0712888087182 L-460.4391415293555,-148.67292793886543 L-460.229710826223,-149.3174893660752 L-460.7780075253115,-149.71585023592797 L-460.1002755333994,-149.71585023592797 Z" fill="hsl(45, 66%, 66%)" fill-opacity="0.25" stroke="black" transform="rotate(36, -459.89084483026693, -149.4275936025449)"/></g><g id="ring-11"><path d="M2.9666497330335537e-14,-484.49066867264105 L108.77493231288318,-149.71585023592806 L460.77800752531147,-149.71585023592803 L176.00153760621419,57.18636613553555 L284.77646991909734,391.96118457224856 L1.133159365303016e-14,185.05896820078502 L-284.7764699190973,391.96118457224856 L-176.00153760621419,57.18636613553557 L-460.7780075253115,-149.71585023592797 L-108.77493231288321,-149.71585023592806 Z" stroke="black" fill="none"/><path d="M2.9701798586676095e-14,-485.0671819394072 L0.12943529282366914,-484.6688210695544 L0.548296699088557,-484.6688210695544 L0.20943070313247367,-484.4226205121974 L0.33886599595611305,-484.02425964234465 L2.967998121041206e-14,-484.27046019970163 L-0.3388659959560537,-484.02425964234465 L-0.20943070313241433,-484.4226205121974 L-0.5482966990884978,-484.6688210695544 L-0.12943529282360983,-484.6688210695544 Z" fill="hsl(45, 66%, 66%)" fill-opacity="0.25" stroke="black" transform="rotate(36, 2.9666497330335537e-14, -484.49066867264105)"/><path d="M460.77800752531147,-150.29236350269414 L460.9074428181351,-149.8940026328414 L461.3263042244,-149.8940026328414 L460.9874382284439,-149.6478020754844 L461.11687352126756,-149.24944120563163 L460.77800752531147,-149.4956417629886 L460.43914152935537,-149.24944120563163 L460.568576822179,-149.6478020754844 L460.2297108262229,-149.8940026328414 L460.6485722324878,-149.8940026328414 Z" fill="hsl(45, 66%, 66%)" fill-opacity="0.25" stroke="black" transform="rotate(36, 460.77800752531147, -149.71585023592803)"/><path d="M284.77646991909734,391.3846713054824 L284.905905211921,391.7830321753352 L285.3247666181859,391.7830321753352 L284.9859006222298,392.0292327326922 L285.11533591505344,392.42759360254496 L284.77646991909734,392.181393045188 L284.43760392314124,392.42759360254496 L284.5670392159649,392.0292327326922 L284.2281732200088,391.7830321753352 L284.6470346262737,391.7830321753352 Z" fill="hsl(45, 66%, 66%)" fill-opacity="0.25" stroke="black" transform="rotate(36, 284.77646991909734, 391.96118457224856)"/><path d="M-284.7764699190973,391.3846713054824 L-284.64703462627364,391.7830321753352 L-284.2281732200087,391.7830321753352 L-284.5670392159648,392.0292327326922 L-284.4376039231412,392.42759360254496 L-284.7764699190973,392.181393045188 L-285.1153359150534,392.42759360254496 L-284.98590062222974,392.0292327326922 L-285.32476661818583,391.7830321753352 L-284.9059052119209,391.7830321753352 Z" fill="hsl(45, 66%, 66%)" fill-opacity="0.25" stroke="black" transform="rotate(36, -284.7764699190973, 391.96118457224856)"/><path d="M-460.7780075253115,-150.2923635026941 L-460.6485722324879,-149.89400263284134 L-460.22971082622297,-149.89400263284134 L-460.56857682217907,-149.64780207548435 L-460.4391415293554,-149.24944120563157 L-460.7780075253115,-149.49564176298856 L-461.1168735212676,-149.24944120563157 L-460.987438228444,-149.64780207548435 L-461.3263042244001,-149.89400263284134 L-460.90744281813517,-149.89400263284134 Z" fill="hsl(45, 66%, 66%)" fill-opacity="0.25" stroke="black" transform="rotate(36, -460.7780075253115, -149.71585023592797)"/></g></g><use href="#starStar" transform="rotate(36)"/></svg>