<svg id="Cardioid" viewBox="-540 -540 1080 1080" xmlns="http://www.w3.org/2000/svg"><defs><g id="cardioid" transform="rotate(90, 0, 0)"><circle cx="0" cy="0" r="3.5124273024984096" stroke="hsl(0, 100%, 50%)" fill="hsl(0, 100%, 50%)"/><circle cx="0.2956" cy="0.0155" r="3.5124273024984096" stroke="hsl(3, 100%, 50%)" fill="hsl(3, 100%, 50%)"/><circle cx="1.1768" cy="0.1237" r="3.5124273024984096" stroke="hsl(6, 100%, 50%)" fill="hsl(6, 100%, 50%)"/><circle cx="2.6266" cy="0.416" r="3.5124273024984096" stroke="hsl(9, 100%, 50%)" fill="hsl(9, 100%, 50%)"/><circle cx="4.617" cy="0.9814" r="3.5124273024984096" stroke="hsl(12, 100%, 50%)" fill="hsl(12, 100%, 50%)"/><circle cx="7.1092" cy="1.9049" r="3.5124273024984096" stroke="hsl(15, 100%, 50%)" fill="hsl(15, 100%, 50%)"/><circle cx="10.0544" cy="3.2669" r="3.5124273024984096" stroke="hsl(18, 100%, 50%)" fill="hsl(18, 100%, 50%)"/><circle cx="13.3937" cy="5.1414" r="3.5124273024984096" stroke="hsl(21, 100%, 50%)" fill="hsl(21, 100%, 50%)"/><circle cx="17.0597" cy="7.5955" r="3.5124273024984096" stroke="hsl(24, 100%, 50%)" fill="hsl(24, 100%, 50%)"/><circle cx="20.9766" cy="10.6881" r="3.5124273024984096" stroke="hsl(27, 100%, 50%)" fill="hsl(27, 100%, 50%)"/><circle cx="25.0615" cy="14.4693" r="3.5124273024984096" stroke="hsl(30, 100%, 50%)" fill="hsl(30, 100%, 50%)"/><circle cx="29.2253" cy="18.9791" r="3.5124273024984096" stroke="hsl(33, 100%, 50%)" fill="hsl(33, 100%, 50%)"/><circle cx="33.3738" cy="24.2475" r="3.5124273024984096" stroke="hsl(36, 100%, 50%)" fill="hsl(36, 100%, 50%)"/><circle cx="37.4091" cy="30.2933" r="3.5124273024984096" stroke="hsl(39, 100%, 50%)" fill="hsl(39, 100%, 50%)"/><circle cx="41.2302" cy="37.1238" r="3.5124273024984096" stroke="hsl(42, 100%, 50%)" fill="hsl(42, 100%, 50%)"/><circle cx="44.7351" cy="44.7351" r="3.5124273024984096" stroke="hsl(45, 100%, 50%)" fill="hsl(45, 100%, 50%)"/><circle cx="47.8213" cy="53.1109" r="3.5124273024984096" stroke="hsl(48, 100%, 50%)" fill="hsl(48, 100%, 50%)"/><circle cx="50.3877" cy="62.2236" r="3.5124273024984096" stroke="hsl(51, 100%, 50%)" fill="hsl(51, 100%, 50%)"/><circle cx="52.3354" cy="72.0336" r="3.5124273024984096" stroke="hsl(54, 100%, 50%)" fill="hsl(54, 100%, 50%)"/><circle cx="53.5696" cy="82.4899" r="3.5124273024984096" stroke="hsl(57, 100%, 50%)" fill="hsl(57, 100%, 50%)"/><circle cx="54" cy="93.5307" r="3.5124273024984096" stroke="hsl(60, 100%, 50%)" fill="hsl(60, 100%, 50%)"/><circle cx="53.5428" cy="105.0836" r="3.5124273024984096" stroke="hsl(63, 100%, 50%)" fill="hsl(63, 100%, 50%)"/><circle cx="52.1212" cy="117.0662" r="3.5124273024984096" stroke="hsl(66, 100%, 50%)" fill="hsl(66, 100%, 50%)"/><circle cx="49.6671" cy="129.3873" r="3.5124273024984096" stroke="hsl(69, 100%, 50%)" fill="hsl(69, 100%, 50%)"/><circle cx="46.1215" cy="141.9474" r="3.5124273024984096" stroke="hsl(72, 100%, 50%)" fill="hsl(72, 100%, 50%)"/><circle cx="41.4357" cy="154.64" r="3.5124273024984096" stroke="hsl(75, 100%, 50%)" fill="hsl(75, 100%, 50%)"/><circle cx="35.5718" cy="167.3523" r="3.5124273024984096" stroke="hsl(78, 100%, 50%)" fill="hsl(78, 100%, 50%)"/><circle cx="28.5039" cy="179.9668" r="3.5124273024984096" stroke="hsl(81, 100%, 50%)" fill="hsl(81, 100%, 50%)"/><circle cx="20.2181" cy="192.3623" r="3.5124273024984096" stroke="hsl(84, 100%, 50%)" fill="hsl(84, 100%, 50%)"/><circle cx="10.7129" cy="204.4149" r="3.5124273024984096" stroke="hsl(87, 100%, 50%)" fill="hsl(87, 100%, 50%)"/><circle cx="0" cy="216" r="3.5124273024984096" stroke="hsl(90, 100%, 50%)" fill="hsl(90, 100%, 50%)"/><circle cx="-11.8962" cy="226.9931" r="3.5124273024984096" stroke="hsl(93, 100%, 50%)" fill="hsl(93, 100%, 50%)"/><circle cx="-24.9382" cy="237.2712" r="3.5124273024984096" stroke="hsl(96, 100%, 50%)" fill="hsl(96, 100%, 50%)"/><circle cx="-39.0757" cy="246.7145" r="3.5124273024984096" stroke="hsl(99, 100%, 50%)" fill="hsl(99, 100%, 50%)"/><circle cx="-54.246" cy="255.2074" r="3.5124273024984096" stroke="hsl(102, 100%, 50%)" fill="hsl(102, 100%, 50%)"/><circle cx="-70.3742" cy="262.64" r="3.5124273024984096" stroke="hsl(105, 100%, 50%)" fill="hsl(105, 100%, 50%)"/><circle cx="-87.3738" cy="268.909" r="3.5124273024984096" stroke="hsl(108, 100%, 50%)" fill="hsl(108, 100%, 50%)"/><circle cx="-105.1478" cy="273.9195" r="3.5124273024984096" stroke="hsl(111, 100%, 50%)" fill="hsl(111, 100%, 50%)"/><circle cx="-123.589" cy="277.5855" r="3.5124273024984096" stroke="hsl(114, 100%, 50%)" fill="hsl(114, 100%, 50%)"/><circle cx="-142.5811" cy="279.8312" r="3.5124273024984096" stroke="hsl(117, 100%, 50%)" fill="hsl(117, 100%, 50%)"/><circle cx="-162" cy="280.5922" r="3.5124273024984096" stroke="hsl(120, 100%, 50%)" fill="hsl(120, 100%, 50%)"/><circle cx="-181.7145" cy="279.8158" r="3.5124273024984096" stroke="hsl(123, 100%, 50%)" fill="hsl(123, 100%, 50%)"/><circle cx="-201.5878" cy="277.4618" r="3.5124273024984096" stroke="hsl(126, 100%, 50%)" fill="hsl(126, 100%, 50%)"/><circle cx="-221.4787" cy="273.5035" r="3.5124273024984096" stroke="hsl(129, 100%, 50%)" fill="hsl(129, 100%, 50%)"/><circle cx="-241.2431" cy="267.9276" r="3.5124273024984096" stroke="hsl(132, 100%, 50%)" fill="hsl(132, 100%, 50%)"/><circle cx="-260.7351" cy="260.7351" r="3.5124273024984096" stroke="hsl(135, 100%, 50%)" fill="hsl(135, 100%, 50%)"/><circle cx="-279.8084" cy="251.9406" r="3.5124273024984096" stroke="hsl(138, 100%, 50%)" fill="hsl(138, 100%, 50%)"/><circle cx="-298.318" cy="241.5731" r="3.5124273024984096" stroke="hsl(141, 100%, 50%)" fill="hsl(141, 100%, 50%)"/><circle cx="-316.1215" cy="229.6757" r="3.5124273024984096" stroke="hsl(144, 100%, 50%)" fill="hsl(144, 100%, 50%)"/><circle cx="-333.0804" cy="216.3049" r="3.5124273024984096" stroke="hsl(147, 100%, 50%)" fill="hsl(147, 100%, 50%)"/><circle cx="-349.0615" cy="201.5307" r="3.5124273024984096" stroke="hsl(150, 100%, 50%)" fill="hsl(150, 100%, 50%)"/><circle cx="-363.9382" cy="185.4358" r="3.5124273024984096" stroke="hsl(153, 100%, 50%)" fill="hsl(153, 100%, 50%)"/><circle cx="-377.5919" cy="168.1148" r="3.5124273024984096" stroke="hsl(156, 100%, 50%)" fill="hsl(156, 100%, 50%)"/><circle cx="-389.913" cy="149.6736" r="3.5124273024984096" stroke="hsl(159, 100%, 50%)" fill="hsl(159, 100%, 50%)"/><circle cx="-400.802" cy="130.2285" r="3.5124273024984096" stroke="hsl(162, 100%, 50%)" fill="hsl(162, 100%, 50%)"/><circle cx="-410.1707" cy="109.9049" r="3.5124273024984096" stroke="hsl(165, 100%, 50%)" fill="hsl(165, 100%, 50%)"/><circle cx="-417.9428" cy="88.8365" r="3.5124273024984096" stroke="hsl(168, 100%, 50%)" fill="hsl(168, 100%, 50%)"/><circle cx="-424.0548" cy="67.1637" r="3.5124273024984096" stroke="hsl(171, 100%, 50%)" fill="hsl(171, 100%, 50%)"/><circle cx="-428.4567" cy="45.0326" r="3.5124273024984096" stroke="hsl(174, 100%, 50%)" fill="hsl(174, 100%, 50%)"/><circle cx="-431.1123" cy="22.5936" r="3.5124273024984096" stroke="hsl(177, 100%, 50%)" fill="hsl(177, 100%, 50%)"/><circle cx="-432" cy="0" r="3.5124273024984096" stroke="hsl(180, 100%, 50%)" fill="hsl(180, 100%, 50%)"/><circle cx="-431.1123" cy="-22.5936" r="3.5124273024984096" stroke="hsl(183, 100%, 50%)" fill="hsl(183, 100%, 50%)"/><circle cx="-428.4567" cy="-45.0326" r="3.5124273024984096" stroke="hsl(186, 100%, 50%)" fill="hsl(186, 100%, 50%)"/><circle cx="-424.0548" cy="-67.1637" r="3.5124273024984096" stroke="hsl(189, 100%, 50%)" fill="hsl(189, 100%, 50%)"/><circle cx="-417.9428" cy="-88.8365" r="3.5124273024984096" stroke="hsl(192, 100%, 50%)" fill="hsl(192, 100%, 50%)"/><circle cx="-410.1707" cy="-109.9049" r="3.5124273024984096" stroke="hsl(195, 100%, 50%)" fill="hsl(195, 100%, 50%)"/><circle cx="-400.802" cy="-130.2285" r="3.5124273024984096" stroke="hsl(198, 100%, 50%)" fill="hsl(198, 100%, 50%)"/><circle cx="-389.913" cy="-149.6736" r="3.5124273024984096" stroke="hsl(201, 100%, 50%)" fill="hsl(201, 100%, 50%)"/><circle cx="-377.5919" cy="-168.1148" r="3.5124273024984096" stroke="hsl(204, 100%, 50%)" fill="hsl(204, 100%, 50%)"/><circle cx="-363.9382" cy="-185.4358" r="3.5124273024984096" stroke="hsl(207, 100%, 50%)" fill="hsl(207, 100%, 50%)"/><circle cx="-349.0615" cy="-201.5307" r="3.5124273024984096" stroke="hsl(210, 100%, 50%)" fill="hsl(210, 100%, 50%)"/><circle cx="-333.0804" cy="-216.3049" r="3.5124273024984096" stroke="hsl(213, 100%, 50%)" fill="hsl(213, 100%, 50%)"/><circle cx="-316.1215" cy="-229.6757" r="3.5124273024984096" stroke="hsl(216, 100%, 50%)" fill="hsl(216, 100%, 50%)"/><circle cx="-298.318" cy="-241.5731" r="3.5124273024984096" stroke="hsl(219, 100%, 50%)" fill="hsl(219, 100%, 50%)"/><circle cx="-279.8084" cy="-251.9406" r="3.5124273024984096" stroke="hsl(222, 100%, 50%)" fill="hsl(222, 100%, 50%)"/><circle cx="-260.7351" cy="-260.7351" r="3.5124273024984096" stroke="hsl(225, 100%, 50%)" fill="hsl(225, 100%, 50%)"/><circle cx="-241.2431" cy="-267.9276" r="3.5124273024984096" stroke="hsl(228, 100%, 50%)" fill="hsl(228, 100%, 50%)"/><circle cx="-221.4787" cy="-273.5035" r="3.5124273024984096" stroke="hsl(231, 100%, 50%)" fill="hsl(231, 100%, 50%)"/><circle cx="-201.5878" cy="-277.4618" r="3.5124273024984096" stroke="hsl(234, 100%, 50%)" fill="hsl(234, 100%, 50%)"/><circle cx="-181.7145" cy="-279.8158" r="3.5124273024984096" stroke="hsl(237, 100%, 50%)" fill="hsl(237, 100%, 50%)"/><circle cx="-162" cy="-280.5922" r="3.5124273024984096" stroke="hsl(240, 100%, 50%)" fill="hsl(240, 100%, 50%)"/><circle cx="-142.5811" cy="-279.8312" r="3.5124273024984096" stroke="hsl(243, 100%, 50%)" fill="hsl(243, 100%, 50%)"/><circle cx="-123.589" cy="-277.5855" r="3.5124273024984096" stroke="hsl(246, 100%, 50%)" fill="hsl(246, 100%, 50%)"/><circle cx="-105.1478" cy="-273.9195" r="3.5124273024984096" stroke="hsl(249, 100%, 50%)" fill="hsl(249, 100%, 50%)"/><circle cx="-87.3738" cy="-268.909" r="3.5124273024984096" stroke="hsl(252, 100%, 50%)" fill="hsl(252, 100%, 50%)"/><circle cx="-70.3742" cy="-262.64" r="3.5124273024984096" stroke="hsl(255, 100%, 50%)" fill="hsl(255, 100%, 50%)"/><circle cx="-54.246" cy="-255.2074" r="3.5124273024984096" stroke="hsl(258, 100%, 50%)" fill="hsl(258, 100%, 50%)"/><circle cx="-39.0757" cy="-246.7145" r="3.5124273024984096" stroke="hsl(261, 100%, 50%)" fill="hsl(261, 100%, 50%)"/><circle cx="-24.9382" cy="-237.2712" r="3.5124273024984096" stroke="hsl(264, 100%, 50%)" fill="hsl(264, 100%, 50%)"/><circle cx="-11.8962" cy="-226.9931" r="3.5124273024984096" stroke="hsl(267, 100%, 50%)" fill="hsl(267, 100%, 50%)"/><circle cx="0" cy="-216" r="3.5124273024984096" stroke="hsl(270, 100%, 50%)" fill="hsl(270, 100%, 50%)"/><circle cx="10.7129" cy="-204.4149" r="3.5124273024984096" stroke="hsl(273, 100%, 50%)" fill="hsl(273, 100%, 50%)"/><circle cx="20.2181" cy="-192.3623" r="3.5124273024984096" stroke="hsl(276, 100%, 50%)" fill="hsl(276, 100%, 50%)"/><circle cx="28.5039" cy="-179.9668" r="3.5124273024984096" stroke="hsl(279, 100%, 50%)" fill="hsl(279, 100%, 50%)"/><circle cx="35.5718" cy="-167.3523" r="3.5124273024984096" stroke="hsl(282, 100%, 50%)" fill="hsl(282, 100%, 50%)"/><circle cx="41.4357" cy="-154.64" r="3.5124273024984096" stroke="hsl(285, 100%, 50%)" fill="hsl(285, 100%, 50%)"/><circle cx="46.1215" cy="-141.9474" r="3.5124273024984096" stroke="hsl(288, 100%, 50%)" fill="hsl(288, 100%, 50%)"/><circle cx="49.6671" cy="-129.3873" r="3.5124273024984096" stroke="hsl(291, 100%, 50%)" fill="hsl(291, 100%, 50%)"/><circle cx="52.1212" cy="-117.0662" r="3.5124273024984096" stroke="hsl(294, 100%, 50%)" fill="hsl(294, 100%, 50%)"/><circle cx="53.5428" cy="-105.0836" r="3.5124273024984096" stroke="hsl(297, 100%, 50%)" fill="hsl(297, 100%, 50%)"/><circle cx="54" cy="-93.5307" r="3.5124273024984096" stroke="hsl(300, 100%, 50%)" fill="hsl(300, 100%, 50%)"/><circle cx="53.5696" cy="-82.4899" r="3.5124273024984096" stroke="hsl(303, 100%, 50%)" fill="hsl(303, 100%, 50%)"/><circle cx="52.3354" cy="-72.0336" r="3.5124273024984096" stroke="hsl(306, 100%, 50%)" fill="hsl(306, 100%, 50%)"/><circle cx="50.3877" cy="-62.2236" r="3.5124273024984096" stroke="hsl(309, 100%, 50%)" fill="hsl(309, 100%, 50%)"/><circle cx="47.8213" cy="-53.1109" r="3.5124273024984096" stroke="hsl(312, 100%, 50%)" fill="hsl(312, 100%, 50%)"/><circle cx="44.7351" cy="-44.7351" r="3.5124273024984096" stroke="hsl(315, 100%, 50%)" fill="hsl(315, 100%, 50%)"/><circle cx="41.2302" cy="-37.1238" r="3.5124273024984096" stroke="hsl(318, 100%, 50%)" fill="hsl(318, 100%, 50%)"/><circle cx="37.4091" cy="-30.2933" r="3.5124273024984096" stroke="hsl(321, 100%, 50%)" fill="hsl(321, 100%, 50%)"/><circle cx="33.3738" cy="-24.2475" r="3.5124273024984096" stroke="hsl(324, 100%, 50%)" fill="hsl(324, 100%, 50%)"/><circle cx="29.2253" cy="-18.9791" r="3.5124273024984096" stroke="hsl(327, 100%, 50%)" fill="hsl(327, 100%, 50%)"/><circle cx="25.0615" cy="-14.4693" r="3.5124273024984096" stroke="hsl(330, 100%, 50%)" fill="hsl(330, 100%, 50%)"/><circle cx="20.9766" cy="-10.6881" r="3.5124273024984096" stroke="hsl(333, 100%, 50%)" fill="hsl(333, 100%, 50%)"/><circle cx="17.0597" cy="-7.5955" r="3.5124273024984096" stroke="hsl(336, 100%, 50%)" fill="hsl(336, 100%, 50%)"/><circle cx="13.3937" cy="-5.1414" r="3.5124273024984096" stroke="hsl(339, 100%, 50%)" fill="hsl(339, 100%, 50%)"/><circle cx="10.0544" cy="-3.2669" r="3.5124273024984096" stroke="hsl(342, 100%, 50%)" fill="hsl(342, 100%, 50%)"/><circle cx="7.1092" cy="-1.9049" r="3.5124273024984096" stroke="hsl(345, 100%, 50%)" fill="hsl(345, 100%, 50%)"/><circle cx="4.617" cy="-0.9814" r="3.5124273024984096" stroke="hsl(348, 100%, 50%)" fill="hsl(348, 100%, 50%)"/><circle cx="2.6266" cy="-0.416" r="3.5124273024984096" stroke="hsl(351, 100%, 50%)" fill="hsl(351, 100%, 50%)"/><circle cx="1.1768" cy="-0.1237" r="3.5124273024984096" stroke="hsl(354, 100%, 50%)" fill="hsl(354, 100%, 50%)"/><circle cx="0.2956" cy="-0.0155" r="3.5124273024984096" stroke="hsl(357, 100%, 50%)" fill="hsl(357, 100%, 50%)"/></g></defs><use xmlns:xlink="http://www.w3.org/1999/xlink" xlink:href="#cardioid" transform="rotate(0, 0, 0)"/><use xmlns:xlink="http://www.w3.org/1999/xlink" xlink:href="#cardioid" transform="rotate(24, 0, 0)"/><use xmlns:xlink="http://www.w3.org/1999/xlink" xlink:href="#cardioid" transform="rotate(48, 0, 0)"/><use xmlns:xlink="http://www.w3.org/1999/xlink" xlink:href="#cardioid" transform="rotate(72, 0, 0)"/><use xmlns:xlink="http://www.w3.org/1999/xlink" xlink:href="#cardioid" transform="rotate(96, 0, 0)"/><use xmlns:xlink="http://www.w3.org/1999/xlink" xlink:href="#cardioid" transform="rotate(120, 0, 0)"/><use xmlns:xlink="http://www.w3.org/1999/xlink" xlink:href="#cardioid" transform="rotate(144, 0, 0)"/><use xmlns:xlink="http://www.w3.org/1999/xlink" xlink:href="#cardioid" transform="rotate(168, 0, 0)"/><use xmlns:xlink="http://www.w3.org/1999/xlink" xlink:href="#cardioid" transform="rotate(192, 0, 0)"/><use xmlns:xlink="http://www.w3.org/1999/xlink" xlink:href="#cardioid" transform="rotate(216, 0, 0)"/><use xmlns:xlink="http://www.w3.org/1999/xlink" xlink:href="#cardioid" transform="rotate(240, 0, 0)"/><use xmlns:xlink="http://www.w3.org/1999/xlink" xlink:href="#cardioid" transform="rotate(264, 0, 0)"/><use xmlns:xlink="http://www.w3.org/1999/xlink" xlink:href="#cardioid" transform="rotate(288, 0, 0)"/><use xmlns:xlink="http://www.w3.org/1999/xlink" xlink:href="#cardioid" transform="rotate(312, 0, 0)"/><use xmlns:xlink="http://www.w3.org/1999/xlink" xlink:href="#cardioid" transform="rotate(336, 0, 0)"/></svg>