<svg id="DRLogo" xmlns="http://www.w3.org/2000/svg" viewBox="-540 -540 1080 1080"><defs><filter x="-540" y="-540" width="1080" height="1080" id="shine"><feGaussianBlur in="SourceAlpha" stdDeviation="37.197202048523685" result="blur"/><feOffset in="blur" dx="0" dy="22.989135152384858" result="offset"/><feSpecularLighting in="blur" lighting-color="white" surfaceScale="10" specularConstant="0.5" specularExponent="50" result="lighting"><fePointLight x="270" y="-540" z="540"/></feSpecularLighting><feComposite in="lighting" in2="SourceAlpha" operator="in" result="composite1"/><feComposite in="composite1" in2="SourceGraphic" operator="arithmetic" k2="1" k3="1" result="composite2"/><feComposite in="composite2" in2="offset" operator="darken"/></filter></defs><path d="M-540,-540H1080V1080H-540Z" fill="hsl(240, 100%, 5%)"/><circle r="412.5232921501136" stroke="hsl(225, 100%, 75%)" fill="none" stroke-width="22.989135152384858"/><circle r="254.95341569977293" stroke="hsl(225, 100%, 75%)" fill="none" stroke-width="22.989135152384858"/><circle r="157.56987645034073" stroke="hsl(225, 100%, 75%)" fill="none" stroke-width="22.989135152384858"/><g><path d="M0,0L2.5259766465268255e-14,-412.5232921501136" stroke="white"/></g><g><path d="M0,0L85.76841517263867,-403.50866846344434" stroke="white"/></g><g><path d="M0,0L167.7883390397148,-376.85877971550786" stroke="white"/></g><g><path d="M0,0L242.47510735297612,-333.7383539249433" stroke="white"/></g><g><path d="M0,0L306.5645499502563,-276.03196061355794" stroke="white"/></g><g><path d="M0,0L357.25565065478804,-206.2616460750568" stroke="white"/></g><g><path d="M0,0L392.3329651228949,-127.47670784988644" stroke="white"/></g><g><path d="M0,0L410.2634463926909,-43.12042579056469" stroke="white"/></g><g><path d="M0,0L410.2634463926909,43.120425790564596" stroke="white"/></g><g><path d="M0,0L392.3329651228949,127.47670784988644" stroke="white"/></g><g><path d="M0,0L357.2556506547881,206.26164607505675" stroke="white"/></g><g><path d="M0,0L306.5645499502564,276.0319606135578" stroke="white"/></g><g><path d="M0,0L242.47510735297612,333.7383539249433" stroke="white"/></g><g><path d="M0,0L167.78833903971488,376.85877971550786" stroke="white"/></g><g><path d="M0,0L85.76841517263877,403.50866846344434" stroke="white"/></g><g><path d="M0,0L2.5259766465268255e-14,412.5232921501136" stroke="white"/></g><g><path d="M0,0L-85.76841517263854,403.5086684634444" stroke="white"/></g><g><path d="M0,0L-167.78833903971469,376.858779715508" stroke="white"/></g><g><path d="M0,0L-242.4751073529761,333.7383539249433" stroke="white"/></g><g><path d="M0,0L-306.56454995025626,276.031960613558" stroke="white"/></g><g><path d="M0,0L-357.25565065478804,206.26164607505694" stroke="white"/></g><g><path d="M0,0L-392.3329651228949,127.47670784988648" stroke="white"/></g><g><path d="M0,0L-410.2634463926909,43.12042579056492" stroke="white"/></g><g><path d="M0,0L-410.263446392691,-43.12042579056446" stroke="white"/></g><g><path d="M0,0L-392.33296512289496,-127.4767078498864" stroke="white"/></g><g><path d="M0,0L-357.25565065478827,-206.26164607505655" stroke="white"/></g><g><path d="M0,0L-306.5645499502564,-276.0319606135578" stroke="white"/></g><g><path d="M0,0L-242.47510735297618,-333.7383539249432" stroke="white"/></g><g><path d="M0,0L-167.7883390397151,-376.85877971550775" stroke="white"/></g><g><path d="M0,0L-85.76841517263881,-403.50866846344434" stroke="white"/></g><path id="star" d="M2.5259766465268255e-14,-412.5232921501136 L92.61724958305734,-127.47670784988647 L392.3329651228949,-127.47670784988644 L149.8578577699188,48.691769624716095 L242.47510735297612,333.7383539249433 L9.648372241847684e-15,157.56987645034073 L-242.4751073529761,333.7383539249433 L-149.8578577699188,48.691769624716116 L-392.33296512289496,-127.4767078498864 L-92.61724958305736,-127.47670784988645 Z" stroke="hsl(225, 100%, 75%)" fill="none" stroke-width="22.989135152384858"/><g id="DR" opacity="0.9"><path id="D" d="M2.5259766465268255e-14,-412.5232921501136 A412.5232921501136,412.5232921501136 0 1 1 -242.4751073529761,333.7383539249433 Z" fill="none" stroke="hsl(225, 100%, 50%)" stroke-width="97.38353924943222" filter="url(#shine)"/><path id="R" d="M-220.7961347776178,-127.47670784988631 A254.95341569977293,254.95341569977293 0 1 1 189.46731161507336,170.59713364045106 L242.47510735297612,333.7383539249433 L9.648372241847684e-15,157.56987645034073 L-103.69889644243457,232.9115348229934 A254.95341569977293,254.95341569977293 0 0 1 -189.46731161507327,170.59713364045115 L-92.61724958305736,-127.47670784988645 Z" fill="none" stroke="hsl(45, 100%, 50%)" stroke-width="97.38353924943222" filter="url(#shine)"/></g></svg>