<svg xmlns="http://www.w3.org/2000/svg" viewBox="0 0 1080 1080" id="Metatron"><defs><filter id="glow"><feFlood flood-color="hsl(270, 100%, 50%)" flood-opacity="1" result="flood"/><feComposite in="flood" in2="SourceGraphic" operator="in" result="mask"/><feMorphology in="mask" operator="dilate" radius="2" result="dilate"/><feGaussianBlur in="dilate" stdDeviation="2" result="blur"/><feFlood flood-color="hsl(240, 100%, 50%)" flood-opacity="1" result="flood2"/><feComposite in="flood2" in2="SourceGraphic" operator="in" result="mask2"/><feMorphology in="mask2" operator="dilate" radius="4" result="dilate2"/><feGaussianBlur in="dilate2" stdDeviation="6" result="blur2"/><feMerge><feMergeNode in="blur"/><feMergeNode in="blur2"/><feMergeNode in="SourceGraphic"/></feMerge></filter><radialGradient id="radialGradient" cx="25%" cy="50%" gradientTransform="scale(2, 1)"><stop offset="0%" stop-color="hsl(240, 100%, 50%)"/><stop offset="100%" stop-color="hsl(240, 100%, 5%)" stop-opacity="0"/></radialGradient><filter id="gridBlur"><feGaussianBlur in="SourceGraphic" stdDeviation="2"/></filter></defs><rect width="1080" height="1080" fill="url(#radialGradient)"/><g id="background" filter="url(#gridBlur)"><line x1="0" y1="0" x2="0" y2="1080" stroke="hsl(270, 100%, 50%)"/><line x1="16" y1="0" x2="16" y2="1080" stroke="hsl(270, 100%, 50%)"/><line x1="32" y1="0" x2="32" y2="1080" stroke="hsl(270, 100%, 50%)"/><line x1="48" y1="0" x2="48" y2="1080" stroke="hsl(270, 100%, 50%)"/><line x1="64" y1="0" x2="64" y2="1080" stroke="hsl(270, 100%, 50%)"/><line x1="80" y1="0" x2="80" y2="1080" stroke="hsl(270, 100%, 50%)"/><line x1="96" y1="0" x2="96" y2="1080" stroke="hsl(270, 100%, 50%)"/><line x1="112" y1="0" x2="112" y2="1080" stroke="hsl(270, 100%, 50%)"/><line x1="128" y1="0" x2="128" y2="1080" stroke="hsl(270, 100%, 50%)"/><line x1="144" y1="0" x2="144" y2="1080" stroke="hsl(270, 100%, 50%)"/><line x1="160" y1="0" x2="160" y2="1080" stroke="hsl(270, 100%, 50%)"/><line x1="176" y1="0" x2="176" y2="1080" stroke="hsl(270, 100%, 50%)"/><line x1="192" y1="0" x2="192" y2="1080" stroke="hsl(270, 100%, 50%)"/><line x1="208" y1="0" x2="208" y2="1080" stroke="hsl(270, 100%, 50%)"/><line x1="224" y1="0" x2="224" y2="1080" stroke="hsl(270, 100%, 50%)"/><line x1="240" y1="0" x2="240" y2="1080" stroke="hsl(270, 100%, 50%)"/><line x1="256" y1="0" x2="256" y2="1080" stroke="hsl(270, 100%, 50%)"/><line x1="272" y1="0" x2="272" y2="1080" stroke="hsl(270, 100%, 50%)"/><line x1="288" y1="0" x2="288" y2="1080" stroke="hsl(270, 100%, 50%)"/><line x1="304" y1="0" x2="304" y2="1080" stroke="hsl(270, 100%, 50%)"/><line x1="320" y1="0" x2="320" y2="1080" stroke="hsl(270, 100%, 50%)"/><line x1="336" y1="0" x2="336" y2="1080" stroke="hsl(270, 100%, 50%)"/><line x1="352" y1="0" x2="352" y2="1080" stroke="hsl(270, 100%, 50%)"/><line x1="368" y1="0" x2="368" y2="1080" stroke="hsl(270, 100%, 50%)"/><line x1="384" y1="0" x2="384" y2="1080" stroke="hsl(270, 100%, 50%)"/><line x1="400" y1="0" x2="400" y2="1080" stroke="hsl(270, 100%, 50%)"/><line x1="416" y1="0" x2="416" y2="1080" stroke="hsl(270, 100%, 50%)"/><line x1="432" y1="0" x2="432" y2="1080" stroke="hsl(270, 100%, 50%)"/><line x1="448" y1="0" x2="448" y2="1080" stroke="hsl(270, 100%, 50%)"/><line x1="464" y1="0" x2="464" y2="1080" stroke="hsl(270, 100%, 50%)"/><line x1="480" y1="0" x2="480" y2="1080" stroke="hsl(270, 100%, 50%)"/><line x1="496" y1="0" x2="496" y2="1080" stroke="hsl(270, 100%, 50%)"/><line x1="512" y1="0" x2="512" y2="1080" stroke="hsl(270, 100%, 50%)"/><line x1="528" y1="0" x2="528" y2="1080" stroke="hsl(270, 100%, 50%)"/><line x1="544" y1="0" x2="544" y2="1080" stroke="hsl(270, 100%, 50%)"/><line x1="560" y1="0" x2="560" y2="1080" stroke="hsl(270, 100%, 50%)"/><line x1="576" y1="0" x2="576" y2="1080" stroke="hsl(270, 100%, 50%)"/><line x1="592" y1="0" x2="592" y2="1080" stroke="hsl(270, 100%, 50%)"/><line x1="608" y1="0" x2="608" y2="1080" stroke="hsl(270, 100%, 50%)"/><line x1="624" y1="0" x2="624" y2="1080" stroke="hsl(270, 100%, 50%)"/><line x1="640" y1="0" x2="640" y2="1080" stroke="hsl(270, 100%, 50%)"/><line x1="656" y1="0" x2="656" y2="1080" stroke="hsl(270, 100%, 50%)"/><line x1="672" y1="0" x2="672" y2="1080" stroke="hsl(270, 100%, 50%)"/><line x1="688" y1="0" x2="688" y2="1080" stroke="hsl(270, 100%, 50%)"/><line x1="704" y1="0" x2="704" y2="1080" stroke="hsl(270, 100%, 50%)"/><line x1="720" y1="0" x2="720" y2="1080" stroke="hsl(270, 100%, 50%)"/><line x1="736" y1="0" x2="736" y2="1080" stroke="hsl(270, 100%, 50%)"/><line x1="752" y1="0" x2="752" y2="1080" stroke="hsl(270, 100%, 50%)"/><line x1="768" y1="0" x2="768" y2="1080" stroke="hsl(270, 100%, 50%)"/><line x1="784" y1="0" x2="784" y2="1080" stroke="hsl(270, 100%, 50%)"/><line x1="800" y1="0" x2="800" y2="1080" stroke="hsl(270, 100%, 50%)"/><line x1="816" y1="0" x2="816" y2="1080" stroke="hsl(270, 100%, 50%)"/><line x1="832" y1="0" x2="832" y2="1080" stroke="hsl(270, 100%, 50%)"/><line x1="848" y1="0" x2="848" y2="1080" stroke="hsl(270, 100%, 50%)"/><line x1="864" y1="0" x2="864" y2="1080" stroke="hsl(270, 100%, 50%)"/><line x1="880" y1="0" x2="880" y2="1080" stroke="hsl(270, 100%, 50%)"/><line x1="896" y1="0" x2="896" y2="1080" stroke="hsl(270, 100%, 50%)"/><line x1="912" y1="0" x2="912" y2="1080" stroke="hsl(270, 100%, 50%)"/><line x1="928" y1="0" x2="928" y2="1080" stroke="hsl(270, 100%, 50%)"/><line x1="944" y1="0" x2="944" y2="1080" stroke="hsl(270, 100%, 50%)"/><line x1="960" y1="0" x2="960" y2="1080" stroke="hsl(270, 100%, 50%)"/><line x1="976" y1="0" x2="976" y2="1080" stroke="hsl(270, 100%, 50%)"/><line x1="992" y1="0" x2="992" y2="1080" stroke="hsl(270, 100%, 50%)"/><line x1="1008" y1="0" x2="1008" y2="1080" stroke="hsl(270, 100%, 50%)"/><line x1="1024" y1="0" x2="1024" y2="1080" stroke="hsl(270, 100%, 50%)"/><line x1="1040" y1="0" x2="1040" y2="1080" stroke="hsl(270, 100%, 50%)"/><line x1="1056" y1="0" x2="1056" y2="1080" stroke="hsl(270, 100%, 50%)"/><line x1="1072" y1="0" x2="1072" y2="1080" stroke="hsl(270, 100%, 50%)"/><line x1="0" y1="0" x2="1080" y2="0" stroke="hsl(270, 100%, 50%)"/><line x1="0" y1="16" x2="1080" y2="16" stroke="hsl(270, 100%, 50%)"/><line x1="0" y1="32" x2="1080" y2="32" stroke="hsl(270, 100%, 50%)"/><line x1="0" y1="48" x2="1080" y2="48" stroke="hsl(270, 100%, 50%)"/><line x1="0" y1="64" x2="1080" y2="64" stroke="hsl(270, 100%, 50%)"/><line x1="0" y1="80" x2="1080" y2="80" stroke="hsl(270, 100%, 50%)"/><line x1="0" y1="96" x2="1080" y2="96" stroke="hsl(270, 100%, 50%)"/><line x1="0" y1="112" x2="1080" y2="112" stroke="hsl(270, 100%, 50%)"/><line x1="0" y1="128" x2="1080" y2="128" stroke="hsl(270, 100%, 50%)"/><line x1="0" y1="144" x2="1080" y2="144" stroke="hsl(270, 100%, 50%)"/><line x1="0" y1="160" x2="1080" y2="160" stroke="hsl(270, 100%, 50%)"/><line x1="0" y1="176" x2="1080" y2="176" stroke="hsl(270, 100%, 50%)"/><line x1="0" y1="192" x2="1080" y2="192" stroke="hsl(270, 100%, 50%)"/><line x1="0" y1="208" x2="1080" y2="208" stroke="hsl(270, 100%, 50%)"/><line x1="0" y1="224" x2="1080" y2="224" stroke="hsl(270, 100%, 50%)"/><line x1="0" y1="240" x2="1080" y2="240" stroke="hsl(270, 100%, 50%)"/><line x1="0" y1="256" x2="1080" y2="256" stroke="hsl(270, 100%, 50%)"/><line x1="0" y1="272" x2="1080" y2="272" stroke="hsl(270, 100%, 50%)"/><line x1="0" y1="288" x2="1080" y2="288" stroke="hsl(270, 100%, 50%)"/><line x1="0" y1="304" x2="1080" y2="304" stroke="hsl(270, 100%, 50%)"/><line x1="0" y1="320" x2="1080" y2="320" stroke="hsl(270, 100%, 50%)"/><line x1="0" y1="336" x2="1080" y2="336" stroke="hsl(270, 100%, 50%)"/><line x1="0" y1="352" x2="1080" y2="352" stroke="hsl(270, 100%, 50%)"/><line x1="0" y1="368" x2="1080" y2="368" stroke="hsl(270, 100%, 50%)"/><line x1="0" y1="384" x2="1080" y2="384" stroke="hsl(270, 100%, 50%)"/><line x1="0" y1="400" x2="1080" y2="400" stroke="hsl(270, 100%, 50%)"/><line x1="0" y1="416" x2="1080" y2="416" stroke="hsl(270, 100%, 50%)"/><line x1="0" y1="432" x2="1080" y2="432" stroke="hsl(270, 100%, 50%)"/><line x1="0" y1="448" x2="1080" y2="448" stroke="hsl(270, 100%, 50%)"/><line x1="0" y1="464" x2="1080" y2="464" stroke="hsl(270, 100%, 50%)"/><line x1="0" y1="480" x2="1080" y2="480" stroke="hsl(270, 100%, 50%)"/><line x1="0" y1="496" x2="1080" y2="496" stroke="hsl(270, 100%, 50%)"/><line x1="0" y1="512" x2="1080" y2="512" stroke="hsl(270, 100%, 50%)"/><line x1="0" y1="528" x2="1080" y2="528" stroke="hsl(270, 100%, 50%)"/><line x1="0" y1="544" x2="1080" y2="544" stroke="hsl(270, 100%, 50%)"/><line x1="0" y1="560" x2="1080" y2="560" stroke="hsl(270, 100%, 50%)"/><line x1="0" y1="576" x2="1080" y2="576" stroke="hsl(270, 100%, 50%)"/><line x1="0" y1="592" x2="1080" y2="592" stroke="hsl(270, 100%, 50%)"/><line x1="0" y1="608" x2="1080" y2="608" stroke="hsl(270, 100%, 50%)"/><line x1="0" y1="624" x2="1080" y2="624" stroke="hsl(270, 100%, 50%)"/><line x1="0" y1="640" x2="1080" y2="640" stroke="hsl(270, 100%, 50%)"/><line x1="0" y1="656" x2="1080" y2="656" stroke="hsl(270, 100%, 50%)"/><line x1="0" y1="672" x2="1080" y2="672" stroke="hsl(270, 100%, 50%)"/><line x1="0" y1="688" x2="1080" y2="688" stroke="hsl(270, 100%, 50%)"/><line x1="0" y1="704" x2="1080" y2="704" stroke="hsl(270, 100%, 50%)"/><line x1="0" y1="720" x2="1080" y2="720" stroke="hsl(270, 100%, 50%)"/><line x1="0" y1="736" x2="1080" y2="736" stroke="hsl(270, 100%, 50%)"/><line x1="0" y1="752" x2="1080" y2="752" stroke="hsl(270, 100%, 50%)"/><line x1="0" y1="768" x2="1080" y2="768" stroke="hsl(270, 100%, 50%)"/><line x1="0" y1="784" x2="1080" y2="784" stroke="hsl(270, 100%, 50%)"/><line x1="0" y1="800" x2="1080" y2="800" stroke="hsl(270, 100%, 50%)"/><line x1="0" y1="816" x2="1080" y2="816" stroke="hsl(270, 100%, 50%)"/><line x1="0" y1="832" x2="1080" y2="832" stroke="hsl(270, 100%, 50%)"/><line x1="0" y1="848" x2="1080" y2="848" stroke="hsl(270, 100%, 50%)"/><line x1="0" y1="864" x2="1080" y2="864" stroke="hsl(270, 100%, 50%)"/><line x1="0" y1="880" x2="1080" y2="880" stroke="hsl(270, 100%, 50%)"/><line x1="0" y1="896" x2="1080" y2="896" stroke="hsl(270, 100%, 50%)"/><line x1="0" y1="912" x2="1080" y2="912" stroke="hsl(270, 100%, 50%)"/><line x1="0" y1="928" x2="1080" y2="928" stroke="hsl(270, 100%, 50%)"/><line x1="0" y1="944" x2="1080" y2="944" stroke="hsl(270, 100%, 50%)"/><line x1="0" y1="960" x2="1080" y2="960" stroke="hsl(270, 100%, 50%)"/><line x1="0" y1="976" x2="1080" y2="976" stroke="hsl(270, 100%, 50%)"/><line x1="0" y1="992" x2="1080" y2="992" stroke="hsl(270, 100%, 50%)"/><line x1="0" y1="1008" x2="1080" y2="1008" stroke="hsl(270, 100%, 50%)"/><line x1="0" y1="1024" x2="1080" y2="1024" stroke="hsl(270, 100%, 50%)"/><line x1="0" y1="1040" x2="1080" y2="1040" stroke="hsl(270, 100%, 50%)"/><line x1="0" y1="1056" x2="1080" y2="1056" stroke="hsl(270, 100%, 50%)"/><line x1="0" y1="1072" x2="1080" y2="1072" stroke="hsl(270, 100%, 50%)"/></g><g id="metatron" filter="url(#glow)"><circle cx="540" cy="540" r="90" stroke="hsl(270, 100%, 75%)" fill="none"/><g><circle cx="540" cy="360" r="90" stroke="hsl(270, 100%, 75%)" stroke-width="2" fill="none"/><line x1="540" y1="360" x2="695.884572681199" y2="450" stroke="hsl(270, 100%, 75%)" stroke-width="2"/><line x1="540" y1="360" x2="695.884572681199" y2="630" stroke="hsl(270, 100%, 75%)" stroke-width="2"/></g><g><circle cx="695.884572681199" cy="450" r="90" stroke="hsl(270, 100%, 75%)" stroke-width="2" fill="none"/><line x1="695.884572681199" y1="450" x2="695.884572681199" y2="630" stroke="hsl(270, 100%, 75%)" stroke-width="2"/><line x1="695.884572681199" y1="450" x2="540" y2="720" stroke="hsl(270, 100%, 75%)" stroke-width="2"/></g><g><circle cx="695.884572681199" cy="630" r="90" stroke="hsl(270, 100%, 75%)" stroke-width="2" fill="none"/><line x1="695.884572681199" y1="630" x2="540" y2="720" stroke="hsl(270, 100%, 75%)" stroke-width="2"/><line x1="695.884572681199" y1="630" x2="384.11542731880104" y2="630" stroke="hsl(270, 100%, 75%)" stroke-width="2"/></g><g><circle cx="540" cy="720" r="90" stroke="hsl(270, 100%, 75%)" stroke-width="2" fill="none"/><line x1="540" y1="720" x2="384.11542731880104" y2="630" stroke="hsl(270, 100%, 75%)" stroke-width="2"/><line x1="540" y1="720" x2="384.11542731880104" y2="450" stroke="hsl(270, 100%, 75%)" stroke-width="2"/></g><g><circle cx="384.11542731880104" cy="630" r="90" stroke="hsl(270, 100%, 75%)" stroke-width="2" fill="none"/><line x1="384.11542731880104" y1="630" x2="384.11542731880104" y2="450" stroke="hsl(270, 100%, 75%)" stroke-width="2"/><line x1="384.11542731880104" y1="630" x2="540" y2="360" stroke="hsl(270, 100%, 75%)" stroke-width="2"/></g><g><circle cx="384.11542731880104" cy="450" r="90" stroke="hsl(270, 100%, 75%)" stroke-width="2" fill="none"/><line x1="384.11542731880104" y1="450" x2="540" y2="360" stroke="hsl(270, 100%, 75%)" stroke-width="2"/><line x1="384.11542731880104" y1="450" x2="695.884572681199" y2="449.9999999999999" stroke="hsl(270, 100%, 75%)" stroke-width="2"/></g><g><circle cx="540" cy="180" r="90" stroke="hsl(270, 100%, 75%)" stroke-width="2" fill="none"/><line x1="540" y1="180" x2="851.7691453623979" y2="360" stroke="hsl(270, 100%, 75%)" stroke-width="2"/><line x1="540" y1="180" x2="851.7691453623979" y2="720" stroke="hsl(270, 100%, 75%)" stroke-width="2"/></g><g><circle cx="851.7691453623979" cy="360" r="90" stroke="hsl(270, 100%, 75%)" stroke-width="2" fill="none"/><line x1="851.7691453623979" y1="360" x2="851.7691453623979" y2="720" stroke="hsl(270, 100%, 75%)" stroke-width="2"/><line x1="851.7691453623979" y1="360" x2="540" y2="900" stroke="hsl(270, 100%, 75%)" stroke-width="2"/></g><g><circle cx="851.7691453623979" cy="720" r="90" stroke="hsl(270, 100%, 75%)" stroke-width="2" fill="none"/><line x1="851.7691453623979" y1="720" x2="540" y2="900" stroke="hsl(270, 100%, 75%)" stroke-width="2"/><line x1="851.7691453623979" y1="720" x2="228.23085463760208" y2="720" stroke="hsl(270, 100%, 75%)" stroke-width="2"/></g><g><circle cx="540" cy="900" r="90" stroke="hsl(270, 100%, 75%)" stroke-width="2" fill="none"/><line x1="540" y1="900" x2="228.23085463760208" y2="720" stroke="hsl(270, 100%, 75%)" stroke-width="2"/><line x1="540" y1="900" x2="228.23085463760208" y2="360" stroke="hsl(270, 100%, 75%)" stroke-width="2"/></g><g><circle cx="228.23085463760208" cy="720" r="90" stroke="hsl(270, 100%, 75%)" stroke-width="2" fill="none"/><line x1="228.23085463760208" y1="720" x2="228.23085463760208" y2="360" stroke="hsl(270, 100%, 75%)" stroke-width="2"/><line x1="228.23085463760208" y1="720" x2="539.9999999999999" y2="180" stroke="hsl(270, 100%, 75%)" stroke-width="2"/></g><g><circle cx="228.23085463760208" cy="360" r="90" stroke="hsl(270, 100%, 75%)" stroke-width="2" fill="none"/><line x1="228.23085463760208" y1="360" x2="539.9999999999999" y2="180" stroke="hsl(270, 100%, 75%)" stroke-width="2"/><line x1="228.23085463760208" y1="360" x2="851.7691453623978" y2="359.99999999999983" stroke="hsl(270, 100%, 75%)" stroke-width="2"/></g><g><line x1="540" y1="180" x2="695.884572681199" y2="630" stroke="hsl(270, 100%, 75%)" stroke-width="2"/><line x1="540" y1="180" x2="384.11542731880104" y2="630" stroke="hsl(270, 100%, 75%)" stroke-width="2"/><line x1="540" y1="180" x2="540" y2="540" stroke="hsl(270, 100%, 75%)" stroke-width="2"/></g><g><line x1="851.7691453623979" y1="360" x2="540" y2="720" stroke="hsl(270, 100%, 75%)" stroke-width="2"/><line x1="851.7691453623979" y1="360" x2="384.11542731880104" y2="450" stroke="hsl(270, 100%, 75%)" stroke-width="2"/><line x1="851.7691453623979" y1="360" x2="540" y2="540" stroke="hsl(270, 100%, 75%)" stroke-width="2"/></g><g><line x1="851.7691453623979" y1="720" x2="384.11542731880104" y2="630" stroke="hsl(270, 100%, 75%)" stroke-width="2"/><line x1="851.7691453623979" y1="720" x2="540" y2="360" stroke="hsl(270, 100%, 75%)" stroke-width="2"/><line x1="851.7691453623979" y1="720" x2="540" y2="540" stroke="hsl(270, 100%, 75%)" stroke-width="2"/></g><g><line x1="540" y1="900" x2="384.11542731880104" y2="450" stroke="hsl(270, 100%, 75%)" stroke-width="2"/><line x1="540" y1="900" x2="695.884572681199" y2="450" stroke="hsl(270, 100%, 75%)" stroke-width="2"/><line x1="540" y1="900" x2="540" y2="540" stroke="hsl(270, 100%, 75%)" stroke-width="2"/></g><g><line x1="228.23085463760208" y1="720" x2="540" y2="360" stroke="hsl(270, 100%, 75%)" stroke-width="2"/><line x1="228.23085463760208" y1="720" x2="695.884572681199" y2="630" stroke="hsl(270, 100%, 75%)" stroke-width="2"/><line x1="228.23085463760208" y1="720" x2="540" y2="540" stroke="hsl(270, 100%, 75%)" stroke-width="2"/></g><g><line x1="228.23085463760208" y1="360" x2="695.884572681199" y2="449.9999999999999" stroke="hsl(270, 100%, 75%)" stroke-width="2"/><line x1="228.23085463760208" y1="360" x2="540" y2="720" stroke="hsl(270, 100%, 75%)" stroke-width="2"/><line x1="228.23085463760208" y1="360" x2="540" y2="540" stroke="hsl(270, 100%, 75%)" stroke-width="2"/></g></g></svg>