<svg id="VenusOrbits" xmlns="http://www.w3.org/2000/svg" viewBox="0 0 2400 2400"><defs><filter id="bgFilter"><feTurbulence type="fractalNoise" baseFrequency="0.3819660112501052"/><feSpecularLighting specularExponent="20" lighting-color="hsl(240, 50%, 40%)" surfaceScale="1"><fePointLight x="1200" y="1200" z="1200"/></feSpecularLighting></filter><filter id="blurFilter"><feGaussianBlur stdDeviation="5" in="SourceGraphic" result="blur"/><feColorMatrix type="saturate" values="0.0" result="saturate"/><feComponentTransfer><feFuncR type="linear" slope="0.5"/><feFuncG type="linear" slope="0.5"/><feFuncB type="linear" slope="2"/></feComponentTransfer><feMerge><feMergeNode/><feMergeNode in="SourceGraphic"/></feMerge></filter></defs><rect width="2400" height="2400" fill="black"/><rect width="2400" height="2400" filter="url(#bgFilter)"/><g transform="rotate(90, 1200, 1200)" filter="url(#blurFilter)"><line x1="2160" y1="1200" x2="1793.3126291998992" y2="1200" stroke="hsl(-72, 100%, 50%)" stroke-width="2"/><line x1="2145.41544289172" y1="1366.702250560253" x2="1769.6097032686957" y2="1366.0260880411433" stroke="hsl(-62, 100%, 50%)" stroke-width="2"/><line x1="2102.104915954472" y1="1528.339337592642" x2="1700.3947961599474" y2="1518.78664329633" stroke="hsl(-52, 100%, 50%)" stroke-width="2"/><line x1="2031.3843876330611" y1="1680" x2="1591.1981991089724" y2="1646.076052912498" stroke="hsl(-42, 100%, 50%)" stroke-width="2"/><line x1="1935.4026653942187" y1="1817.0761052990777" x2="1450.7447520212654" y2="1737.723855991057" stroke="hsl(-32, 100%, 50%)" stroke-width="2"/><line x1="1817.0761052990779" y1="1935.4026653942187" x2="1290.2567262231312" y2="1786.4073663756108" stroke="hsl(-22, 100%, 50%)" stroke-width="2"/><line x1="1680" y1="2031.3843876330611" x2="1122.5571617144697" y2="1788.236757408425" stroke="hsl(-12, 100%, 50%)" stroke-width="2"/><line x1="1528.339337592642" y1="2102.104915954472" x2="961.0453025383563" y2="1743.0658602132078" stroke="hsl(-2, 100%, 50%)" stroke-width="2"/><line x1="1366.702250560253" y1="2145.41544289172" x2="818.6259932797608" y2="1654.5038426308934" stroke="hsl(8, 100%, 50%)" stroke-width="2"/><line x1="1200" y1="2160" x2="706.678578224956" y2="1529.6268356580608" stroke="hsl(18, 100%, 50%)" stroke-width="2"/><line x1="1033.297749439747" y1="2145.41544289172" x2="634.1476884390588" y2="1378.4125485195382" stroke="hsl(28, 100%, 50%)" stroke-width="2"/><line x1="871.660662407358" y1="2102.104915954472" x2="606.8285631389983" y2="1212.943046795549" stroke="hsl(38, 100%, 50%)" stroke-width="2"/><line x1="720.0000000000002" y1="2031.3843876330611" x2="626.9040083923478" y2="1046.439391863216" stroke="hsl(48, 100%, 50%)" stroke-width="2"/><line x1="582.9238947009222" y1="1935.4026653942187" x2="692.76999027683" y2="892.2052742421829" stroke="hsl(58, 100%, 50%)" stroke-width="2"/><line x1="464.59733460578127" y1="1817.0761052990779" x2="799.1637976578468" y2="762.5640448476859" stroke="hsl(68, 100%, 50%)" stroke-width="2"/><line x1="368.6156123669389" y1="1680" x2="937.5845343407846" y2="667.8740756635192" stroke="hsl(78, 100%, 50%)" stroke-width="2"/><line x1="297.89508404552805" y1="1528.339337592642" x2="1096.9723431526625" y2="615.701122803882" stroke="hsl(88, 100%, 50%)" stroke-width="2"/><line x1="254.58455710828025" y1="1366.702250560253" x2="1264.5920917511955" y2="610.2138203964913" stroke="hsl(98, 100%, 50%)" stroke-width="2"/><line x1="240" y1="1200.0000000000002" x2="1427.0509134077734" y2="651.8506055017549" stroke="hsl(108, 100%, 50%)" stroke-width="2"/><line x1="254.58455710828025" y1="1033.2977494397467" x2="1571.3683009594538" y2="737.2846868639579" stroke="hsl(118, 100%, 50%)" stroke-width="2"/><line x1="297.89508404552794" y1="871.6606624073581" x2="1686.0132531115737" y2="859.689856501452" stroke="hsl(128, 100%, 50%)" stroke-width="2"/><line x1="368.615612366939" y1="719.9999999999999" x2="1761.825604799342" y2="1009.2859057123712" stroke="hsl(138, 100%, 50%)" stroke-width="2"/><line x1="464.59733460578104" y1="582.9238947009223" x2="1792.7479270442154" y2="1174.1200665981835" stroke="hsl(148, 100%, 50%)" stroke-width="2"/><line x1="582.9238947009221" y1="464.59733460578127" x2="1776.3095172933781" y2="1341.0220416997659" stroke="hsl(158, 100%, 50%)" stroke-width="2"/><line x1="719.9999999999995" y1="368.6156123669391" x2="1713.8238092732495" y2="1496.6563145999496" stroke="hsl(168, 100%, 50%)" stroke-width="2"/><line x1="871.6606624073581" y1="297.89508404552794" x2="1610.2834292522348" y2="1628.58766156893" stroke="hsl(178, 100%, 50%)" stroke-width="2"/><line x1="1033.297749439747" y1="254.58455710828025" x2="1473.961283747885" y2="1726.274729561764" stroke="hsl(188, 100%, 50%)" stroke-width="2"/><line x1="1199.9999999999998" y1="240" x2="1315.7495518868443" y2="1781.912293396601" stroke="hsl(198, 100%, 50%)" stroke-width="2"/><line x1="1366.7022505602527" y1="254.58455710828025" x2="1148.2893971205172" y2="1791.0548955198133" stroke="hsl(208, 100%, 50%)" stroke-width="2"/><line x1="1528.339337592642" y1="297.89508404552805" x2="984.960934583843" y2="1752.9720393591729" stroke="hsl(218, 100%, 50%)" stroke-width="2"/><line x1="1680" y1="368.615612366939" x2="838.8141559993484" y2="1670.706556212715" stroke="hsl(228, 100%, 50%)" stroke-width="2"/><line x1="1817.0761052990777" y1="464.59733460578104" x2="721.5262315379881" y2="1550.8314821418653" stroke="hsl(238, 100%, 50%)" stroke-width="2"/><line x1="1935.4026653942187" y1="582.923894700922" x2="642.4685005217689" y2="1402.9248704758788" stroke="hsl(248, 100%, 50%)" stroke-width="2"/><line x1="2031.384387633061" y1="719.9999999999995" x2="607.9576986827238" y2="1238.8045025614374" stroke="hsl(258, 100%, 50%)" stroke-width="2"/><line x1="2102.104915954472" y1="871.6606624073581" x2="620.7512491383089" y2="1071.583643591373" stroke="hsl(268, 100%, 50%)" stroke-width="2"/><line x1="2145.41544289172" y1="1033.297749439747" x2="679.8269434812809" y2="914.6232888968157" stroke="hsl(278, 100%, 50%)" stroke-width="2"/><line x1="2160" y1="1199.9999999999998" x2="780.464616529132" y2="780.4646165291315" stroke="hsl(-72, 100%, 50%)" stroke-width="2"/><line x1="2145.41544289172" y1="1366.7022505602527" x2="914.6232888968152" y2="679.826943481281" stroke="hsl(-62, 100%, 50%)" stroke-width="2"/><line x1="2102.104915954472" y1="1528.339337592642" x2="1071.5836435913725" y2="620.751249138309" stroke="hsl(-52, 100%, 50%)" stroke-width="2"/><line x1="2031.3843876330611" y1="1680" x2="1238.804502561437" y2="607.9576986827238" stroke="hsl(-42, 100%, 50%)" stroke-width="2"/><line x1="1935.402665394219" y1="1817.0761052990774" x2="1402.9248704758784" y2="642.4685005217688" stroke="hsl(-32, 100%, 50%)" stroke-width="2"/><line x1="1817.0761052990779" y1="1935.4026653942187" x2="1550.8314821418649" y2="721.5262315379878" stroke="hsl(-22, 100%, 50%)" stroke-width="2"/><line x1="1679.9999999999998" y1="2031.3843876330611" x2="1670.7065562127148" y2="838.814155999348" stroke="hsl(-12, 100%, 50%)" stroke-width="2"/><line x1="1528.3393375926419" y1="2102.104915954472" x2="1752.9720393591733" y2="984.9609345838435" stroke="hsl(-2, 100%, 50%)" stroke-width="2"/><line x1="1366.702250560253" y1="2145.41544289172" x2="1791.0548955198133" y2="1148.2893971205167" stroke="hsl(8, 100%, 50%)" stroke-width="2"/><line x1="1200.0000000000002" y1="2160" x2="1781.912293396601" y2="1315.7495518868443" stroke="hsl(18, 100%, 50%)" stroke-width="2"/><line x1="1033.2977494397473" y1="2145.41544289172" x2="1726.274729561764" y2="1473.9612837478853" stroke="hsl(28, 100%, 50%)" stroke-width="2"/><line x1="871.6606624073587" y1="2102.1049159544723" x2="1628.5876615689301" y2="1610.2834292522343" stroke="hsl(38, 100%, 50%)" stroke-width="2"/><line x1="720.0000000000007" y1="2031.3843876330616" x2="1496.6563145999494" y2="1713.8238092732495" stroke="hsl(48, 100%, 50%)" stroke-width="2"/><line x1="582.9238947009218" y1="1935.4026653942185" x2="1341.0220416997663" y2="1776.3095172933781" stroke="hsl(58, 100%, 50%)" stroke-width="2"/><line x1="464.5973346057808" y1="1817.0761052990774" x2="1174.1200665981835" y2="1792.7479270442154" stroke="hsl(68, 100%, 50%)" stroke-width="2"/><line x1="368.61561236693876" y1="1679.9999999999998" x2="1009.2859057123717" y2="1761.8256047993423" stroke="hsl(78, 100%, 50%)" stroke-width="2"/><line x1="297.89508404552794" y1="1528.339337592642" x2="859.689856501452" y2="1686.0132531115737" stroke="hsl(88, 100%, 50%)" stroke-width="2"/><line x1="254.58455710828025" y1="1366.7022505602533" x2="737.2846868639581" y2="1571.3683009594542" stroke="hsl(98, 100%, 50%)" stroke-width="2"/><line x1="240" y1="1200.0000000000005" x2="651.850605501755" y2="1427.0509134077738" stroke="hsl(108, 100%, 50%)" stroke-width="2"/><line x1="254.58455710828025" y1="1033.2977494397473" x2="610.2138203964913" y2="1264.5920917511955" stroke="hsl(118, 100%, 50%)" stroke-width="2"/><line x1="297.8950840455277" y1="871.6606624073587" x2="615.7011228038818" y2="1096.972343152663" stroke="hsl(128, 100%, 50%)" stroke-width="2"/><line x1="368.6156123669384" y1="720.0000000000008" x2="667.8740756635192" y2="937.5845343407846" stroke="hsl(138, 100%, 50%)" stroke-width="2"/><line x1="464.5973346057814" y1="582.9238947009218" x2="762.5640448476863" y2="799.1637976578463" stroke="hsl(148, 100%, 50%)" stroke-width="2"/><line x1="582.9238947009226" y1="464.59733460578093" x2="892.2052742421822" y2="692.7699902768303" stroke="hsl(158, 100%, 50%)" stroke-width="2"/><line x1="720.0000000000002" y1="368.6156123669389" x2="1046.4393918632159" y2="626.9040083923479" stroke="hsl(168, 100%, 50%)" stroke-width="2"/><line x1="871.6606624073579" y1="297.89508404552794" x2="1212.9430467955494" y2="606.8285631389983" stroke="hsl(178, 100%, 50%)" stroke-width="2"/><line x1="1033.2977494397467" y1="254.58455710828025" x2="1378.4125485195368" y2="634.1476884390585" stroke="hsl(188, 100%, 50%)" stroke-width="2"/><line x1="1199.9999999999995" y1="240" x2="1529.6268356580604" y2="706.6785782249558" stroke="hsl(198, 100%, 50%)" stroke-width="2"/><line x1="1366.7022505602527" y1="254.58455710828025" x2="1654.5038426308934" y2="818.6259932797609" stroke="hsl(208, 100%, 50%)" stroke-width="2"/><line x1="1528.3393375926412" y1="297.8950840455277" x2="1743.065860213208" y2="961.0453025383569" stroke="hsl(218, 100%, 50%)" stroke-width="2"/><line x1="1679.999999999999" y1="368.6156123669384" x2="1788.2367574084249" y2="1122.557161714469" stroke="hsl(228, 100%, 50%)" stroke-width="2"/><line x1="1817.076105299078" y1="464.5973346057814" x2="1786.4073663756108" y2="1290.2567262231307" stroke="hsl(238, 100%, 50%)" stroke-width="2"/><line x1="1935.4026653942192" y1="582.9238947009226" x2="1737.723855991057" y2="1450.7447520212659" stroke="hsl(248, 100%, 50%)" stroke-width="2"/><line x1="2031.3843876330611" y1="720.0000000000001" x2="1646.0760529124989" y2="1591.1981991089715" stroke="hsl(258, 100%, 50%)" stroke-width="2"/><line x1="2102.104915954472" y1="871.6606624073579" x2="1518.7866432963306" y2="1700.3947961599472" stroke="hsl(268, 100%, 50%)" stroke-width="2"/><line x1="2145.41544289172" y1="1033.2977494397467" x2="1366.0260880411433" y2="1769.6097032686957" stroke="hsl(278, 100%, 50%)" stroke-width="2"/><line x1="2160" y1="1199.9999999999995" x2="1199.9999999999993" y2="1793.3126291998992" stroke="hsl(-72, 100%, 50%)" stroke-width="2"/><line x1="2145.41544289172" y1="1366.7022505602524" x2="1033.9739119588576" y2="1769.609703268696" stroke="hsl(-62, 100%, 50%)" stroke-width="2"/><line x1="2102.1049159544723" y1="1528.3393375926412" x2="881.2133567036701" y2="1700.3947961599476" stroke="hsl(-52, 100%, 50%)" stroke-width="2"/><line x1="2031.3843876330616" y1="1679.999999999999" x2="753.9239470875018" y2="1591.1981991089722" stroke="hsl(-42, 100%, 50%)" stroke-width="2"/><line x1="1935.4026653942187" y1="1817.076105299078" x2="662.2761440089436" y2="1450.7447520212668" stroke="hsl(-32, 100%, 50%)" stroke-width="2"/><line x1="1817.0761052990774" y1="1935.4026653942192" x2="613.5926336243894" y2="1290.2567262231319" stroke="hsl(-22, 100%, 50%)" stroke-width="2"/><line x1="1680" y1="2031.3843876330611" x2="611.763242591575" y2="1122.5571617144699" stroke="hsl(-12, 100%, 50%)" stroke-width="2"/><line x1="1528.339337592642" y1="2102.104915954472" x2="656.9341397867925" y2="961.0453025383558" stroke="hsl(-2, 100%, 50%)" stroke-width="2"/><line x1="1366.7022505602536" y1="2145.41544289172" x2="745.496157369106" y2="818.6259932797616" stroke="hsl(8, 100%, 50%)" stroke-width="2"/><line x1="1200.0000000000005" y1="2160" x2="870.373164341939" y2="706.6785782249563" stroke="hsl(18, 100%, 50%)" stroke-width="2"/><line x1="1033.2977494397476" y1="2145.41544289172" x2="1021.5874514804622" y2="634.1476884390587" stroke="hsl(28, 100%, 50%)" stroke-width="2"/><line x1="871.6606624073588" y1="2102.1049159544723" x2="1187.0569532044517" y2="606.8285631389983" stroke="hsl(38, 100%, 50%)" stroke-width="2"/><line x1="719.9999999999995" y1="2031.384387633061" x2="1353.5606081367832" y2="626.9040083923477" stroke="hsl(48, 100%, 50%)" stroke-width="2"/><line x1="582.9238947009219" y1="1935.4026653942187" x2="1507.7947257578169" y2="692.7699902768298" stroke="hsl(58, 100%, 50%)" stroke-width="2"/><line x1="464.59733460578104" y1="1817.0761052990774" x2="1637.4359551523146" y2="799.1637976578472" stroke="hsl(68, 100%, 50%)" stroke-width="2"/><line x1="368.615612366939" y1="1680" x2="1732.1259243364802" y2="937.5845343407836" stroke="hsl(78, 100%, 50%)" stroke-width="2"/><line x1="297.89508404552805" y1="1528.339337592642" x2="1784.298877196118" y2="1096.972343152662" stroke="hsl(88, 100%, 50%)" stroke-width="2"/><line x1="254.58455710828025" y1="1366.7022505602536" x2="1789.7861796035086" y2="1264.5920917511955" stroke="hsl(98, 100%, 50%)" stroke-width="2"/><line x1="240" y1="1200.0000000000007" x2="1748.1493944982449" y2="1427.0509134077738" stroke="hsl(108, 100%, 50%)" stroke-width="2"/><line x1="254.58455710828014" y1="1033.2977494397476" x2="1662.7153131360424" y2="1571.3683009594533" stroke="hsl(118, 100%, 50%)" stroke-width="2"/><line x1="297.8950840455276" y1="871.6606624073589" x2="1540.3101434985479" y2="1686.0132531115737" stroke="hsl(128, 100%, 50%)" stroke-width="2"/><line x1="368.6156123669383" y1="720.000000000001" x2="1390.714094287628" y2="1761.8256047993423" stroke="hsl(138, 100%, 50%)" stroke-width="2"/><line x1="464.59733460578025" y1="582.9238947009233" x2="1225.8799334018174" y2="1792.7479270442154" stroke="hsl(148, 100%, 50%)" stroke-width="2"/><line x1="582.923894700921" y1="464.59733460578207" x2="1058.9779583002346" y2="1776.3095172933781" stroke="hsl(158, 100%, 50%)" stroke-width="2"/><line x1="719.9999999999985" y1="368.6156123669398" x2="903.3436854000504" y2="1713.8238092732495" stroke="hsl(168, 100%, 50%)" stroke-width="2"/><line x1="871.6606624073562" y1="297.8950840455286" x2="771.4123384310698" y2="1610.2834292522343" stroke="hsl(178, 100%, 50%)" stroke-width="2"/><line x1="1033.297749439748" y1="254.58455710828014" x2="673.7252704382365" y2="1473.961283747886" stroke="hsl(188, 100%, 50%)" stroke-width="2"/><line x1="1200.0000000000011" y1="240" x2="618.0877066033992" y2="1315.7495518868443" stroke="hsl(198, 100%, 50%)" stroke-width="2"/><line x1="1366.702250560254" y1="254.58455710828036" x2="608.9451044801868" y2="1148.2893971205165" stroke="hsl(208, 100%, 50%)" stroke-width="2"/><line x1="1528.3393375926426" y1="297.8950840455283" x2="647.0279606408266" y2="984.9609345838444" stroke="hsl(218, 100%, 50%)" stroke-width="2"/><line x1="1680.0000000000005" y1="368.6156123669391" x2="729.2934437872847" y2="838.8141559993487" stroke="hsl(228, 100%, 50%)" stroke-width="2"/><line x1="1817.0761052990779" y1="464.59733460578127" x2="849.1685178581351" y2="721.5262315379878" stroke="hsl(238, 100%, 50%)" stroke-width="2"/><line x1="1935.402665394219" y1="582.9238947009223" x2="997.0751295241217" y2="642.4685005217688" stroke="hsl(248, 100%, 50%)" stroke-width="2"/><line x1="2031.3843876330611" y1="719.9999999999999" x2="1161.1954974385621" y2="607.957698682724" stroke="hsl(258, 100%, 50%)" stroke-width="2"/><line x1="2102.104915954472" y1="871.6606624073577" x2="1328.4163564086266" y2="620.7512491383088" stroke="hsl(268, 100%, 50%)" stroke-width="2"/><line x1="2145.41544289172" y1="1033.2977494397464" x2="1485.3767111031848" y2="679.8269434812811" stroke="hsl(278, 100%, 50%)" stroke-width="2"/><line x1="2160" y1="1199.9999999999993" x2="1619.5353834708674" y2="780.4646165291308" stroke="hsl(-72, 100%, 50%)" stroke-width="2"/><line x1="2145.41544289172" y1="1366.7022505602522" x2="1720.1730565187188" y2="914.6232888968149" stroke="hsl(-62, 100%, 50%)" stroke-width="2"/><line x1="2102.1049159544723" y1="1528.339337592641" x2="1779.248750861691" y2="1071.583643591373" stroke="hsl(-52, 100%, 50%)" stroke-width="2"/><line x1="2031.3843876330616" y1="1679.9999999999989" x2="1792.0423013172763" y2="1238.8045025614374" stroke="hsl(-42, 100%, 50%)" stroke-width="2"/><line x1="1935.4026653942199" y1="1817.0761052990765" x2="1757.5314994782316" y2="1402.924870475878" stroke="hsl(-32, 100%, 50%)" stroke-width="2"/><line x1="1817.076105299079" y1="1935.4026653942178" x2="1678.4737684620113" y2="1550.8314821418662" stroke="hsl(-22, 100%, 50%)" stroke-width="2"/><line x1="1680.0000000000016" y1="2031.3843876330602" x2="1561.1858440006515" y2="1670.706556212715" stroke="hsl(-12, 100%, 50%)" stroke-width="2"/><line x1="1528.3393375926407" y1="2102.1049159544727" x2="1415.0390654161579" y2="1752.9720393591724" stroke="hsl(-2, 100%, 50%)" stroke-width="2"/><line x1="1366.702250560252" y1="2145.41544289172" x2="1251.7106028794817" y2="1791.0548955198133" stroke="hsl(8, 100%, 50%)" stroke-width="2"/><line x1="1199.999999999999" y1="2160" x2="1084.2504481131562" y2="1781.912293396601" stroke="hsl(18, 100%, 50%)" stroke-width="2"/><line x1="1033.2977494397462" y1="2145.4154428917195" x2="926.038716252116" y2="1726.2747295617646" stroke="hsl(28, 100%, 50%)" stroke-width="2"/><line x1="871.6606624073574" y1="2102.104915954472" x2="789.7165707477645" y2="1628.587661568929" stroke="hsl(38, 100%, 50%)" stroke-width="2"/><line x1="719.9999999999997" y1="2031.384387633061" x2="686.1761907267506" y2="1496.6563145999498" stroke="hsl(48, 100%, 50%)" stroke-width="2"/><line x1="582.9238947009221" y1="1935.4026653942187" x2="623.6904827066223" y2="1341.0220416997677" stroke="hsl(58, 100%, 50%)" stroke-width="2"/><line x1="464.59733460578116" y1="1817.0761052990779" x2="607.2520729557847" y2="1174.1200665981828" stroke="hsl(68, 100%, 50%)" stroke-width="2"/><line x1="368.6156123669391" y1="1680.0000000000002" x2="638.1743952006576" y2="1009.2859057123721" stroke="hsl(78, 100%, 50%)" stroke-width="2"/><line x1="297.89508404552817" y1="1528.3393375926423" x2="713.9867468884247" y2="859.6898565014542" stroke="hsl(88, 100%, 50%)" stroke-width="2"/><line x1="254.58455710828036" y1="1366.7022505602538" x2="828.6316990405463" y2="737.2846868639577" stroke="hsl(98, 100%, 50%)" stroke-width="2"/><line x1="240" y1="1200.000000000001" x2="972.9490865922259" y2="651.8506055017552" stroke="hsl(108, 100%, 50%)" stroke-width="2"/><line x1="254.58455710828014" y1="1033.2977494397478" x2="1135.407908248806" y2="610.2138203964912" stroke="hsl(118, 100%, 50%)" stroke-width="2"/><line x1="297.8950840455276" y1="871.6606624073592" x2="1303.0276568473378" y2="615.701122803882" stroke="hsl(128, 100%, 50%)" stroke-width="2"/><line x1="368.6156123669382" y1="720.0000000000013" x2="1462.415465659214" y2="667.8740756635185" stroke="hsl(138, 100%, 50%)" stroke-width="2"/><line x1="464.59733460578" y1="582.9238947009235" x2="1600.8362023421541" y2="762.5640448476865" stroke="hsl(148, 100%, 50%)" stroke-width="2"/><line x1="582.9238947009209" y1="464.5973346057823" x2="1707.23000972317" y2="892.2052742421828" stroke="hsl(158, 100%, 50%)" stroke-width="2"/><line x1="719.9999999999983" y1="368.6156123669399" x2="1773.0959916076517" y2="1046.4393918632145" stroke="hsl(168, 100%, 50%)" stroke-width="2"/><line x1="871.6606624073592" y1="297.8950840455276" x2="1793.1714368610014" y2="1212.94304679555" stroke="hsl(178, 100%, 50%)" stroke-width="2"/><line x1="1033.2977494397478" y1="254.58455710828014" x2="1765.8523115609414" y2="1378.4125485195375" stroke="hsl(188, 100%, 50%)" stroke-width="2"/><line x1="1200.000000000001" y1="240" x2="1693.321421775045" y2="1529.626835658059" stroke="hsl(198, 100%, 50%)" stroke-width="2"/><line x1="1366.7022505602538" y1="254.58455710828036" x2="1581.3740067202386" y2="1654.5038426308938" stroke="hsl(208, 100%, 50%)" stroke-width="2"/><line x1="1528.3393375926423" y1="297.89508404552817" x2="1438.9546974616446" y2="1743.0658602132075" stroke="hsl(218, 100%, 50%)" stroke-width="2"/><line x1="1680.0000000000002" y1="368.6156123669391" x2="1277.4428382855326" y2="1788.2367574084246" stroke="hsl(228, 100%, 50%)" stroke-width="2"/><line x1="1817.0761052990779" y1="464.59733460578116" x2="1109.7432737768686" y2="1786.4073663756108" stroke="hsl(238, 100%, 50%)" stroke-width="2"/><line x1="1935.4026653942187" y1="582.9238947009221" x2="949.2552479787356" y2="1737.7238559910575" stroke="hsl(248, 100%, 50%)" stroke-width="2"/><line x1="2031.384387633061" y1="719.9999999999997" x2="808.8018008910265" y2="1646.076052912497" stroke="hsl(258, 100%, 50%)" stroke-width="2"/><line x1="2102.104915954472" y1="871.6606624073574" x2="699.6052038400526" y2="1518.78664329633" stroke="hsl(268, 100%, 50%)" stroke-width="2"/><line x1="2145.4154428917195" y1="1033.2977494397462" x2="630.3902967313048" y2="1366.0260880411447" stroke="hsl(278, 100%, 50%)" stroke-width="2"/><line x1="2160" y1="1199.999999999999" x2="606.6873708001009" y2="1199.9999999999989" stroke="hsl(-72, 100%, 50%)" stroke-width="2"/><line x1="2145.41544289172" y1="1366.702250560252" x2="630.3902967313043" y2="1033.9739119588571" stroke="hsl(-62, 100%, 50%)" stroke-width="2"/><line x1="2102.1049159544727" y1="1528.3393375926407" x2="699.6052038400516" y2="881.2133567036715" stroke="hsl(-52, 100%, 50%)" stroke-width="2"/><line x1="2031.384387633062" y1="1679.9999999999986" x2="808.8018008910283" y2="753.9239470875015" stroke="hsl(-42, 100%, 50%)" stroke-width="2"/><line x1="1935.40266539422" y1="1817.0761052990765" x2="949.2552479787339" y2="662.2761440089432" stroke="hsl(-32, 100%, 50%)" stroke-width="2"/><line x1="1817.0761052990792" y1="1935.4026653942178" x2="1109.7432737768668" y2="613.5926336243897" stroke="hsl(-22, 100%, 50%)" stroke-width="2"/><line x1="1680.0000000000018" y1="2031.38438763306" x2="1277.4428382855308" y2="611.7632425915751" stroke="hsl(-12, 100%, 50%)" stroke-width="2"/><line x1="1528.339337592641" y1="2102.1049159544723" x2="1438.9546974616428" y2="656.9341397867918" stroke="hsl(-2, 100%, 50%)" stroke-width="2"/><line x1="1366.7022505602522" y1="2145.41544289172" x2="1581.3740067202373" y2="745.4961573691049" stroke="hsl(8, 100%, 50%)" stroke-width="2"/><line x1="1199.9999999999993" y1="2160" x2="1693.321421775044" y2="870.3731643419394" stroke="hsl(18, 100%, 50%)" stroke-width="2"/><line x1="1033.2977494397464" y1="2145.41544289172" x2="1765.852311560941" y2="1021.5874514804607" stroke="hsl(28, 100%, 50%)" stroke-width="2"/><line x1="871.6606624073577" y1="2102.104915954472" x2="1793.1714368610017" y2="1187.0569532044524" stroke="hsl(38, 100%, 50%)" stroke-width="2"/><line x1="719.9999999999999" y1="2031.3843876330611" x2="1773.0959916076522" y2="1353.5606081367837" stroke="hsl(48, 100%, 50%)" stroke-width="2"/><line x1="582.9238947009223" y1="1935.402665394219" x2="1707.230009723171" y2="1507.7947257578157" stroke="hsl(58, 100%, 50%)" stroke-width="2"/><line x1="464.59733460578127" y1="1817.0761052990779" x2="1600.8362023421523" y2="1637.435955152315" stroke="hsl(68, 100%, 50%)" stroke-width="2"/><line x1="368.6156123669391" y1="1680.0000000000005" x2="1462.415465659216" y2="1732.1259243364807" stroke="hsl(78, 100%, 50%)" stroke-width="2"/><line x1="297.89508404552817" y1="1528.3393375926426" x2="1303.0276568473396" y2="1784.2988771961177" stroke="hsl(88, 100%, 50%)" stroke-width="2"/><line x1="254.58455710828036" y1="1366.702250560254" x2="1135.4079082488038" y2="1789.7861796035086" stroke="hsl(98, 100%, 50%)" stroke-width="2"/><line x1="240" y1="1200.0000000000011" x2="972.9490865922276" y2="1748.1493944982456" stroke="hsl(108, 100%, 50%)" stroke-width="2"/><line x1="254.58455710828014" y1="1033.297749439748" x2="828.6316990405478" y2="1662.7153131360435" stroke="hsl(118, 100%, 50%)" stroke-width="2"/><line x1="297.8950840455275" y1="871.6606624073594" x2="713.9867468884258" y2="1540.3101434985474" stroke="hsl(128, 100%, 50%)" stroke-width="2"/><line x1="368.6156123669381" y1="720.0000000000014" x2="638.1743952006583" y2="1390.7140942876297" stroke="hsl(138, 100%, 50%)" stroke-width="2"/><line x1="464.5973346057799" y1="582.9238947009237" x2="607.2520729557845" y2="1225.8799334018147" stroke="hsl(148, 100%, 50%)" stroke-width="2"/><line x1="582.9238947009208" y1="464.5973346057824" x2="623.6904827066219" y2="1058.9779583002341" stroke="hsl(158, 100%, 50%)" stroke-width="2"/><line x1="720.000000000001" y1="368.6156123669383" x2="686.1761907267497" y2="903.3436854000518" stroke="hsl(168, 100%, 50%)" stroke-width="2"/><line x1="871.6606624073589" y1="297.8950840455276" x2="789.7165707477661" y2="771.4123384310694" stroke="hsl(178, 100%, 50%)" stroke-width="2"/><line x1="1033.2977494397476" y1="254.58455710828014" x2="926.0387162521145" y2="673.7252704382363" stroke="hsl(188, 100%, 50%)" stroke-width="2"/><line x1="1200.0000000000007" y1="240" x2="1084.250448113154" y2="618.0877066033994" stroke="hsl(198, 100%, 50%)" stroke-width="2"/><line x1="1366.7022505602536" y1="254.58455710828025" x2="1251.710602879484" y2="608.9451044801868" stroke="hsl(208, 100%, 50%)" stroke-width="2"/><line x1="1528.339337592642" y1="297.89508404552805" x2="1415.039065416156" y2="647.0279606408267" stroke="hsl(218, 100%, 50%)" stroke-width="2"/><line x1="1680" y1="368.615612366939" x2="1561.1858440006501" y2="729.2934437872838" stroke="hsl(228, 100%, 50%)" stroke-width="2"/><line x1="1817.0761052990774" y1="464.59733460578104" x2="1678.4737684620127" y2="849.1685178581356" stroke="hsl(238, 100%, 50%)" stroke-width="2"/><line x1="1935.4026653942187" y1="582.9238947009219" x2="1757.5314994782307" y2="997.0751295241203" stroke="hsl(248, 100%, 50%)" stroke-width="2"/><line x1="2031.384387633061" y1="719.9999999999995" x2="1792.042301317276" y2="1161.1954974385606" stroke="hsl(258, 100%, 50%)" stroke-width="2"/><line x1="2102.104915954472" y1="871.6606624073572" x2="1779.248750861691" y2="1328.4163564086273" stroke="hsl(268, 100%, 50%)" stroke-width="2"/><line x1="2145.4154428917195" y1="1033.297749439746" x2="1720.1730565187195" y2="1485.3767111031834" stroke="hsl(278, 100%, 50%)" stroke-width="2"/><line x1="2160" y1="1199.9999999999989" x2="1619.5353834708671" y2="1619.5353834708694" stroke="hsl(-72, 100%, 50%)" stroke-width="2"/><line x1="2145.41544289172" y1="1366.7022505602517" x2="1485.3767111031848" y2="1720.173056518719" stroke="hsl(-62, 100%, 50%)" stroke-width="2"/><line x1="2102.1049159544727" y1="1528.3393375926405" x2="1328.4163564086284" y2="1779.2487508616907" stroke="hsl(-52, 100%, 50%)" stroke-width="2"/><line x1="2031.384387633062" y1="1679.9999999999984" x2="1161.195497438562" y2="1792.042301317276" stroke="hsl(-42, 100%, 50%)" stroke-width="2"/><line x1="1935.40266539422" y1="1817.0761052990763" x2="997.0751295241215" y2="1757.5314994782311" stroke="hsl(-32, 100%, 50%)" stroke-width="2"/><line x1="1817.076105299077" y1="1935.4026653942196" x2="849.1685178581366" y2="1678.4737684620134" stroke="hsl(-22, 100%, 50%)" stroke-width="2"/><line x1="1680.000000000002" y1="2031.3843876330598" x2="729.2934437872846" y2="1561.185844000651" stroke="hsl(-12, 100%, 50%)" stroke-width="2"/><line x1="1528.3393375926412" y1="2102.1049159544723" x2="647.0279606408271" y2="1415.0390654161574" stroke="hsl(-2, 100%, 50%)" stroke-width="2"/><line x1="1366.7022505602558" y1="2145.415442891719" x2="608.945104480187" y2="1251.7106028794854" stroke="hsl(8, 100%, 50%)" stroke-width="2"/><line x1="1199.9999999999995" y1="2160" x2="618.0877066033992" y2="1084.2504481131555" stroke="hsl(18, 100%, 50%)" stroke-width="2"/><line x1="1033.2977494397499" y1="2145.41544289172" x2="673.7252704382357" y2="926.0387162521156" stroke="hsl(28, 100%, 50%)" stroke-width="2"/><line x1="871.6606624073579" y1="2102.104915954472" x2="771.4123384310685" y2="789.716570747767" stroke="hsl(38, 100%, 50%)" stroke-width="2"/><line x1="720.000000000003" y1="2031.384387633063" x2="903.3436854000506" y2="686.1761907267504" stroke="hsl(48, 100%, 50%)" stroke-width="2"/><line x1="582.9238947009226" y1="1935.4026653942192" x2="1058.9779583002328" y2="623.6904827066222" stroke="hsl(58, 100%, 50%)" stroke-width="2"/><line x1="464.59733460578354" y1="1817.0761052990806" x2="1225.8799334018177" y2="607.2520729557847" stroke="hsl(68, 100%, 50%)" stroke-width="2"/><line x1="368.6156123669392" y1="1680.0000000000007" x2="1390.7140942876283" y2="638.1743952006578" stroke="hsl(78, 100%, 50%)" stroke-width="2"/><line x1="297.895084045527" y1="1528.3393375926396" x2="1540.3101434985463" y2="713.9867468884252" stroke="hsl(88, 100%, 50%)" stroke-width="2"/><line x1="254.58455710828036" y1="1366.7022505602542" x2="1662.7153131360426" y2="828.6316990405468" stroke="hsl(98, 100%, 50%)" stroke-width="2"/><line x1="240" y1="1199.999999999998" x2="1748.1493944982449" y2="972.9490865922264" stroke="hsl(108, 100%, 50%)" stroke-width="2"/><line x1="254.58455710828002" y1="1033.2977494397483" x2="1789.7861796035083" y2="1135.4079082488024" stroke="hsl(118, 100%, 50%)" stroke-width="2"/><line x1="297.8950840455285" y1="871.6606624073563" x2="1784.298877196118" y2="1303.0276568473382" stroke="hsl(128, 100%, 50%)" stroke-width="2"/><line x1="368.61561236693797" y1="720.0000000000016" x2="1732.1259243364811" y2="1462.4154656592145" stroke="hsl(138, 100%, 50%)" stroke-width="2"/><line x1="464.59733460578195" y1="582.9238947009212" x2="1637.4359551523157" y2="1600.8362023421514" stroke="hsl(148, 100%, 50%)" stroke-width="2"/><line x1="582.9238947009205" y1="464.5973346057825" x2="1507.7947257578167" y2="1707.2300097231703" stroke="hsl(158, 100%, 50%)" stroke-width="2"/><line x1="720.0000000000008" y1="368.6156123669384" x2="1353.560608136785" y2="1773.0959916076517" stroke="hsl(168, 100%, 50%)" stroke-width="2"/><line x1="871.6606624073555" y1="297.89508404552885" x2="1187.0569532044537" y2="1793.1714368610017" stroke="hsl(178, 100%, 50%)" stroke-width="2"/><line x1="1033.2977494397473" y1="254.58455710828025" x2="1021.5874514804619" y2="1765.8523115609412" stroke="hsl(188, 100%, 50%)" stroke-width="2"/><line x1="1199.999999999997" y1="240" x2="870.3731643419404" y2="1693.3214217750447" stroke="hsl(198, 100%, 50%)" stroke-width="2"/><line x1="1366.7022505602533" y1="254.58455710828025" x2="745.4961573691057" y2="1581.3740067202384" stroke="hsl(208, 100%, 50%)" stroke-width="2"/><line x1="1528.3393375926387" y1="297.8950840455267" x2="656.9341397867923" y2="1438.954697461644" stroke="hsl(218, 100%, 50%)" stroke-width="2"/><line x1="1679.9999999999998" y1="368.61561236693876" x2="611.7632425915752" y2="1277.442838285532" stroke="hsl(228, 100%, 50%)" stroke-width="2"/><line x1="1817.0761052990747" y1="464.59733460577866" x2="613.5926336243895" y2="1109.7432737768681" stroke="hsl(238, 100%, 50%)" stroke-width="2"/><line x1="1935.4026653942185" y1="582.9238947009218" x2="662.2761440089428" y2="949.255247978735" stroke="hsl(248, 100%, 50%)" stroke-width="2"/><line x1="2031.3843876330625" y1="720.0000000000023" x2="753.9239470875004" y2="808.8018008910292" stroke="hsl(258, 100%, 50%)" stroke-width="2"/><line x1="2102.104915954472" y1="871.660662407357" x2="881.2133567036703" y2="699.6052038400524" stroke="hsl(268, 100%, 50%)" stroke-width="2"/><line x1="2145.41544289172" y1="1033.2977494397492" x2="1033.9739119588558" y2="630.3902967313046" stroke="hsl(278, 100%, 50%)" stroke-width="2"/><line x1="2160" y1="1199.9999999999986" x2="1199.9999999999975" y2="606.6873708001009" stroke="hsl(-72, 100%, 50%)" stroke-width="2"/><line x1="2145.4154428917195" y1="1366.702250560255" x2="1366.0260880411436" y2="630.3902967313044" stroke="hsl(-62, 100%, 50%)" stroke-width="2"/><line x1="2102.1049159544727" y1="1528.3393375926403" x2="1518.786643296329" y2="699.6052038400519" stroke="hsl(-52, 100%, 50%)" stroke-width="2"/><line x1="2031.3843876330604" y1="1680.0000000000014" x2="1646.0760529124989" y2="808.8018008910287" stroke="hsl(-42, 100%, 50%)" stroke-width="2"/><line x1="1935.4026653942203" y1="1817.076105299076" x2="1737.723855991057" y2="949.2552479787344" stroke="hsl(-32, 100%, 50%)" stroke-width="2"/><line x1="1817.076105299077" y1="1935.4026653942196" x2="1786.4073663756105" y2="1109.7432737768672" stroke="hsl(-22, 100%, 50%)" stroke-width="2"/><line x1="1680.0000000000023" y1="2031.3843876330598" x2="1788.2367574084246" y2="1277.4428382855313" stroke="hsl(-12, 100%, 50%)" stroke-width="2"/><line x1="1528.3393375926414" y1="2102.1049159544723" x2="1743.065860213208" y2="1438.9546974616433" stroke="hsl(-2, 100%, 50%)" stroke-width="2"/><line x1="1366.702250560256" y1="2145.415442891719" x2="1654.5038426308947" y2="1581.3740067202377" stroke="hsl(8, 100%, 50%)" stroke-width="2"/><line x1="1199.9999999999998" y1="2160" x2="1529.6268356580601" y2="1693.3214217750442" stroke="hsl(18, 100%, 50%)" stroke-width="2"/><line x1="1033.29774943975" y1="2145.4154428917204" x2="1378.4125485195348" y2="1765.8523115609423" stroke="hsl(28, 100%, 50%)" stroke-width="2"/><line x1="871.6606624073581" y1="2102.104915954472" x2="1212.9430467955513" y2="1793.1714368610014" stroke="hsl(38, 100%, 50%)" stroke-width="2"/><line x1="720.0000000000032" y1="2031.384387633063" x2="1046.4393918632156" y2="1773.095991607652" stroke="hsl(48, 100%, 50%)" stroke-width="2"/><line x1="582.9238947009227" y1="1935.4026653942192" x2="892.2052742421803" y2="1707.2300097231685" stroke="hsl(58, 100%, 50%)" stroke-width="2"/><line x1="464.59733460577945" y1="1817.0761052990756" x2="762.5640448476875" y2="1600.836202342155" stroke="hsl(68, 100%, 50%)" stroke-width="2"/><line x1="368.61561236693933" y1="1680.000000000001" x2="667.8740756635191" y2="1462.4154656592152" stroke="hsl(78, 100%, 50%)" stroke-width="2"/><line x1="297.89508404552714" y1="1528.3393375926398" x2="615.7011228038815" y2="1303.0276568473348" stroke="hsl(88, 100%, 50%)" stroke-width="2"/><line x1="254.58455710828048" y1="1366.7022505602545" x2="610.2138203964911" y2="1135.4079082488074" stroke="hsl(98, 100%, 50%)" stroke-width="2"/><line x1="240" y1="1199.9999999999982" x2="651.8506055017547" y2="972.949086592227" stroke="hsl(108, 100%, 50%)" stroke-width="2"/><line x1="254.58455710828002" y1="1033.2977494397485" x2="737.2846868639597" y2="828.6316990405442" stroke="hsl(118, 100%, 50%)" stroke-width="2"/><line x1="297.8950840455284" y1="871.6606624073565" x2="859.6898565014496" y2="713.9867468884279" stroke="hsl(128, 100%, 50%)" stroke-width="2"/><line x1="368.61561236693785" y1="720.0000000000018" x2="1009.2859057123709" y2="638.1743952006581" stroke="hsl(138, 100%, 50%)" stroke-width="2"/><line x1="464.59733460578184" y1="582.9238947009213" x2="1174.1200665981858" y2="607.2520729557845" stroke="hsl(148, 100%, 50%)" stroke-width="2"/><line x1="582.9238947009203" y1="464.59733460578275" x2="1341.0220416997624" y2="623.6904827066211" stroke="hsl(158, 100%, 50%)" stroke-width="2"/><line x1="720.0000000000006" y1="368.61561236693854" x2="1496.656314599949" y2="686.1761907267501" stroke="hsl(168, 100%, 50%)" stroke-width="2"/><line x1="871.6606624073553" y1="297.89508404552896" x2="1628.587661568931" y2="789.7165707477666" stroke="hsl(178, 100%, 50%)" stroke-width="2"/><line x1="1033.2977494397471" y1="254.58455710828025" x2="1726.274729561762" y2="926.0387162521113" stroke="hsl(188, 100%, 50%)" stroke-width="2"/><line x1="1199.9999999999968" y1="240" x2="1781.9122933966007" y2="1084.2504481131548" stroke="hsl(198, 100%, 50%)" stroke-width="2"/><line x1="1366.702250560253" y1="254.58455710828025" x2="1791.0548955198133" y2="1251.7106028794847" stroke="hsl(208, 100%, 50%)" stroke-width="2"/><line x1="1528.3393375926385" y1="297.8950840455267" x2="1752.9720393591747" y2="1415.0390654161529" stroke="hsl(218, 100%, 50%)" stroke-width="2"/><line x1="1679.9999999999995" y1="368.61561236693865" x2="1670.706556212716" y2="1561.1858440006506" stroke="hsl(228, 100%, 50%)" stroke-width="2"/><line x1="1817.0761052990747" y1="464.5973346057784" x2="1550.831482141864" y2="1678.473768462013" stroke="hsl(238, 100%, 50%)" stroke-width="2"/><line x1="1935.4026653942183" y1="582.9238947009216" x2="1402.9248704758832" y2="1757.5314994782295" stroke="hsl(248, 100%, 50%)" stroke-width="2"/><line x1="2031.3843876330623" y1="720.000000000002" x2="1238.8045025614388" y2="1792.042301317276" stroke="hsl(258, 100%, 50%)" stroke-width="2"/><line x1="2102.104915954472" y1="871.6606624073569" x2="1071.5836435913723" y2="1779.248750861691" stroke="hsl(268, 100%, 50%)" stroke-width="2"/><line x1="2145.41544289172" y1="1033.2977494397487" x2="914.6232888968198" y2="1720.1730565187213" stroke="hsl(278, 100%, 50%)" stroke-width="2"/><line x1="2160" y1="1199.9999999999984" x2="780.4646165291333" y2="1619.5353834708699" stroke="hsl(-72, 100%, 50%)" stroke-width="2"/><line x1="2145.4154428917195" y1="1366.7022505602547" x2="679.8269434812808" y2="1485.376711103184" stroke="hsl(-62, 100%, 50%)" stroke-width="2"/><line x1="2102.1049159544727" y1="1528.33933759264" x2="620.7512491383081" y2="1328.4163564086239" stroke="hsl(-52, 100%, 50%)" stroke-width="2"/><line x1="2031.3843876330607" y1="1680.0000000000011" x2="607.9576986827236" y2="1161.1954974385656" stroke="hsl(-42, 100%, 50%)" stroke-width="2"/><line x1="1935.4026653942205" y1="1817.0761052990758" x2="642.468500521769" y2="997.0751295241209" stroke="hsl(-32, 100%, 50%)" stroke-width="2"/><line x1="1817.0761052990772" y1="1935.4026653942194" x2="721.5262315379895" y2="849.1685178581328" stroke="hsl(-22, 100%, 50%)" stroke-width="2"/><line x1="1680.0000000000025" y1="2031.3843876330598" x2="838.814155999346" y2="729.2934437872867" stroke="hsl(-12, 100%, 50%)" stroke-width="2"/><line x1="1528.3393375926416" y1="2102.1049159544723" x2="984.9609345838431" y2="647.027960640827" stroke="hsl(-2, 100%, 50%)" stroke-width="2"/><line x1="1366.7022505602563" y1="2145.415442891719" x2="1148.2893971205194" y2="608.9451044801865" stroke="hsl(8, 100%, 50%)" stroke-width="2"/><line x1="1200" y1="2160" x2="1315.749551886841" y2="618.0877066033984" stroke="hsl(18, 100%, 50%)" stroke-width="2"/><line x1="1033.2977494397505" y1="2145.4154428917204" x2="1473.9612837478849" y2="673.725270438236" stroke="hsl(28, 100%, 50%)" stroke-width="2"/><line x1="871.6606624073584" y1="2102.1049159544723" x2="1610.2834292522364" y2="771.4123384310718" stroke="hsl(38, 100%, 50%)" stroke-width="2"/><line x1="720.0000000000034" y1="2031.384387633063" x2="1713.8238092732477" y2="903.3436854000474" stroke="hsl(48, 100%, 50%)" stroke-width="2"/><line x1="582.9238947009228" y1="1935.4026653942194" x2="1776.309517293378" y2="1058.9779583002332" stroke="hsl(58, 100%, 50%)" stroke-width="2"/><line x1="464.59733460577945" y1="1817.0761052990758" x2="1792.7479270442154" y2="1225.8799334018183" stroke="hsl(68, 100%, 50%)" stroke-width="2"/><line x1="368.61561236693944" y1="1680.0000000000011" x2="1761.8256047993432" y2="1390.714094287625" stroke="hsl(78, 100%, 50%)" stroke-width="2"/><line x1="297.89508404552726" y1="1528.33933759264" x2="1686.0132531115746" y2="1540.3101434985467" stroke="hsl(88, 100%, 50%)" stroke-width="2"/><line x1="254.58455710828048" y1="1366.7022505602547" x2="1571.3683009594529" y2="1662.715313136043" stroke="hsl(98, 100%, 50%)" stroke-width="2"/><line x1="240" y1="1199.9999999999984" x2="1427.050913407777" y2="1748.1493944982435" stroke="hsl(108, 100%, 50%)" stroke-width="2"/><line x1="254.5845571082799" y1="1033.2977494397487" x2="1264.592091751197" y2="1789.7861796035086" stroke="hsl(118, 100%, 50%)" stroke-width="2"/><line x1="297.8950840455284" y1="871.6606624073569" x2="1096.972343152661" y2="1784.2988771961177" stroke="hsl(128, 100%, 50%)" stroke-width="2"/><line x1="368.61561236693774" y1="720.000000000002" x2="937.5845343407887" y2="1732.1259243364827" stroke="hsl(138, 100%, 50%)" stroke-width="2"/><line x1="464.5973346057816" y1="582.9238947009216" x2="799.1637976578482" y2="1637.4359551523155" stroke="hsl(148, 100%, 50%)" stroke-width="2"/><line x1="582.9238947009202" y1="464.59733460578286" x2="692.7699902768295" y2="1507.7947257578162" stroke="hsl(158, 100%, 50%)" stroke-width="2"/><line x1="720.0000000000005" y1="368.61561236693865" x2="626.904008392349" y2="1353.5606081367885" stroke="hsl(168, 100%, 50%)" stroke-width="2"/><line x1="871.6606624073551" y1="297.89508404552896" x2="606.8285631389983" y2="1187.056953204453" stroke="hsl(178, 100%, 50%)" stroke-width="2"/><line x1="1033.297749439747" y1="254.58455710828025" x2="634.147688439059" y2="1021.5874514804614" stroke="hsl(188, 100%, 50%)" stroke-width="2"/><line x1="1199.9999999999964" y1="240" x2="706.678578224958" y2="870.3731643419364" stroke="hsl(198, 100%, 50%)" stroke-width="2"/><line x1="1366.7022505602529" y1="254.58455710828025" x2="818.625993279759" y2="745.4961573691081" stroke="hsl(208, 100%, 50%)" stroke-width="2"/><line x1="1528.3393375926382" y1="297.8950840455266" x2="961.0453025383565" y2="656.9341397867921" stroke="hsl(218, 100%, 50%)" stroke-width="2"/><line x1="1679.9999999999995" y1="368.61561236693854" x2="1122.5571617144728" y2="611.7632425915747" stroke="hsl(228, 100%, 50%)" stroke-width="2"/><line x1="1817.0761052990797" y1="464.59733460578275" x2="1290.2567262231285" y2="613.5926336243889" stroke="hsl(238, 100%, 50%)" stroke-width="2"/><line x1="1935.4026653942183" y1="582.9238947009213" x2="1450.7447520212654" y2="662.2761440089429" stroke="hsl(248, 100%, 50%)" stroke-width="2"/><line x1="2031.384387633062" y1="720.0000000000018" x2="1591.1981991089742" y2="753.9239470875036" stroke="hsl(258, 100%, 50%)" stroke-width="2"/><line x1="2102.104915954472" y1="871.6606624073565" x2="1700.3947961599458" y2="881.2133567036673" stroke="hsl(268, 100%, 50%)" stroke-width="2"/><line x1="2145.41544289172" y1="1033.2977494397485" x2="1769.6097032686955" y2="1033.9739119588562" stroke="hsl(278, 100%, 50%)" stroke-width="2"/><path d="M2156.3469101680757,1116.3304869622482A960,960 0 0 1 2156.3469101680757,1283.6695130377518" stroke-width="5" stroke="hsl(-72, 100%, 50%)" fill="none"/><path d="M2156.3469101680757,1283.6695130377518A960,960 0 0 1 2127.2887932375056,1448.46628329842" stroke-width="5" stroke="hsl(-62, 100%, 50%)" fill="none"/><path d="M2127.2887932375056,1448.46628329842A960,960 0 0 1 2070.055475555184,1605.7135312710716" stroke-width="5" stroke="hsl(-52, 100%, 50%)" fill="none"/><path d="M2070.055475555184,1605.7135312710716A960,960 0 0 1 1986.3859625174323,1750.6333788970041" stroke-width="5" stroke="hsl(-42, 100%, 50%)" fill="none"/><path d="M1986.3859625174323,1750.6333788970041A960,960 0 0 1 1878.8225099390856,1878.8225099390856" stroke-width="5" stroke="hsl(-32, 100%, 50%)" fill="none"/><path d="M1878.8225099390856,1878.8225099390856A960,960 0 0 1 1750.6333788970041,1986.3859625174323" stroke-width="5" stroke="hsl(-22, 100%, 50%)" fill="none"/><path d="M1750.6333788970041,1986.3859625174323A960,960 0 0 1 1605.7135312710716,2070.055475555184" stroke-width="5" stroke="hsl(-12, 100%, 50%)" fill="none"/><path d="M1605.7135312710716,2070.055475555184A960,960 0 0 1 1448.46628329842,2127.2887932375056" stroke-width="5" stroke="hsl(-2, 100%, 50%)" fill="none"/><path d="M1448.46628329842,2127.2887932375056A960,960 0 0 1 1283.6695130377518,2156.3469101680757" stroke-width="5" stroke="hsl(8, 100%, 50%)" fill="none"/><path d="M1283.6695130377518,2156.3469101680757A960,960 0 0 1 1116.3304869622482,2156.3469101680757" stroke-width="5" stroke="hsl(18, 100%, 50%)" fill="none"/><path d="M1116.3304869622482,2156.3469101680757A960,960 0 0 1 951.53371670158,2127.2887932375056" stroke-width="5" stroke="hsl(28, 100%, 50%)" fill="none"/><path d="M951.53371670158,2127.2887932375056A960,960 0 0 1 794.2864687289286,2070.055475555184" stroke-width="5" stroke="hsl(38, 100%, 50%)" fill="none"/><path d="M794.2864687289286,2070.055475555184A960,960 0 0 1 649.3666211029957,1986.385962517432" stroke-width="5" stroke="hsl(48, 100%, 50%)" fill="none"/><path d="M649.3666211029957,1986.385962517432A960,960 0 0 1 521.1774900609145,1878.8225099390856" stroke-width="5" stroke="hsl(58, 100%, 50%)" fill="none"/><path d="M521.1774900609145,1878.8225099390856A960,960 0 0 1 413.6140374825677,1750.6333788970041" stroke-width="5" stroke="hsl(68, 100%, 50%)" fill="none"/><path d="M413.6140374825677,1750.6333788970041A960,960 0 0 1 329.944524444816,1605.7135312710716" stroke-width="5" stroke="hsl(78, 100%, 50%)" fill="none"/><path d="M329.944524444816,1605.7135312710716A960,960 0 0 1 272.7112067624945,1448.4662832984202" stroke-width="5" stroke="hsl(88, 100%, 50%)" fill="none"/><path d="M272.7112067624945,1448.4662832984202A960,960 0 0 1 243.65308983192426,1283.6695130377518" stroke-width="5" stroke="hsl(98, 100%, 50%)" fill="none"/><path d="M243.65308983192426,1283.6695130377518A960,960 0 0 1 243.65308983192426,1116.3304869622484" stroke-width="5" stroke="hsl(108, 100%, 50%)" fill="none"/><path d="M243.65308983192426,1116.3304869622484A960,960 0 0 1 272.7112067624944,951.53371670158" stroke-width="5" stroke="hsl(118, 100%, 50%)" fill="none"/><path d="M272.7112067624944,951.53371670158A960,960 0 0 1 329.9445244448159,794.2864687289286" stroke-width="5" stroke="hsl(128, 100%, 50%)" fill="none"/><path d="M329.9445244448159,794.2864687289286A960,960 0 0 1 413.6140374825678,649.3666211029957" stroke-width="5" stroke="hsl(138, 100%, 50%)" fill="none"/><path d="M413.6140374825678,649.3666211029957A960,960 0 0 1 521.1774900609142,521.1774900609145" stroke-width="5" stroke="hsl(148, 100%, 50%)" fill="none"/><path d="M521.1774900609142,521.1774900609145A960,960 0 0 1 649.3666211029955,413.61403748256805" stroke-width="5" stroke="hsl(158, 100%, 50%)" fill="none"/><path d="M649.3666211029955,413.61403748256805A960,960 0 0 1 794.2864687289289,329.9445244448159" stroke-width="5" stroke="hsl(168, 100%, 50%)" fill="none"/><path d="M794.2864687289289,329.9445244448159A960,960 0 0 1 951.5337167015803,272.7112067624944" stroke-width="5" stroke="hsl(178, 100%, 50%)" fill="none"/><path d="M951.5337167015803,272.7112067624944A960,960 0 0 1 1116.330486962248,243.65308983192426" stroke-width="5" stroke="hsl(188, 100%, 50%)" fill="none"/><path d="M1116.330486962248,243.65308983192426A960,960 0 0 1 1283.6695130377516,243.65308983192426" stroke-width="5" stroke="hsl(198, 100%, 50%)" fill="none"/><path d="M1283.6695130377516,243.65308983192426A960,960 0 0 1 1448.4662832984195,272.71120676249427" stroke-width="5" stroke="hsl(208, 100%, 50%)" fill="none"/><path d="M1448.4662832984195,272.71120676249427A960,960 0 0 1 1605.7135312710716,329.9445244448161" stroke-width="5" stroke="hsl(218, 100%, 50%)" fill="none"/><path d="M1605.7135312710716,329.9445244448161A960,960 0 0 1 1750.6333788970041,413.6140374825678" stroke-width="5" stroke="hsl(228, 100%, 50%)" fill="none"/><path d="M1750.6333788970041,413.6140374825678A960,960 0 0 1 1878.8225099390854,521.1774900609142" stroke-width="5" stroke="hsl(238, 100%, 50%)" fill="none"/><path d="M1878.8225099390854,521.1774900609142A960,960 0 0 1 1986.3859625174318,649.3666211029954" stroke-width="5" stroke="hsl(248, 100%, 50%)" fill="none"/><path d="M1986.3859625174318,649.3666211029954A960,960 0 0 1 2070.055475555184,794.2864687289288" stroke-width="5" stroke="hsl(258, 100%, 50%)" fill="none"/><path d="M2070.055475555184,794.2864687289288A960,960 0 0 1 2127.2887932375056,951.5337167015801" stroke-width="5" stroke="hsl(268, 100%, 50%)" fill="none"/><path d="M2127.2887932375056,951.5337167015801A960,960 0 0 1 2156.3469101680757,1116.330486962248" stroke-width="5" stroke="hsl(278, 100%, 50%)" fill="none"/></g></svg>