<svg id="CornerReflector" xmlns="http://www.w3.org/2000/svg" viewBox="-540 -540 1080 1080"><g id="fibrays"><g transform="rotate(0, 0, 0)"><path d="M-540,-540L540,-539L-539,540Z" stroke="hsl(240.1904761904762, 100%, 50%)" stroke-width="2.5" stroke-linejoin="miter" fill="hsl(240.1904761904762, 100%, 50%)" fill-opacity="0"/></g><g transform="rotate(0, 0, 0)"><path d="M-540,-540L540,-538.3819660112501L-538.3819660112501,540Z" stroke="hsl(240.30819695023808, 100%, 50%)" stroke-width="2.5" stroke-linejoin="miter" fill="hsl(240.30819695023808, 100%, 50%)" fill-opacity="0.013333333333333332"/></g><g transform="rotate(0, 0, 0)"><path d="M-540,-540L540,-537.3819660112501L-537.3819660112501,540Z" stroke="hsl(240.49867314071426, 100%, 50%)" stroke-width="2.5" stroke-linejoin="miter" fill="hsl(240.49867314071426, 100%, 50%)" fill-opacity="0.026666666666666665"/></g><g transform="rotate(0, 0, 0)"><path d="M-540,-540L540,-535.7639320225002L-535.7639320225002,540Z" stroke="hsl(240.80687009095234, 100%, 50%)" stroke-width="2.5" stroke-linejoin="miter" fill="hsl(240.80687009095234, 100%, 50%)" fill-opacity="0.04"/></g><g transform="rotate(0, 0, 0)"><path d="M-540,-540L540,-533.1458980337503L-533.1458980337503,540Z" stroke="hsl(241.3055432316666, 100%, 50%)" stroke-width="2.5" stroke-linejoin="miter" fill="hsl(241.3055432316666, 100%, 50%)" fill-opacity="0.05333333333333333"/></g><g transform="rotate(0, 0, 0)"><path d="M-540,-540L540,-528.9098300562505L-528.9098300562505,540Z" stroke="hsl(242.11241332261895, 100%, 50%)" stroke-width="2.5" stroke-linejoin="miter" fill="hsl(242.11241332261895, 100%, 50%)" fill-opacity="0.06666666666666667"/></g><g transform="rotate(0, 0, 0)"><path d="M-540,-540L540,-522.0557280900008L-522.0557280900008,540Z" stroke="hsl(243.41795655428555, 100%, 50%)" stroke-width="2.5" stroke-linejoin="miter" fill="hsl(243.41795655428555, 100%, 50%)" fill-opacity="0.08"/></g><g transform="rotate(0, 0, 0)"><path d="M-540,-540L540,-510.96555814625134L-510.96555814625134,540Z" stroke="hsl(245.5303698769045, 100%, 50%)" stroke-width="2.5" stroke-linejoin="miter" fill="hsl(245.5303698769045, 100%, 50%)" fill-opacity="0.09333333333333334"/></g><g transform="rotate(0, 0, 0)"><path d="M-540,-540L540,-493.0212862362522L-493.0212862362522,540Z" stroke="hsl(248.94832643119005, 100%, 50%)" stroke-width="2.5" stroke-linejoin="miter" fill="hsl(248.94832643119005, 100%, 50%)" fill-opacity="0.10666666666666666"/></g><g transform="rotate(0, 0, 0)"><path d="M-540,-540L540,-463.9868443825036L-463.9868443825036,540Z" stroke="hsl(254.47869630809456, 100%, 50%)" stroke-width="2.5" stroke-linejoin="miter" fill="hsl(254.47869630809456, 100%, 50%)" fill-opacity="0.12"/></g><g transform="rotate(0, 0, 0)"><path d="M-540,-540L540,-417.0081306187558L-417.0081306187558,540Z" stroke="hsl(263.4270227392846, 100%, 50%)" stroke-width="2.5" stroke-linejoin="miter" fill="hsl(263.4270227392846, 100%, 50%)" fill-opacity="0.13333333333333333"/></g><g transform="rotate(0, 0, 0)"><path d="M-540,-540L540,-340.9949750012593L-340.9949750012593,540Z" stroke="hsl(277.9057190473792, 100%, 50%)" stroke-width="2.5" stroke-linejoin="miter" fill="hsl(277.9057190473792, 100%, 50%)" fill-opacity="0.14666666666666667"/></g><g transform="rotate(0, 0, 0)"><path d="M-540,-540L540,-218.00310562001505L-218.00310562001505,540Z" stroke="hsl(301.3327417866638, 100%, 50%)" stroke-width="2.5" stroke-linejoin="miter" fill="hsl(301.3327417866638, 100%, 50%)" fill-opacity="0.16"/></g><g transform="rotate(0, 0, 0)"><path d="M-540,-540L540,-18.998080621274312L-18.998080621274312,540Z" stroke="hsl(339.238460834043, 100%, 50%)" stroke-width="2.5" stroke-linejoin="miter" fill="hsl(339.238460834043, 100%, 50%)" fill-opacity="0.17333333333333334"/></g><g transform="rotate(0, 0, 0)"><path d="M-540,-540L540,302.99881375871064L302.99881375871064,540Z" stroke="hsl(400.5712026207068, 100%, 50%)" stroke-width="2.5" stroke-linejoin="miter" fill="hsl(400.5712026207068, 100%, 50%)" fill-opacity="0.18666666666666668"/></g></g></svg>