<svg id="Elliptical" xmlns="http://www.w3.org/2000/svg" viewBox="-2160 -2160 4320 4320"><defs><mask id="mask"><rect x="-2160" y="-2160" width="4320" height="4320" fill="black"/><circle cx="0" cy="0" r="1944" fill="white"/></mask><g id="raything"><path d="M0,-1866.24L1944,0"/><path d="M0,-1866.24L1941.3358,101.7411"/><path d="M0,-1866.24L1933.3506,203.2033"/><path d="M0,-1866.24L1920.0661,304.1086"/><path d="M0,-1866.24L1901.5189,404.1803"/><path d="M0,-1866.24L1877.7598,503.1442"/><path d="M0,-1866.24L1848.8539,600.729"/><path d="M0,-1866.24L1814.8803,696.6673"/><path d="M0,-1866.24L1775.9324,790.696"/><path d="M0,-1866.24L1732.1167,882.5575"/><path d="M0,-1866.24L1683.5534,972"/><path d="M0,-1866.24L1630.3756,1058.7783"/><path d="M0,-1866.24L1572.729,1142.6545"/><path d="M0,-1866.24L1510.7717,1223.3988"/><path d="M0,-1866.24L1444.6735,1300.7899"/><path d="M0,-1866.24L1374.6156,1374.6156"/><path d="M0,-1866.24L1300.7899,1444.6735"/><path d="M0,-1866.24L1223.3988,1510.7717"/><path d="M0,-1866.24L1142.6545,1572.729"/><path d="M0,-1866.24L1058.7783,1630.3756"/><path d="M0,-1866.24L972,1683.5534"/><path d="M0,-1866.24L882.5575,1732.1167"/><path d="M0,-1866.24L790.696,1775.9324"/><path d="M0,-1866.24L696.6673,1814.8803"/><path d="M0,-1866.24L600.729,1848.8539"/><path d="M0,-1866.24L503.1442,1877.7598"/><path d="M0,-1866.24L404.1803,1901.5189"/><path d="M0,-1866.24L304.1086,1920.0661"/><path d="M0,-1866.24L203.2033,1933.3506"/><path d="M0,-1866.24L101.7411,1941.3358"/><path d="M0,-1866.24L0,1944"/><path d="M0,-1866.24L-101.7411,1941.3358"/><path d="M0,-1866.24L-203.2033,1933.3506"/><path d="M0,-1866.24L-304.1086,1920.0661"/><path d="M0,-1866.24L-404.1803,1901.5189"/><path d="M0,-1866.24L-503.1442,1877.7598"/><path d="M0,-1866.24L-600.729,1848.8539"/><path d="M0,-1866.24L-696.6673,1814.8803"/><path d="M0,-1866.24L-790.696,1775.9324"/><path d="M0,-1866.24L-882.5575,1732.1167"/><path d="M0,-1866.24L-972,1683.5534"/><path d="M0,-1866.24L-1058.7783,1630.3756"/><path d="M0,-1866.24L-1142.6545,1572.729"/><path d="M0,-1866.24L-1223.3988,1510.7717"/><path d="M0,-1866.24L-1300.7899,1444.6735"/><path d="M0,-1866.24L-1374.6156,1374.6156"/><path d="M0,-1866.24L-1444.6735,1300.7899"/><path d="M0,-1866.24L-1510.7717,1223.3988"/><path d="M0,-1866.24L-1572.729,1142.6545"/><path d="M0,-1866.24L-1630.3756,1058.7783"/><path d="M0,-1866.24L-1683.5534,972"/><path d="M0,-1866.24L-1732.1167,882.5575"/><path d="M0,-1866.24L-1775.9324,790.696"/><path d="M0,-1866.24L-1814.8803,696.6673"/><path d="M0,-1866.24L-1848.8539,600.729"/><path d="M0,-1866.24L-1877.7598,503.1442"/><path d="M0,-1866.24L-1901.5189,404.1803"/><path d="M0,-1866.24L-1920.0661,304.1086"/><path d="M0,-1866.24L-1933.3506,203.2033"/><path d="M0,-1866.24L-1941.3358,101.7411"/><path d="M0,-1866.24L-1944,0"/><path d="M0,-1866.24L-1941.3358,-101.7411"/><path d="M0,-1866.24L-1933.3506,-203.2033"/><path d="M0,-1866.24L-1920.0661,-304.1086"/><path d="M0,-1866.24L-1901.5189,-404.1803"/><path d="M0,-1866.24L-1877.7598,-503.1442"/><path d="M0,-1866.24L-1848.8539,-600.729"/><path d="M0,-1866.24L-1814.8803,-696.6673"/><path d="M0,-1866.24L-1775.9324,-790.696"/><path d="M0,-1866.24L-1732.1167,-882.5575"/><path d="M0,-1866.24L-1683.5534,-972"/><path d="M0,-1866.24L-1630.3756,-1058.7783"/><path d="M0,-1866.24L-1572.729,-1142.6545"/><path d="M0,-1866.24L-1510.7717,-1223.3988"/><path d="M0,-1866.24L-1444.6735,-1300.7899"/><path d="M0,-1866.24L-1374.6156,-1374.6156"/><path d="M0,-1866.24L-1300.7899,-1444.6735"/><path d="M0,-1866.24L-1223.3988,-1510.7717"/><path d="M0,-1866.24L-1142.6545,-1572.729"/><path d="M0,-1866.24L-1058.7783,-1630.3756"/><path d="M0,-1866.24L-972,-1683.5534"/><path d="M0,-1866.24L-882.5575,-1732.1167"/><path d="M0,-1866.24L-790.696,-1775.9324"/><path d="M0,-1866.24L-696.6673,-1814.8803"/><path d="M0,-1866.24L-600.729,-1848.8539"/><path d="M0,-1866.24L-503.1442,-1877.7598"/><path d="M0,-1866.24L-404.1803,-1901.5189"/><path d="M0,-1866.24L-304.1086,-1920.0661"/><path d="M0,-1866.24L-203.2033,-1933.3506"/><path d="M0,-1866.24L-101.7411,-1941.3358"/><path d="M0,-1866.24L0,-1944"/><path d="M0,-1866.24L101.7411,-1941.3358"/><path d="M0,-1866.24L203.2033,-1933.3506"/><path d="M0,-1866.24L304.1086,-1920.0661"/><path d="M0,-1866.24L404.1803,-1901.5189"/><path d="M0,-1866.24L503.1442,-1877.7598"/><path d="M0,-1866.24L600.729,-1848.8539"/><path d="M0,-1866.24L696.6673,-1814.8803"/><path d="M0,-1866.24L790.696,-1775.9324"/><path d="M0,-1866.24L882.5575,-1732.1167"/><path d="M0,-1866.24L972,-1683.5534"/><path d="M0,-1866.24L1058.7783,-1630.3756"/><path d="M0,-1866.24L1142.6545,-1572.729"/><path d="M0,-1866.24L1223.3988,-1510.7717"/><path d="M0,-1866.24L1300.7899,-1444.6735"/><path d="M0,-1866.24L1374.6156,-1374.6156"/><path d="M0,-1866.24L1444.6735,-1300.7899"/><path d="M0,-1866.24L1510.7717,-1223.3988"/><path d="M0,-1866.24L1572.729,-1142.6545"/><path d="M0,-1866.24L1630.3756,-1058.7783"/><path d="M0,-1866.24L1683.5534,-972"/><path d="M0,-1866.24L1732.1167,-882.5575"/><path d="M0,-1866.24L1775.9324,-790.696"/><path d="M0,-1866.24L1814.8803,-696.6673"/><path d="M0,-1866.24L1848.8539,-600.729"/><path d="M0,-1866.24L1877.7598,-503.1442"/><path d="M0,-1866.24L1901.5189,-404.1803"/><path d="M0,-1866.24L1920.0661,-304.1086"/><path d="M0,-1866.24L1933.3506,-203.2033"/><path d="M0,-1866.24L1941.3358,-101.7411"/></g><g id="ellipsething"><path d="M0,-1866.24L1944,0" transform="rotate(90, 972, -933.12 )"/><path d="M0,-1866.24L1941.3358,101.7411" transform="rotate(90, 970.668, -882.249 )"/><path d="M0,-1866.24L1933.3506,203.2033" transform="rotate(90, 966.675, -831.518 )"/><path d="M0,-1866.24L1920.0661,304.1086" transform="rotate(90, 960.033, -781.066 )"/><path d="M0,-1866.24L1901.5189,404.1803" transform="rotate(90, 950.759, -731.03 )"/><path d="M0,-1866.24L1877.7598,503.1442" transform="rotate(90, 938.88, -681.548 )"/><path d="M0,-1866.24L1848.8539,600.729" transform="rotate(90, 924.427, -632.755 )"/><path d="M0,-1866.24L1814.8803,696.6673" transform="rotate(90, 907.44, -584.786 )"/><path d="M0,-1866.24L1775.9324,790.696" transform="rotate(90, 887.966, -537.772 )"/><path d="M0,-1866.24L1732.1167,882.5575" transform="rotate(90, 866.058, -491.841 )"/><path d="M0,-1866.24L1683.5534,972" transform="rotate(90, 841.777, -447.12 )"/><path d="M0,-1866.24L1630.3756,1058.7783" transform="rotate(90, 815.188, -403.731 )"/><path d="M0,-1866.24L1572.729,1142.6545" transform="rotate(90, 786.365, -361.793 )"/><path d="M0,-1866.24L1510.7717,1223.3988" transform="rotate(90, 755.386, -321.421 )"/><path d="M0,-1866.24L1444.6735,1300.7899" transform="rotate(90, 722.337, -282.725 )"/><path d="M0,-1866.24L1374.6156,1374.6156" transform="rotate(90, 687.308, -245.812 )"/><path d="M0,-1866.24L1300.7899,1444.6735" transform="rotate(90, 650.395, -210.783 )"/><path d="M0,-1866.24L1223.3988,1510.7717" transform="rotate(90, 611.699, -177.734 )"/><path d="M0,-1866.24L1142.6545,1572.729" transform="rotate(90, 571.327, -146.755 )"/><path d="M0,-1866.24L1058.7783,1630.3756" transform="rotate(90, 529.389, -117.932 )"/><path d="M0,-1866.24L972,1683.5534" transform="rotate(90, 486, -91.343 )"/><path d="M0,-1866.24L882.5575,1732.1167" transform="rotate(90, 441.279, -67.062 )"/><path d="M0,-1866.24L790.696,1775.9324" transform="rotate(90, 395.348, -45.154 )"/><path d="M0,-1866.24L696.6673,1814.8803" transform="rotate(90, 348.334, -25.68 )"/><path d="M0,-1866.24L600.729,1848.8539" transform="rotate(90, 300.365, -8.693 )"/><path d="M0,-1866.24L503.1442,1877.7598" transform="rotate(90, 251.572, 5.76 )"/><path d="M0,-1866.24L404.1803,1901.5189" transform="rotate(90, 202.09, 17.639 )"/><path d="M0,-1866.24L304.1086,1920.0661" transform="rotate(90, 152.054, 26.913 )"/><path d="M0,-1866.24L203.2033,1933.3506" transform="rotate(90, 101.602, 33.555 )"/><path d="M0,-1866.24L101.7411,1941.3358" transform="rotate(90, 50.871, 37.548 )"/><path d="M0,-1866.24L0,1944" transform="rotate(90, 0, 38.88 )"/><path d="M0,-1866.24L-101.7411,1941.3358" transform="rotate(90, -50.871, 37.548 )"/><path d="M0,-1866.24L-203.2033,1933.3506" transform="rotate(90, -101.602, 33.555 )"/><path d="M0,-1866.24L-304.1086,1920.0661" transform="rotate(90, -152.054, 26.913 )"/><path d="M0,-1866.24L-404.1803,1901.5189" transform="rotate(90, -202.09, 17.639 )"/><path d="M0,-1866.24L-503.1442,1877.7598" transform="rotate(90, -251.572, 5.76 )"/><path d="M0,-1866.24L-600.729,1848.8539" transform="rotate(90, -300.364, -8.693 )"/><path d="M0,-1866.24L-696.6673,1814.8803" transform="rotate(90, -348.334, -25.68 )"/><path d="M0,-1866.24L-790.696,1775.9324" transform="rotate(90, -395.348, -45.154 )"/><path d="M0,-1866.24L-882.5575,1732.1167" transform="rotate(90, -441.279, -67.062 )"/><path d="M0,-1866.24L-972,1683.5534" transform="rotate(90, -486, -91.343 )"/><path d="M0,-1866.24L-1058.7783,1630.3756" transform="rotate(90, -529.389, -117.932 )"/><path d="M0,-1866.24L-1142.6545,1572.729" transform="rotate(90, -571.327, -146.755 )"/><path d="M0,-1866.24L-1223.3988,1510.7717" transform="rotate(90, -611.699, -177.734 )"/><path d="M0,-1866.24L-1300.7899,1444.6735" transform="rotate(90, -650.395, -210.783 )"/><path d="M0,-1866.24L-1374.6156,1374.6156" transform="rotate(90, -687.308, -245.812 )"/><path d="M0,-1866.24L-1444.6735,1300.7899" transform="rotate(90, -722.337, -282.725 )"/><path d="M0,-1866.24L-1510.7717,1223.3988" transform="rotate(90, -755.386, -321.421 )"/><path d="M0,-1866.24L-1572.729,1142.6545" transform="rotate(90, -786.364, -361.793 )"/><path d="M0,-1866.24L-1630.3756,1058.7783" transform="rotate(90, -815.188, -403.731 )"/><path d="M0,-1866.24L-1683.5534,972" transform="rotate(90, -841.777, -447.12 )"/><path d="M0,-1866.24L-1732.1167,882.5575" transform="rotate(90, -866.058, -491.841 )"/><path d="M0,-1866.24L-1775.9324,790.696" transform="rotate(90, -887.966, -537.772 )"/><path d="M0,-1866.24L-1814.8803,696.6673" transform="rotate(90, -907.44, -584.786 )"/><path d="M0,-1866.24L-1848.8539,600.729" transform="rotate(90, -924.427, -632.755 )"/><path d="M0,-1866.24L-1877.7598,503.1442" transform="rotate(90, -938.88, -681.548 )"/><path d="M0,-1866.24L-1901.5189,404.1803" transform="rotate(90, -950.759, -731.03 )"/><path d="M0,-1866.24L-1920.0661,304.1086" transform="rotate(90, -960.033, -781.066 )"/><path d="M0,-1866.24L-1933.3506,203.2033" transform="rotate(90, -966.675, -831.518 )"/><path d="M0,-1866.24L-1941.3358,101.7411" transform="rotate(90, -970.668, -882.249 )"/><path d="M0,-1866.24L-1944,0" transform="rotate(90, -972, -933.12 )"/><path d="M0,-1866.24L-1941.3358,-101.7411" transform="rotate(90, -970.668, -983.991 )"/><path d="M0,-1866.24L-1933.3506,-203.2033" transform="rotate(90, -966.675, -1034.722 )"/><path d="M0,-1866.24L-1920.0661,-304.1086" transform="rotate(90, -960.033, -1085.174 )"/><path d="M0,-1866.24L-1901.5189,-404.1803" transform="rotate(90, -950.759, -1135.21 )"/><path d="M0,-1866.24L-1877.7598,-503.1442" transform="rotate(90, -938.88, -1184.692 )"/><path d="M0,-1866.24L-1848.8539,-600.729" transform="rotate(90, -924.427, -1233.484 )"/><path d="M0,-1866.24L-1814.8803,-696.6673" transform="rotate(90, -907.44, -1281.454 )"/><path d="M0,-1866.24L-1775.9324,-790.696" transform="rotate(90, -887.966, -1328.468 )"/><path d="M0,-1866.24L-1732.1167,-882.5575" transform="rotate(90, -866.058, -1374.399 )"/><path d="M0,-1866.24L-1683.5534,-972" transform="rotate(90, -841.777, -1419.12 )"/><path d="M0,-1866.24L-1630.3756,-1058.7783" transform="rotate(90, -815.188, -1462.509 )"/><path d="M0,-1866.24L-1572.729,-1142.6545" transform="rotate(90, -786.364, -1504.447 )"/><path d="M0,-1866.24L-1510.7717,-1223.3988" transform="rotate(90, -755.386, -1544.819 )"/><path d="M0,-1866.24L-1444.6735,-1300.7899" transform="rotate(90, -722.337, -1583.515 )"/><path d="M0,-1866.24L-1374.6156,-1374.6156" transform="rotate(90, -687.308, -1620.428 )"/><path d="M0,-1866.24L-1300.7899,-1444.6735" transform="rotate(90, -650.395, -1655.457 )"/><path d="M0,-1866.24L-1223.3988,-1510.7717" transform="rotate(90, -611.699, -1688.506 )"/><path d="M0,-1866.24L-1142.6545,-1572.729" transform="rotate(90, -571.327, -1719.484 )"/><path d="M0,-1866.24L-1058.7783,-1630.3756" transform="rotate(90, -529.389, -1748.308 )"/><path d="M0,-1866.24L-972,-1683.5534" transform="rotate(90, -486, -1774.897 )"/><path d="M0,-1866.24L-882.5575,-1732.1167" transform="rotate(90, -441.279, -1799.178 )"/><path d="M0,-1866.24L-790.696,-1775.9324" transform="rotate(90, -395.348, -1821.086 )"/><path d="M0,-1866.24L-696.6673,-1814.8803" transform="rotate(90, -348.334, -1840.56 )"/><path d="M0,-1866.24L-600.729,-1848.8539" transform="rotate(90, -300.364, -1857.547 )"/><path d="M0,-1866.24L-503.1442,-1877.7598" transform="rotate(90, -251.572, -1872 )"/><path d="M0,-1866.24L-404.1803,-1901.5189" transform="rotate(90, -202.09, -1883.879 )"/><path d="M0,-1866.24L-304.1086,-1920.0661" transform="rotate(90, -152.054, -1893.153 )"/><path d="M0,-1866.24L-203.2033,-1933.3506" transform="rotate(90, -101.602, -1899.795 )"/><path d="M0,-1866.24L-101.7411,-1941.3358" transform="rotate(90, -50.871, -1903.788 )"/><path d="M0,-1866.24L0,-1944" transform="rotate(90, 0, -1905.12 )"/><path d="M0,-1866.24L101.7411,-1941.3358" transform="rotate(90, 50.871, -1903.788 )"/><path d="M0,-1866.24L203.2033,-1933.3506" transform="rotate(90, 101.602, -1899.795 )"/><path d="M0,-1866.24L304.1086,-1920.0661" transform="rotate(90, 152.054, -1893.153 )"/><path d="M0,-1866.24L404.1803,-1901.5189" transform="rotate(90, 202.09, -1883.879 )"/><path d="M0,-1866.24L503.1442,-1877.7598" transform="rotate(90, 251.572, -1872 )"/><path d="M0,-1866.24L600.729,-1848.8539" transform="rotate(90, 300.365, -1857.547 )"/><path d="M0,-1866.24L696.6673,-1814.8803" transform="rotate(90, 348.334, -1840.56 )"/><path d="M0,-1866.24L790.696,-1775.9324" transform="rotate(90, 395.348, -1821.086 )"/><path d="M0,-1866.24L882.5575,-1732.1167" transform="rotate(90, 441.279, -1799.178 )"/><path d="M0,-1866.24L972,-1683.5534" transform="rotate(90, 486, -1774.897 )"/><path d="M0,-1866.24L1058.7783,-1630.3756" transform="rotate(90, 529.389, -1748.308 )"/><path d="M0,-1866.24L1142.6545,-1572.729" transform="rotate(90, 571.327, -1719.484 )"/><path d="M0,-1866.24L1223.3988,-1510.7717" transform="rotate(90, 611.699, -1688.506 )"/><path d="M0,-1866.24L1300.7899,-1444.6735" transform="rotate(90, 650.395, -1655.457 )"/><path d="M0,-1866.24L1374.6156,-1374.6156" transform="rotate(90, 687.308, -1620.428 )"/><path d="M0,-1866.24L1444.6735,-1300.7899" transform="rotate(90, 722.337, -1583.515 )"/><path d="M0,-1866.24L1510.7717,-1223.3988" transform="rotate(90, 755.386, -1544.819 )"/><path d="M0,-1866.24L1572.729,-1142.6545" transform="rotate(90, 786.365, -1504.447 )"/><path d="M0,-1866.24L1630.3756,-1058.7783" transform="rotate(90, 815.188, -1462.509 )"/><path d="M0,-1866.24L1683.5534,-972" transform="rotate(90, 841.777, -1419.12 )"/><path d="M0,-1866.24L1732.1167,-882.5575" transform="rotate(90, 866.058, -1374.399 )"/><path d="M0,-1866.24L1775.9324,-790.696" transform="rotate(90, 887.966, -1328.468 )"/><path d="M0,-1866.24L1814.8803,-696.6673" transform="rotate(90, 907.44, -1281.454 )"/><path d="M0,-1866.24L1848.8539,-600.729" transform="rotate(90, 924.427, -1233.484 )"/><path d="M0,-1866.24L1877.7598,-503.1442" transform="rotate(90, 938.88, -1184.692 )"/><path d="M0,-1866.24L1901.5189,-404.1803" transform="rotate(90, 950.759, -1135.21 )"/><path d="M0,-1866.24L1920.0661,-304.1086" transform="rotate(90, 960.033, -1085.174 )"/><path d="M0,-1866.24L1933.3506,-203.2033" transform="rotate(90, 966.675, -1034.722 )"/><path d="M0,-1866.24L1941.3358,-101.7411" transform="rotate(90, 970.668, -983.991 )"/></g></defs><use xmlns:xlink="http://www.w3.org/1999/xlink" xlink:href="#raything" stroke="hsl(270, 100%, 50%)" stroke-width="4" transform="rotate(0, 0, 0)" mask="url(#mask)"/><use xmlns:xlink="http://www.w3.org/1999/xlink" xlink:href="#raything" stroke="hsl(270, 100%, 50%)" stroke-width="4" transform="rotate(72, 0, 0)" mask="url(#mask)"/><use xmlns:xlink="http://www.w3.org/1999/xlink" xlink:href="#raything" stroke="hsl(270, 100%, 50%)" stroke-width="4" transform="rotate(144, 0, 0)" mask="url(#mask)"/><use xmlns:xlink="http://www.w3.org/1999/xlink" xlink:href="#raything" stroke="hsl(270, 100%, 50%)" stroke-width="4" transform="rotate(216, 0, 0)" mask="url(#mask)"/><use xmlns:xlink="http://www.w3.org/1999/xlink" xlink:href="#raything" stroke="hsl(270, 100%, 50%)" stroke-width="4" transform="rotate(288, 0, 0)" mask="url(#mask)"/><use xmlns:xlink="http://www.w3.org/1999/xlink" xlink:href="#ellipsething" stroke="hsl(90, 100%, 50%)" stroke-width="4" transform="rotate(0, 0, 0)" mask="url(#mask)"/><use xmlns:xlink="http://www.w3.org/1999/xlink" xlink:href="#ellipsething" stroke="hsl(90, 100%, 50%)" stroke-width="4" transform="rotate(72, 0, 0)" mask="url(#mask)"/><use xmlns:xlink="http://www.w3.org/1999/xlink" xlink:href="#ellipsething" stroke="hsl(90, 100%, 50%)" stroke-width="4" transform="rotate(144, 0, 0)" mask="url(#mask)"/><use xmlns:xlink="http://www.w3.org/1999/xlink" xlink:href="#ellipsething" stroke="hsl(90, 100%, 50%)" stroke-width="4" transform="rotate(216, 0, 0)" mask="url(#mask)"/><use xmlns:xlink="http://www.w3.org/1999/xlink" xlink:href="#ellipsething" stroke="hsl(90, 100%, 50%)" stroke-width="4" transform="rotate(288, 0, 0)" mask="url(#mask)"/></svg>