<svg id="FlowerOfLife" xmlns="http://www.w3.org/2000/svg" xmlns:xlink="http://www.w3.org/1999/xlink" viewBox="420 0 1080 1080"><defs><linearGradient id="petalGradient"><stop offset="0%" stop-color="hsl(45, 100%, 50%)"/><stop offset="100%" stop-color="hsl(0, 100%, 50%)"/></linearGradient><path id="petal" d="M1322.5119626062874,&#10;          637.134787626976 &#10;          C1481.5999461960969,&#10;          679.7622843553612 &#10;          1432.5,&#10;          540 &#10;          1500,540 &#10;          C1432.5,&#10;          540 &#10;          1481.5999461960969,&#10;          400.2377156446388 &#10;          1322.5119626062874,&#10;          442.865212373024 &#10;          " stroke="white" stroke-width="15" fill="url(#petalGradient)"/><filter id="blurrer"><feGaussianBlur in="SourceGraphic" stdDeviation="10"/></filter></defs><rect width="1920" height="1080" fill="hsl(45, 50%, 80%)"/><g id="whole" transform="rotate(-90, 960, 540)"><use xmlns:xlink="http://www.w3.org/1999/xlink" xlink:href="#petal" transform="rotate(15, 960, 540)"/><use xmlns:xlink="http://www.w3.org/1999/xlink" xlink:href="#petal" transform="rotate(45, 960, 540)"/><use xmlns:xlink="http://www.w3.org/1999/xlink" xlink:href="#petal" transform="rotate(75, 960, 540)"/><use xmlns:xlink="http://www.w3.org/1999/xlink" xlink:href="#petal" transform="rotate(105, 960, 540)"/><use xmlns:xlink="http://www.w3.org/1999/xlink" xlink:href="#petal" transform="rotate(135, 960, 540)"/><use xmlns:xlink="http://www.w3.org/1999/xlink" xlink:href="#petal" transform="rotate(165, 960, 540)"/><use xmlns:xlink="http://www.w3.org/1999/xlink" xlink:href="#petal" transform="rotate(195, 960, 540)"/><use xmlns:xlink="http://www.w3.org/1999/xlink" xlink:href="#petal" transform="rotate(225, 960, 540)"/><use xmlns:xlink="http://www.w3.org/1999/xlink" xlink:href="#petal" transform="rotate(255, 960, 540)"/><use xmlns:xlink="http://www.w3.org/1999/xlink" xlink:href="#petal" transform="rotate(285, 960, 540)"/><use xmlns:xlink="http://www.w3.org/1999/xlink" xlink:href="#petal" transform="rotate(315, 960, 540)"/><use xmlns:xlink="http://www.w3.org/1999/xlink" xlink:href="#petal" transform="rotate(345, 960, 540)"/><use xmlns:xlink="http://www.w3.org/1999/xlink" xlink:href="#petal" transform="rotate(0, 960, 540)"/><use xmlns:xlink="http://www.w3.org/1999/xlink" xlink:href="#petal" transform="rotate(30, 960, 540)"/><use xmlns:xlink="http://www.w3.org/1999/xlink" xlink:href="#petal" transform="rotate(60, 960, 540)"/><use xmlns:xlink="http://www.w3.org/1999/xlink" xlink:href="#petal" transform="rotate(90, 960, 540)"/><use xmlns:xlink="http://www.w3.org/1999/xlink" xlink:href="#petal" transform="rotate(120, 960, 540)"/><use xmlns:xlink="http://www.w3.org/1999/xlink" xlink:href="#petal" transform="rotate(150, 960, 540)"/><use xmlns:xlink="http://www.w3.org/1999/xlink" xlink:href="#petal" transform="rotate(180, 960, 540)"/><use xmlns:xlink="http://www.w3.org/1999/xlink" xlink:href="#petal" transform="rotate(210, 960, 540)"/><use xmlns:xlink="http://www.w3.org/1999/xlink" xlink:href="#petal" transform="rotate(240, 960, 540)"/><use xmlns:xlink="http://www.w3.org/1999/xlink" xlink:href="#petal" transform="rotate(270, 960, 540)"/><use xmlns:xlink="http://www.w3.org/1999/xlink" xlink:href="#petal" transform="rotate(300, 960, 540)"/><use xmlns:xlink="http://www.w3.org/1999/xlink" xlink:href="#petal" transform="rotate(330, 960, 540)"/><g id="flowerOfLife"><circle cx="960" cy="540" r="135" fill="none" stroke="hsl(45, 100%, 25%)" stroke-width="15"/><circle cx="1230" cy="540" r="135" fill="hsl(45, 50%, 80%)"/><circle cx="1095" cy="773.8268590217984" r="135" fill="hsl(45, 50%, 80%)"/><circle cx="825" cy="773.8268590217984" r="135" fill="hsl(45, 50%, 80%)"/><circle cx="690" cy="540" r="135" fill="hsl(45, 50%, 80%)"/><circle cx="824.9999999999999" cy="306.1731409782016" r="135" fill="hsl(45, 50%, 80%)"/><circle cx="1095" cy="306.17314097820156" r="135" fill="hsl(45, 50%, 80%)"/><g id="radial-0"><circle cx="1230" cy="540" r="135" fill="none" stroke="hsl(45, 100%, 25%)" stroke-width="15"/><circle cx="1095" cy="540" r="135" fill="none" stroke="hsl(45, 100%, 25%)" stroke-width="15"/><circle cx="1162.2602330538557" cy="423.225" r="135" fill="none" stroke="hsl(45, 100%, 25%)" stroke-width="15"/></g><g id="radial-60"><circle cx="1095" cy="773.8268590217984" r="135" fill="none" stroke="hsl(45, 100%, 25%)" stroke-width="15"/><circle cx="1027.5" cy="656.9134295108992" r="135" fill="none" stroke="hsl(45, 100%, 25%)" stroke-width="15"/><circle cx="1162.2602330538557" cy="656.775" r="135" fill="none" stroke="hsl(45, 100%, 25%)" stroke-width="15"/></g><g id="radial-120"><circle cx="825" cy="773.8268590217984" r="135" fill="none" stroke="hsl(45, 100%, 25%)" stroke-width="15"/><circle cx="892.5" cy="656.9134295108993" r="135" fill="none" stroke="hsl(45, 100%, 25%)" stroke-width="15"/><circle cx="960" cy="773.55" r="135" fill="none" stroke="hsl(45, 100%, 25%)" stroke-width="15"/></g><g id="radial-180"><circle cx="690" cy="540" r="135" fill="none" stroke="hsl(45, 100%, 25%)" stroke-width="15"/><circle cx="825" cy="540" r="135" fill="none" stroke="hsl(45, 100%, 25%)" stroke-width="15"/><circle cx="757.7397669461443" cy="656.775" r="135" fill="none" stroke="hsl(45, 100%, 25%)" stroke-width="15"/></g><g id="radial-240"><circle cx="824.9999999999999" cy="306.1731409782016" r="135" fill="none" stroke="hsl(45, 100%, 25%)" stroke-width="15"/><circle cx="892.5" cy="423.08657048910084" r="135" fill="none" stroke="hsl(45, 100%, 25%)" stroke-width="15"/><circle cx="757.7397669461443" cy="423.22499999999997" r="135" fill="none" stroke="hsl(45, 100%, 25%)" stroke-width="15"/></g><g id="radial-300"><circle cx="1095" cy="306.17314097820156" r="135" fill="none" stroke="hsl(45, 100%, 25%)" stroke-width="15"/><circle cx="1027.5" cy="423.0865704891008" r="135" fill="none" stroke="hsl(45, 100%, 25%)" stroke-width="15"/><circle cx="960" cy="306.45" r="135" fill="none" stroke="hsl(45, 100%, 25%)" stroke-width="15"/></g></g><g id="flowerOfLifeInner"><circle cx="960" cy="540" r="135" fill="none" stroke="hsl(45, 100%, 50%)" stroke-width="9.270704573547588"/><g id="radial-0"><circle cx="1230" cy="540" r="135" fill="none" stroke="hsl(45, 100%, 50%)" stroke-width="9.270704573547588"/><circle cx="1095" cy="540" r="135" fill="none" stroke="hsl(45, 100%, 50%)" stroke-width="9.270704573547588"/><circle cx="1162.2602330538557" cy="423.225" r="135" fill="none" stroke="hsl(45, 100%, 50%)" stroke-width="9.270704573547588"/></g><g id="radial-60"><circle cx="1095" cy="773.8268590217984" r="135" fill="none" stroke="hsl(45, 100%, 50%)" stroke-width="9.270704573547588"/><circle cx="1027.5" cy="656.9134295108992" r="135" fill="none" stroke="hsl(45, 100%, 50%)" stroke-width="9.270704573547588"/><circle cx="1162.2602330538557" cy="656.775" r="135" fill="none" stroke="hsl(45, 100%, 50%)" stroke-width="9.270704573547588"/></g><g id="radial-120"><circle cx="825" cy="773.8268590217984" r="135" fill="none" stroke="hsl(45, 100%, 50%)" stroke-width="9.270704573547588"/><circle cx="892.5" cy="656.9134295108993" r="135" fill="none" stroke="hsl(45, 100%, 50%)" stroke-width="9.270704573547588"/><circle cx="960" cy="773.55" r="135" fill="none" stroke="hsl(45, 100%, 50%)" stroke-width="9.270704573547588"/></g><g id="radial-180"><circle cx="690" cy="540" r="135" fill="none" stroke="hsl(45, 100%, 50%)" stroke-width="9.270704573547588"/><circle cx="825" cy="540" r="135" fill="none" stroke="hsl(45, 100%, 50%)" stroke-width="9.270704573547588"/><circle cx="757.7397669461443" cy="656.775" r="135" fill="none" stroke="hsl(45, 100%, 50%)" stroke-width="9.270704573547588"/></g><g id="radial-240"><circle cx="824.9999999999999" cy="306.1731409782016" r="135" fill="none" stroke="hsl(45, 100%, 50%)" stroke-width="9.270704573547588"/><circle cx="892.5" cy="423.08657048910084" r="135" fill="none" stroke="hsl(45, 100%, 50%)" stroke-width="9.270704573547588"/><circle cx="757.7397669461443" cy="423.22499999999997" r="135" fill="none" stroke="hsl(45, 100%, 50%)" stroke-width="9.270704573547588"/></g><g id="radial-300"><circle cx="1095" cy="306.17314097820156" r="135" fill="none" stroke="hsl(45, 100%, 50%)" stroke-width="9.270704573547588"/><circle cx="1027.5" cy="423.0865704891008" r="135" fill="none" stroke="hsl(45, 100%, 50%)" stroke-width="9.270704573547588"/><circle cx="960" cy="306.45" r="135" fill="none" stroke="hsl(45, 100%, 50%)" stroke-width="9.270704573547588"/></g></g></g></svg>