<svg id="StarMandala" xmlns="http://www.w3.org/2000/svg" viewBox="-540 -540 1080 1080"><defs><radialGradient id="radialGradient"><stop offset="0%" stop-color="red"/><stop offset="14%" stop-color="orange"/><stop offset="23.6%" stop-color="yellow"/><stop offset="38.9%" stop-color="green"/><stop offset="61.8%" stop-color="blue"/><stop offset="100%" stop-color="black"/></radialGradient><filter id="outline"><feMorphology operator="dilate" radius="2.5862777046432965" result="dilate"/><feFlood in="dilate" flood-color="black" flood-opacity="1" result="flood"/><feComposite in="flood" in2="dilate" operator="in" result="outline"/><feMerge><feMergeNode in="outline"/><feMergeNode in="SourceGraphic"/></feMerge></filter><g id="5points" filter="url(#outline)"><path id="petal" d="M-41.6778,-57.3645 Q-46.6645,-104.8102 0,-185.6355 S62.4493,-293.8008 176.5498,-243 S260.1233,-150.1823 462.2135,-150.1823 M0,70.9064 Q23.8535,112.2219 109.1138,150.1823 S223.2143,200.9831 285.6636,92.8177 S298.7191,-31.3966 462.2135,-150.1823" stroke-width="10.345110818573186" stroke-linecap="round" fill="none"/><use xmlns:xlink="http://www.w3.org/1999/xlink" xlink:href="#petal" transform="rotate(72, 0, 0)"/><use xmlns:xlink="http://www.w3.org/1999/xlink" xlink:href="#petal" transform="rotate(144, 0, 0)"/><use xmlns:xlink="http://www.w3.org/1999/xlink" xlink:href="#petal" transform="rotate(216, 0, 0)"/><use xmlns:xlink="http://www.w3.org/1999/xlink" xlink:href="#petal" transform="rotate(288, 0, 0)"/></g></defs><circle cx="0" cy="0" r="486" fill="url(#radialGradient)" fill-opacity="0.66"/><circle cx="0" cy="0" r="486" stroke="hsl(240, 100%, 80%)" stroke-width="0.3563047938266992" fill="none"/><circle cx="0" cy="0" r="300.3645185324489" stroke="hsl(240, 100%, 80%)" stroke-width="0.3563047938266992" fill="none"/><circle cx="0" cy="0" r="185.63548146755113" stroke="hsl(240, 100%, 80%)" stroke-width="0.3563047938266992" fill="none"/><circle cx="0" cy="0" r="114.72903706489782" stroke="hsl(240, 100%, 80%)" stroke-width="0.3563047938266992" fill="none"/><circle cx="0" cy="0" r="70.90644440265334" stroke="hsl(240, 100%, 80%)" stroke-width="0.3563047938266992" fill="none"/><circle cx="0" cy="0" r="43.822592662244496" stroke="hsl(240, 100%, 80%)" stroke-width="0.3563047938266992" fill="none"/><circle cx="0" cy="0" r="27.083851740408846" stroke="hsl(240, 100%, 80%)" stroke-width="0.3563047938266992" fill="none"/><circle cx="0" cy="0" r="16.73874092183566" stroke="hsl(240, 100%, 80%)" stroke-width="0.3563047938266992" fill="none"/><g><path d="M0,0L486,0" stroke="hsl(225, 100%, 85%)" stroke-width="0.3563047938266992" fill="none"/></g><g><path d="M0,0L483.3376,50.8008" stroke="hsl(225, 100%, 85%)" stroke-width="0.3563047938266992" fill="none"/></g><g><path d="M0,0L475.3797,101.0451" stroke="hsl(225, 100%, 85%)" stroke-width="0.3563047938266992" fill="none"/></g><g><path d="M0,0L462.2135,150.1823" stroke="hsl(225, 100%, 85%)" stroke-width="0.3563047938266992" fill="none"/></g><g><path d="M0,0L443.9831,197.674" stroke="hsl(225, 100%, 85%)" stroke-width="0.3563047938266992" fill="none"/></g><g><path d="M0,0L420.8883,243" stroke="hsl(225, 100%, 85%)" stroke-width="0.3563047938266992" fill="none"/></g><g><path d="M0,0L393.1823,285.6636" stroke="hsl(225, 100%, 85%)" stroke-width="0.3563047938266992" fill="none"/></g><g><path d="M0,0L361.1684,325.1975" stroke="hsl(225, 100%, 85%)" stroke-width="0.3563047938266992" fill="none"/></g><g><path d="M0,0L325.1975,361.1684" stroke="hsl(225, 100%, 85%)" stroke-width="0.3563047938266992" fill="none"/></g><g><path d="M0,0L285.6636,393.1823" stroke="hsl(225, 100%, 85%)" stroke-width="0.3563047938266992" fill="none"/></g><g><path d="M0,0L243,420.8883" stroke="hsl(225, 100%, 85%)" stroke-width="0.3563047938266992" fill="none"/></g><g><path d="M0,0L197.674,443.9831" stroke="hsl(225, 100%, 85%)" stroke-width="0.3563047938266992" fill="none"/></g><g><path d="M0,0L150.1823,462.2135" stroke="hsl(225, 100%, 85%)" stroke-width="0.3563047938266992" fill="none"/></g><g><path d="M0,0L101.0451,475.3797" stroke="hsl(225, 100%, 85%)" stroke-width="0.3563047938266992" fill="none"/></g><g><path d="M0,0L50.8008,483.3376" stroke="hsl(225, 100%, 85%)" stroke-width="0.3563047938266992" fill="none"/></g><g><path d="M0,0L0,486" stroke="hsl(225, 100%, 85%)" stroke-width="0.3563047938266992" fill="none"/></g><g><path d="M0,0L-50.8008,483.3376" stroke="hsl(225, 100%, 85%)" stroke-width="0.3563047938266992" fill="none"/></g><g><path d="M0,0L-101.0451,475.3797" stroke="hsl(225, 100%, 85%)" stroke-width="0.3563047938266992" fill="none"/></g><g><path d="M0,0L-150.1823,462.2135" stroke="hsl(225, 100%, 85%)" stroke-width="0.3563047938266992" fill="none"/></g><g><path d="M0,0L-197.674,443.9831" stroke="hsl(225, 100%, 85%)" stroke-width="0.3563047938266992" fill="none"/></g><g><path d="M0,0L-243,420.8883" stroke="hsl(225, 100%, 85%)" stroke-width="0.3563047938266992" fill="none"/></g><g><path d="M0,0L-285.6636,393.1823" stroke="hsl(225, 100%, 85%)" stroke-width="0.3563047938266992" fill="none"/></g><g><path d="M0,0L-325.1975,361.1684" stroke="hsl(225, 100%, 85%)" stroke-width="0.3563047938266992" fill="none"/></g><g><path d="M0,0L-361.1684,325.1975" stroke="hsl(225, 100%, 85%)" stroke-width="0.3563047938266992" fill="none"/></g><g><path d="M0,0L-393.1823,285.6636" stroke="hsl(225, 100%, 85%)" stroke-width="0.3563047938266992" fill="none"/></g><g><path d="M0,0L-420.8883,243" stroke="hsl(225, 100%, 85%)" stroke-width="0.3563047938266992" fill="none"/></g><g><path d="M0,0L-443.9831,197.674" stroke="hsl(225, 100%, 85%)" stroke-width="0.3563047938266992" fill="none"/></g><g><path d="M0,0L-462.2135,150.1823" stroke="hsl(225, 100%, 85%)" stroke-width="0.3563047938266992" fill="none"/></g><g><path d="M0,0L-475.3797,101.0451" stroke="hsl(225, 100%, 85%)" stroke-width="0.3563047938266992" fill="none"/></g><g><path d="M0,0L-483.3376,50.8008" stroke="hsl(225, 100%, 85%)" stroke-width="0.3563047938266992" fill="none"/></g><g><path d="M0,0L-486,0" stroke="hsl(225, 100%, 85%)" stroke-width="0.3563047938266992" fill="none"/></g><g><path d="M0,0L-483.3376,-50.8008" stroke="hsl(225, 100%, 85%)" stroke-width="0.3563047938266992" fill="none"/></g><g><path d="M0,0L-475.3797,-101.0451" stroke="hsl(225, 100%, 85%)" stroke-width="0.3563047938266992" fill="none"/></g><g><path d="M0,0L-462.2135,-150.1823" stroke="hsl(225, 100%, 85%)" stroke-width="0.3563047938266992" fill="none"/></g><g><path d="M0,0L-443.9831,-197.674" stroke="hsl(225, 100%, 85%)" stroke-width="0.3563047938266992" fill="none"/></g><g><path d="M0,0L-420.8883,-243" stroke="hsl(225, 100%, 85%)" stroke-width="0.3563047938266992" fill="none"/></g><g><path d="M0,0L-393.1823,-285.6636" stroke="hsl(225, 100%, 85%)" stroke-width="0.3563047938266992" fill="none"/></g><g><path d="M0,0L-361.1684,-325.1975" stroke="hsl(225, 100%, 85%)" stroke-width="0.3563047938266992" fill="none"/></g><g><path d="M0,0L-325.1975,-361.1684" stroke="hsl(225, 100%, 85%)" stroke-width="0.3563047938266992" fill="none"/></g><g><path d="M0,0L-285.6636,-393.1823" stroke="hsl(225, 100%, 85%)" stroke-width="0.3563047938266992" fill="none"/></g><g><path d="M0,0L-243,-420.8883" stroke="hsl(225, 100%, 85%)" stroke-width="0.3563047938266992" fill="none"/></g><g><path d="M0,0L-197.674,-443.9831" stroke="hsl(225, 100%, 85%)" stroke-width="0.3563047938266992" fill="none"/></g><g><path d="M0,0L-150.1823,-462.2135" stroke="hsl(225, 100%, 85%)" stroke-width="0.3563047938266992" fill="none"/></g><g><path d="M0,0L-101.0451,-475.3797" stroke="hsl(225, 100%, 85%)" stroke-width="0.3563047938266992" fill="none"/></g><g><path d="M0,0L-50.8008,-483.3376" stroke="hsl(225, 100%, 85%)" stroke-width="0.3563047938266992" fill="none"/></g><g><path d="M0,0L0,-486" stroke="hsl(225, 100%, 85%)" stroke-width="0.3563047938266992" fill="none"/></g><g><path d="M0,0L50.8008,-483.3376" stroke="hsl(225, 100%, 85%)" stroke-width="0.3563047938266992" fill="none"/></g><g><path d="M0,0L101.0451,-475.3797" stroke="hsl(225, 100%, 85%)" stroke-width="0.3563047938266992" fill="none"/></g><g><path d="M0,0L150.1823,-462.2135" stroke="hsl(225, 100%, 85%)" stroke-width="0.3563047938266992" fill="none"/></g><g><path d="M0,0L197.674,-443.9831" stroke="hsl(225, 100%, 85%)" stroke-width="0.3563047938266992" fill="none"/></g><g><path d="M0,0L243,-420.8883" stroke="hsl(225, 100%, 85%)" stroke-width="0.3563047938266992" fill="none"/></g><g><path d="M0,0L285.6636,-393.1823" stroke="hsl(225, 100%, 85%)" stroke-width="0.3563047938266992" fill="none"/></g><g><path d="M0,0L325.1975,-361.1684" stroke="hsl(225, 100%, 85%)" stroke-width="0.3563047938266992" fill="none"/></g><g><path d="M0,0L361.1684,-325.1975" stroke="hsl(225, 100%, 85%)" stroke-width="0.3563047938266992" fill="none"/></g><g><path d="M0,0L393.1823,-285.6636" stroke="hsl(225, 100%, 85%)" stroke-width="0.3563047938266992" fill="none"/></g><g><path d="M0,0L420.8883,-243" stroke="hsl(225, 100%, 85%)" stroke-width="0.3563047938266992" fill="none"/></g><g><path d="M0,0L443.9831,-197.674" stroke="hsl(225, 100%, 85%)" stroke-width="0.3563047938266992" fill="none"/></g><g><path d="M0,0L462.2135,-150.1823" stroke="hsl(225, 100%, 85%)" stroke-width="0.3563047938266992" fill="none"/></g><g><path d="M0,0L475.3797,-101.0451" stroke="hsl(225, 100%, 85%)" stroke-width="0.3563047938266992" fill="none"/></g><g><path d="M0,0L483.3376,-50.8008" stroke="hsl(225, 100%, 85%)" stroke-width="0.3563047938266992" fill="none"/></g><g id="whole"><use xmlns:xlink="http://www.w3.org/1999/xlink" xlink:href="#5points" transform="rotate(36, 0, 0)" stroke="hsl(225, 100%, 85%)"/><use xmlns:xlink="http://www.w3.org/1999/xlink" xlink:href="#5points" stroke="hsl(225, 100%, 85%)"/></g></svg>