<svg xmlns="http://www.w3.org/2000/svg" viewBox="-540 -540 1080 1080"><defs><filter id="yinyangglow"><feFlood flood-color="hsl(240, 100%, 85%)" result="flood"/><feComposite in="flood" in2="SourceAlpha" operator="in" result="mask"/><feGaussianBlur in="mask" stdDeviation="75" result="blur"/><feMerge><feMergeNode in="blur"/><feMergeNode in="SourceGraphic"/></feMerge></filter><g id="yin" transform="translate(0,-270) rotate(-60)"><path d="M0,0 A67.5,67.5 0 0 0 -2.4799097682733902e-14,-135 A135,135 0 0 0 8.266365894244634e-15,135 A67.5,67.5 0 0 1 0,0" stroke="black" fill="black"/><circle cx="0" cy="-67.5" r="22.5" fill="white"/><path d="M0,-135 A67.5,67.5 0 0 1 0,-270 A135,135 0 0 1 0,0 A67.5,67.5 0 0 0 0,-135" stroke="black" fill="white"/><circle cx="0" cy="-202.5" r="22.5" fill="black"/></g></defs><path d="M-540,-540H1080V1080H-540Z" fill="hsl(270,50%,0%)"/><g filter="url(#yinyangglow"><use href="#yin" transform="rotate(0, 0, 0)"/><use href="#yin" transform="rotate(60, 0, 0)"/><use href="#yin" transform="rotate(120, 0, 0)"/><use href="#yin" transform="rotate(180, 0, 0)"/><use href="#yin" transform="rotate(240, 0, 0)"/><use href="#yin" transform="rotate(300, 0, 0)"/><g transform="rotate(-60)"><circle r="135"/><path d="M0,0 A67.5,67.5 0 0 0 -2.4799097682733902e-14,-135 A135,135 0 0 0 8.266365894244634e-15,135 A67.5,67.5 0 0 1 0,0" stroke="black" fill="white"/><circle cx="0" cy="-67.5" r="22.5" fill="black"/><circle cx="0" cy="67.5" r="22.5" fill="white"/></g></g></svg>